<?xml version="1.0" encoding="utf-8"?>
<!-- Generator: Adobe Illustrator 16.0.0, SVG Export Plug-In . SVG Version: 6.00 Build 0)  -->
<!DOCTYPE svg PUBLIC "-//W3C//DTD SVG 1.1//EN" "http://www.w3.org/Graphics/SVG/1.1/DTD/svg11.dtd">
<svg version="1.1" id="圖層_1" xmlns="http://www.w3.org/2000/svg" xmlns:xlink="http://www.w3.org/1999/xlink" x="0px" y="0px"
	 width="247px" height="253px" viewBox="0 0 247 253" enable-background="new 0 0 247 253" xml:space="preserve">
<g>
	<path fill-rule="evenodd" clip-rule="evenodd" fill="#00913A" d="M101.467,218.41c0.304,0.051,0.426,0.058,0.54,0.092
		c1.652,0.493,3.246,0.001,4.83-0.345c0.553-0.121,1.122-0.455,1.544-0.843c2.26-2.077,4.495-4.182,6.699-6.318
		c1.403-1.36,2.774-2.758,4.092-4.201c1.908-2.088,3.829-4.17,5.607-6.365c2.131-2.633,4.172-5.344,6.15-8.094
		c1.815-2.523,3.459-5.17,5.251-7.711c0.963-1.365,1.715-2.845,2.561-4.272c0.831-1.403,1.573-2.86,2.344-4.3
		c1.037-1.935,2.13-3.844,3.079-5.82c1.206-2.515,2.355-5.061,3.415-7.641c1.318-3.208,2.585-6.44,3.751-9.707
		c0.896-2.511,1.625-5.083,2.385-7.641c0.432-1.453,0.782-2.931,1.159-4.399c0.293-1.142,0.756-1.328,1.655-0.605
		c1.492,1.197,12.274,9.666,13.714,10.799c0.532,0.419,0.646,0.944,0.52,1.601c-0.469,2.429-0.894,4.865-1.355,7.295
		c-0.32,1.685-0.613,3.378-1.027,5.041c-0.798,3.21-1.592,6.425-2.538,9.593c-1.038,3.477-2.191,6.921-3.397,10.343
		c-1.007,2.855-2.086,5.691-3.272,8.476c-1.297,3.044-2.725,6.034-4.154,9.019c-0.758,1.582-1.618,3.117-2.473,4.65
		c-1.378,2.474-2.737,4.959-4.203,7.381c-1.341,2.217-2.772,4.383-4.238,6.521c-1.332,1.941-2.698,3.867-4.178,5.695
		c-0.884,1.093-3.432,4.09-3.77,4.53c-2.614,3.399-5.699,6.348-8.862,9.221c-1.12,1.018-2.253,2.021-3.381,3.031
		c-1.131,1.012-1.425,0.989-2.478-0.049c-2.3-2.267-20.91-20.727-22.089-21.917c-0.595-0.601-0.583-0.911-0.003-1.512
		c0.387-0.401,0.771-0.817,1.215-1.148C100.856,218.583,101.257,218.497,101.467,218.41z"/>
	<path fill-rule="evenodd" clip-rule="evenodd" fill="#00913A" d="M146.125,34.109c0,0.93-1.891,2.767-2.526,2.717
		c-0.191-0.016-0.389-0.091-0.564-0.178c-3.212-1.583-6.233-0.95-9.021,0.968c-1.437,0.988-2.694,2.251-3.965,3.462
		c-1.7,1.621-3.364,3.285-4.985,4.985c-0.815,0.856-2.735,2.966-2.827,3.038c-1.943,1.911-3.327,3.838-4.956,5.949
		c-0.291,0.377-0.603,0.737-0.901,1.108c-0.952,1.18-1.969,2.313-2.839,3.552c-1.767,2.512-3.484,5.061-5.165,7.632
		c-1.112,1.702-2.181,3.438-3.17,5.213c-1.455,2.61-2.815,5.274-4.228,7.909c-0.733,1.367-1.554,2.691-2.225,4.088
		c-1.174,2.441-2.301,4.908-3.378,7.395c-1.157,2.67-2.217,5.383-3.351,8.063c-1.482,3.502-2.331,7.206-3.491,10.812
		c-0.232,0.72-0.309,1.489-0.542,2.209c-0.317,0.978-0.789,1.125-1.596,0.5c-0.787-0.609-12.512-10.655-12.991-10.933
		c-0.624-0.361-0.774-0.834-0.634-1.507c0.351-1.678,0.644-3.368,1.002-5.045c0.633-2.962,1.243-5.93,1.964-8.87
		c0.655-2.672,1.388-5.327,2.191-7.958c1.072-3.51,2.212-7,3.389-10.477c0.536-1.583,1.177-3.137,1.862-4.663
		c1.7-3.782,3.355-7.591,5.213-11.296c1.823-3.635,3.786-7.207,5.847-10.713c2.445-4.159,5.116-8.18,7.978-12.073
		c2.938-3.996,6.205-7.709,9.52-11.39c1.902-2.111,4.026-3.976,6.138-5.86c0.804-0.717,1.568-1.479,2.363-2.207
		c0.954-0.876,1.416-0.844,2.337,0.049c3.18,3.085,21.329,20.819,22.855,22.337C145.798,33.293,145.979,33.852,146.125,34.109z"/>
	<path fill-rule="evenodd" clip-rule="evenodd" fill="#00913A" d="M30.197,107.66c-0.056,0.29-0.12,0.563-0.161,0.839
		c-0.276,1.889-0.148,3.747,0.434,5.568c0.517,1.616,1.296,2.809,2.455,3.972c1.836,2.446,3.547,4.44,5.375,6.188
		c3.495,3.87,7.549,6.355,11.739,9.418c3.251,2.376,6.598,4.627,9.955,6.853c3.688,2.444,7.521,4.665,11.462,6.672
		c3.546,1.806,7.154,3.499,10.788,5.124c2.875,1.285,5.797,2.484,8.76,3.553c3.183,1.148,6.427,2.137,9.665,3.126
		c2.134,0.652,4.305,1.183,6.46,1.765c0.852,0.23,1.1,0.648,0.626,1.395c-0.465,0.733-9.898,12.078-10.706,13.163
		c-0.261,0.352-1.671,1.596-2.607,1.282c-1.046-0.35-6.401-1.222-7.964-1.537c-2.069-0.417-4.136-0.852-6.184-1.358
		c-2.007-0.496-3.99-1.092-5.983-1.644c-0.883-0.244-1.775-0.46-2.647-0.738c-2.843-0.906-5.709-1.751-8.509-2.777
		c-3.733-1.368-7.428-2.844-11.109-4.347c-3.765-1.537-7.432-3.297-10.975-5.292c-3.506-1.974-7.008-3.966-10.413-6.108
		c-2.317-1.459-4.605-2.983-6.726-4.743c-2.512-2.084-5.163-4.005-7.637-6.132c-2.237-1.923-4.341-4.006-6.46-6.062
		c-1.858-1.803-3.649-3.674-5.487-5.497c-0.712-0.706-0.69-1.202,0.132-2.002c1.799-1.747,22.395-22.974,22.648-23.33
		c0.287-0.404,0.712-0.52,1.023-0.193c0.681,0.713,1.282,1.504,1.891,2.282C30.154,107.241,30.149,107.475,30.197,107.66z"/>
	<path fill-rule="evenodd" clip-rule="evenodd" fill="#00913A" d="M148.754,77.261c2.901,0.534,5.813,1.013,8.699,1.618
		c2.812,0.591,5.622,1.217,8.383,2.001c2.988,0.849,5.921,1.895,8.875,2.862c0.91,0.298,1.807,0.637,2.718,0.93
		c4.496,1.446,8.758,3.461,13.024,5.448c3.249,1.514,6.477,3.096,9.604,4.844c3.479,1.944,6.857,4.076,10.24,6.19
		c3.286,2.053,6.376,4.381,9.334,6.887c1.913,1.622,3.916,3.143,5.779,4.818c1.771,1.593,3.451,3.292,5.102,5.011
		c1.85,1.927,3.621,3.928,5.427,5.896c0.081,0.088,0.17,0.17,0.243,0.265c1.052,1.358,1.01,1.371-0.218,2.639
		c-2.888,2.983-22.27,23.59-22.781,24.028c-0.705,0.604-1.221,0.538-1.873-0.145c-0.302-0.316-0.579-0.656-0.87-0.983
		c-0.766-0.861-0.769-1.138-0.244-2.233c0.974-2.034,1.081-4.15,0.452-6.303c-0.452-1.548-1.195-2.904-2.355-4.084
		c-1.141-1.158-2.055-2.535-3.146-3.745c-0.958-1.062-2.113-1.95-3.026-3.045c-2.32-2.78-5.263-4.876-7.903-7.302
		c-1.612-1.48-3.403-2.771-5.146-4.104c-2.533-1.94-5.074-3.87-7.652-5.749c-1.319-0.963-2.715-1.824-4.099-2.695
		c-1.79-1.126-3.573-2.269-5.414-3.306c-2.085-1.175-4.199-2.309-6.359-3.338c-2.841-1.354-5.725-2.622-8.616-3.866
		c-2.935-1.263-5.881-2.5-8.856-3.657c-1.97-0.766-3.994-1.395-6.008-2.039c-1.482-0.474-2.988-0.872-4.483-1.306
		c-0.153-0.044-0.309-0.086-0.458-0.143c-0.92-0.346-1.037-0.888-0.366-1.597c0.658-0.696,9.366-12.146,10.415-13.208
		C147.361,77.409,148.147,77.107,148.754,77.261z"/>
	<path fill-rule="evenodd" clip-rule="evenodd" fill="#00913A" d="M110.566,157.504c-0.347-0.125-0.516,0.176-1.004,0.014
		c-3.898-1.295-8.121-3.031-12.002-4.374c-2.451-0.848-4.896-1.735-7.274-2.767c-3.62-1.57-7.229-3.182-10.75-4.959
		c-3.516-1.775-6.986-3.665-10.353-5.707c-3.578-2.17-7.012-4.575-10.506-6.882c-3.672-2.424-7.061-5.226-10.467-7.994
		c-1.822-1.481-3.5-3.146-5.191-4.781c-1.374-1.328-2.7-2.709-3.991-4.117c-1.291-1.409-2.555-2.849-3.755-4.336
		c-1.925-2.387-3.792-4.821-5.674-7.241c-0.734-0.944-0.704-1.171,0.138-2.019c3.175-3.198,24.278-24.305,27.372-27.477
		c0.167-0.172,0.324-0.355,0.503-0.513c0.635-0.562,0.754-0.546,1.371,0.066c0.34,0.337,0.698,0.656,1.055,0.976
		c1.013,0.903,1.107,1.387,0.216,2.423c-1.031,1.199-1.763,2.551-2.357,3.993c-1.262,3.063-1.664,6.216-0.991,9.482
		c0.481,2.34,1.464,4.492,2.668,6.516c0.663,1.113,1.661,2.035,2.552,3.003c2.542,2.759,5.07,5.532,7.675,8.231
		c1.437,1.488,3.011,2.845,4.534,4.25c1.055,0.975,2.084,1.983,3.2,2.884c1.95,1.574,3.924,3.124,5.953,4.595
		c1.932,1.401,3.942,2.695,5.927,4.022c1.524,1.02,3.039,2.057,4.598,3.02c3.258,2.011,6.514,4.028,9.99,5.661
		c3.035,1.426,5.994,3.022,9.076,4.335c2.965,1.263,5.86,2.749,9.054,3.429c0.8,0.17,1.023,0.798,0.507,1.543
		C122.139,143.499,111.486,157.518,110.566,157.504z"/>
	<path fill-rule="evenodd" clip-rule="evenodd" fill="#00913A" d="M68.096,191.62c0.067-0.172,0.095-0.438,0.241-0.593
		c0.6-0.639,1.218-1.262,1.864-1.854c0.501-0.46,0.805-0.463,1.363,0.029c1.085,0.96,2.276,1.74,3.566,2.396
		c2.516,1.281,5.182,1.778,7.979,1.624c1.754-0.098,3.469-0.385,5.144-0.984c1.545-0.553,2.841-1.446,4.04-2.511
		c4.241-3.767,8.248-7.778,12.209-11.833c3.378-3.458,6.456-7.176,9.402-11.006c3.289-4.273,6.297-8.741,9.11-13.333
		c1.915-3.127,3.642-6.373,5.371-9.608c1.182-2.211,2.291-4.465,3.312-6.754c1.429-3.205,2.751-6.458,4.102-9.698
		c0.214-0.514,0.327-1.069,0.499-1.601c0.333-1.026,0.802-1.178,1.65-0.501c0.592,0.473,1.136,1.005,1.722,1.484
		c2.652,2.169,5.305,4.339,7.973,6.488c0.745,0.601,1.561,1.112,2.315,1.701c1.115,0.872,1.278,1.361,0.86,2.697
		c-0.798,2.551-1.613,5.095-2.443,7.635c-0.605,1.855-1.185,3.724-1.886,5.543c-0.873,2.265-1.853,4.487-2.799,6.723
		c-0.81,1.912-1.563,3.853-2.477,5.715c-1.6,3.262-3.25,6.502-4.98,9.695c-1.442,2.663-2.972,5.284-4.572,7.855
		c-1.66,2.666-3.367,5.312-5.21,7.853c-1.982,2.732-4.087,5.383-6.246,7.98c-2.473,2.975-4.995,5.917-7.627,8.751
		c-2.169,2.335-4.473,4.556-6.825,6.709c-2.117,1.936-4.384,3.707-6.578,5.56c-0.334,0.282-0.623,0.617-0.94,0.922
		c-0.612,0.587-1.125,0.64-1.822,0.178c-0.165-0.108-0.31-0.251-0.453-0.39c-1.146-1.112-24.559-24.072-27.699-26.608
		C68.204,191.837,68.177,191.752,68.096,191.62z"/>
	<path fill-rule="evenodd" clip-rule="evenodd" fill="#00913A" d="M91.519,116.837c0.067-0.216,0.118-0.408,0.185-0.594
		c0.69-1.915,1.4-3.824,2.07-5.746c0.723-2.072,1.291-4.206,2.137-6.225c1.538-3.669,3.161-7.305,4.88-10.892
		c1.601-3.339,3.307-6.632,5.088-9.879c1.574-2.868,3.389-5.604,4.956-8.476c1.111-2.038,2.49-3.889,3.79-5.785
		c2.049-2.991,4.326-5.825,6.503-8.729c0.166-0.221,1.43-2.061,3.547-4.412c2.455-2.726,5.879-6.083,7.243-7.534
		c3.314-3.525,6.98-6.659,10.841-9.57c1.241-0.937,2.438-1.934,3.684-2.863c0.92-0.686,1.405-0.608,2.186,0.178
		c2.108,2.125,25.442,25.394,26.673,26.64c0.761,0.771,0.74,1.247-0.021,2.045c-0.386,0.404-0.759,0.824-1.173,1.197
		c-0.603,0.543-0.967,0.466-1.471-0.186c-0.509-0.656-0.979-1.375-1.602-1.906c-2.047-1.746-4.443-2.768-7.103-3.177
		c-1.66-0.257-3.32-0.376-4.99-0.092c-2.859,0.487-5.563,1.382-7.864,3.206c-0.87,0.69-1.64,1.04-2.444,1.813
		c-1.669,1.603-2.838,2.64-4.5,4.25c-0.631,0.611-1.922,1.714-3.667,3.844c-1.767,1.695-4.708,5.586-6.116,7.256
		c-1.053,1.249-2.027,2.564-3.029,3.855c-1.539,1.983-3.084,3.963-4.599,5.964c-0.745,0.983-1.449,2.001-2.139,3.025
		c-0.822,1.224-1.621,2.464-2.406,3.711c-0.996,1.582-2.014,3.154-2.941,4.776c-1.604,2.804-3.19,5.62-4.696,8.478
		c-0.892,1.692-1.608,3.478-2.422,5.212c-0.236,0.502-1.262,2.892-1.586,3.565c-0.481,1.001-1.739,4.195-1.814,4.41
		c-0.608,1.724-1.409,3.433-2.051,5.143c-0.235,0.627-0.617,0.642-1.097,0.203c-1.264-1.155-12.329-10.471-13.082-10.995
		C91.87,118.119,91.692,117.488,91.519,116.837z"/>
	<path fill-rule="evenodd" clip-rule="evenodd" fill="#00913A" d="M182.638,180.788c-0.438-0.407-0.844-0.847-1.263-1.272
		c-0.697-0.71-0.684-1.574,0.013-2.319c2.436-2.606,4.006-5.644,4.566-9.185c0.828-5.231-0.437-10.022-3.655-14.16
		c-1.55-2.578-1.637-2.446-2.75-3.75c-0.933-1.093-2.731-3.055-3.688-4.125c-2.131-2.385-4.225-3.77-6.619-5.892
		c-2.393-2.121-4.854-4.152-7.418-6.055c-2.239-1.664-4.552-3.232-6.86-4.803c-1.978-1.345-3.957-2.695-6.005-3.929
		c-2.494-1.502-5.035-2.93-7.602-4.307c-2.496-1.339-5.017-2.642-7.585-3.832c-3.038-1.408-6.124-2.717-9.221-3.992
		c-1.171-0.482-2.425-0.765-3.647-1.116c-0.875-0.251-1.067-0.776-0.463-1.477c1.224-1.419,11.025-13.232,11.483-13.783
		c0.315-0.38,0.697-0.433,1.183-0.258c3.38,1.218,6.791,2.352,10.147,3.628c2.866,1.091,5.675,2.334,8.507,3.516
		c1.141,0.476,2.29,0.937,3.408,1.461c0.896,0.421,1.753,0.928,2.627,1.397c2.321,1.246,4.655,2.468,6.957,3.747
		c1.186,0.658,2.328,1.396,3.467,2.135c2.375,1.54,4.747,3.087,7.1,4.661c3.719,2.488,7.144,5.356,10.563,8.229
		c1.953,1.641,3.969,3.219,5.816,4.971c3.27,3.101,6.578,6.168,9.481,9.635c1.381,1.648,2.872,3.206,4.229,4.873
		c1.006,1.235,1.885,2.576,2.804,3.881c0.598,0.849,1.172,1.714,1.747,2.579c0.776,1.169,0.7,1.901-0.241,2.883
		c-1.216,1.268-2.407,2.559-3.626,3.824c-1.631,1.693-3.293,3.356-4.914,5.06c-1.402,1.473-2.753,2.994-4.148,4.473
		c-2.191,2.32-4.403,4.622-6.604,6.934c-1.703,1.787-3.413,3.568-5.102,5.37c-0.257,0.274-0.915,1.016-1.483,1.232
		S182.793,180.932,182.638,180.788z"/>
</g>
<path fill-rule="evenodd" clip-rule="evenodd" d="M289.437,615.667"/>
<path fill-rule="evenodd" clip-rule="evenodd" d="M271.938,632.125"/>
<path fill-rule="evenodd" clip-rule="evenodd" fill="#FFFFFF" d="M274.738,633.794"/>
<path fill-rule="evenodd" clip-rule="evenodd" fill="#FFFFFF" d="M211.679,576.565"/>
</svg>
