<?xml version="1.0" encoding="utf-8"?>
<!-- Generator: Adobe Illustrator 16.0.0, SVG Export Plug-In . SVG Version: 6.00 Build 0)  -->
<!DOCTYPE svg PUBLIC "-//W3C//DTD SVG 1.1//EN" "http://www.w3.org/Graphics/SVG/1.1/DTD/svg11.dtd">
<svg version="1.1" id="圖層_1" xmlns="http://www.w3.org/2000/svg" xmlns:xlink="http://www.w3.org/1999/xlink" x="0px" y="0px"
	 width="1511px" height="263px" viewBox="0 0 1511 263" enable-background="new 0 0 1511 263" xml:space="preserve">
<g>
	<path fill-rule="evenodd" clip-rule="evenodd" fill="#00913A" d="M116.467,216.352c0.304,0.051,0.426,0.058,0.54,0.092
		c1.652,0.493,3.246,0.001,4.83-0.345c0.553-0.121,1.122-0.455,1.544-0.843c2.26-2.077,4.495-4.182,6.699-6.318
		c1.403-1.36,2.774-2.758,4.092-4.201c1.908-2.088,3.829-4.17,5.607-6.365c2.131-2.633,4.172-5.344,6.15-8.094
		c1.815-2.523,3.459-5.17,5.251-7.711c0.963-1.365,1.715-2.845,2.561-4.272c0.831-1.403,1.573-2.86,2.344-4.3
		c1.037-1.935,2.13-3.844,3.079-5.82c1.206-2.515,2.355-5.061,3.415-7.641c1.318-3.208,2.585-6.44,3.751-9.707
		c0.896-2.511,1.625-5.083,2.385-7.641c0.432-1.453,0.782-2.931,1.159-4.399c0.293-1.142,0.756-1.328,1.655-0.605
		c1.492,1.197,12.274,9.666,13.714,10.799c0.532,0.419,0.646,0.944,0.52,1.601c-0.469,2.429-0.894,4.865-1.355,7.295
		c-0.32,1.685-0.613,3.378-1.027,5.041c-0.798,3.21-1.592,6.425-2.538,9.593c-1.038,3.477-2.191,6.921-3.397,10.343
		c-1.007,2.855-2.086,5.691-3.272,8.476c-1.297,3.044-2.725,6.034-4.154,9.019c-0.758,1.582-1.618,3.117-2.473,4.65
		c-1.378,2.474-2.737,4.959-4.203,7.381c-1.341,2.217-2.772,4.383-4.238,6.521c-1.332,1.941-2.698,3.867-4.178,5.695
		c-0.884,1.093-3.432,4.09-3.77,4.53c-2.614,3.399-5.699,6.348-8.862,9.221c-1.12,1.018-2.253,2.021-3.381,3.031
		c-1.131,1.012-1.425,0.989-2.478-0.049c-2.3-2.267-20.91-20.727-22.089-21.917c-0.595-0.601-0.583-0.911-0.003-1.512
		c0.387-0.401,0.771-0.817,1.215-1.148C115.856,216.526,116.257,216.439,116.467,216.352z"/>
	<path fill-rule="evenodd" clip-rule="evenodd" fill="#00913A" d="M161.125,32.051c0,0.93-1.891,2.767-2.526,2.717
		c-0.191-0.016-0.389-0.091-0.564-0.178c-3.212-1.583-6.233-0.95-9.021,0.968c-1.437,0.988-2.694,2.251-3.965,3.462
		c-1.7,1.621-3.364,3.285-4.985,4.985c-0.815,0.856-2.735,2.966-2.827,3.038c-1.943,1.911-3.327,3.838-4.956,5.949
		c-0.291,0.377-0.603,0.737-0.901,1.108c-0.952,1.18-1.969,2.313-2.839,3.552c-1.767,2.512-3.484,5.061-5.165,7.632
		c-1.112,1.702-2.181,3.438-3.17,5.213c-1.455,2.61-2.815,5.274-4.228,7.909c-0.733,1.367-1.554,2.691-2.225,4.088
		c-1.174,2.441-2.301,4.908-3.378,7.395c-1.157,2.67-2.217,5.383-3.351,8.063c-1.482,3.502-2.331,7.206-3.491,10.812
		c-0.232,0.72-0.309,1.489-0.542,2.209c-0.317,0.978-0.789,1.125-1.596,0.5c-0.787-0.609-12.512-10.655-12.991-10.933
		c-0.624-0.361-0.774-0.834-0.634-1.507c0.351-1.678,0.644-3.368,1.002-5.045c0.633-2.962,1.243-5.93,1.964-8.87
		c0.655-2.672,1.388-5.327,2.191-7.958c1.072-3.51,2.212-7,3.389-10.477c0.536-1.583,1.177-3.137,1.862-4.663
		c1.7-3.782,3.355-7.591,5.213-11.296c1.823-3.635,3.786-7.207,5.847-10.713c2.445-4.159,5.116-8.18,7.978-12.073
		c2.938-3.996,6.205-7.709,9.52-11.39c1.902-2.111,4.026-3.976,6.138-5.86c0.804-0.717,1.568-1.479,2.363-2.207
		c0.954-0.876,1.416-0.844,2.337,0.049c3.18,3.085,21.329,20.819,22.855,22.337C160.798,31.236,160.979,31.794,161.125,32.051z"/>
	<path fill-rule="evenodd" clip-rule="evenodd" fill="#00913A" d="M45.197,105.602c-0.056,0.29-0.12,0.563-0.161,0.839
		c-0.276,1.889-0.148,3.747,0.434,5.568c0.517,1.616,1.296,2.809,2.455,3.972c1.836,2.446,3.547,4.44,5.375,6.188
		c3.495,3.87,7.549,6.355,11.739,9.418c3.251,2.376,6.598,4.627,9.955,6.853c3.688,2.444,7.521,4.665,11.462,6.672
		c3.546,1.806,7.154,3.499,10.788,5.124c2.875,1.285,5.797,2.484,8.76,3.553c3.183,1.148,6.427,2.137,9.665,3.126
		c2.134,0.652,4.305,1.183,6.46,1.765c0.852,0.23,1.1,0.648,0.626,1.395c-0.465,0.733-9.898,12.078-10.706,13.163
		c-0.261,0.352-1.671,1.596-2.607,1.282c-1.046-0.35-6.401-1.222-7.964-1.537c-2.069-0.417-4.136-0.852-6.184-1.358
		c-2.007-0.496-3.99-1.092-5.983-1.644c-0.883-0.244-1.775-0.46-2.647-0.738c-2.843-0.906-5.709-1.751-8.509-2.777
		c-3.733-1.368-7.428-2.844-11.109-4.347c-3.765-1.537-7.432-3.297-10.975-5.292c-3.506-1.974-7.008-3.966-10.413-6.108
		c-2.317-1.459-4.605-2.983-6.726-4.743c-2.512-2.084-5.163-4.005-7.637-6.132c-2.237-1.923-4.341-4.006-6.46-6.062
		c-1.858-1.803-3.649-3.674-5.487-5.497c-0.712-0.706-0.69-1.202,0.132-2.002c1.799-1.747,22.395-22.974,22.648-23.33
		c0.287-0.404,0.712-0.52,1.023-0.193c0.681,0.713,1.282,1.504,1.891,2.282C45.154,105.183,45.149,105.417,45.197,105.602z"/>
	<path fill-rule="evenodd" clip-rule="evenodd" fill="#00913A" d="M163.754,75.204c2.901,0.534,5.813,1.013,8.699,1.618
		c2.812,0.591,5.622,1.217,8.383,2.001c2.988,0.849,5.921,1.895,8.875,2.862c0.91,0.298,1.807,0.637,2.718,0.93
		c4.496,1.446,8.758,3.461,13.024,5.448c3.249,1.514,6.477,3.096,9.604,4.844c3.479,1.944,6.857,4.076,10.24,6.19
		c3.286,2.053,6.376,4.381,9.334,6.887c1.913,1.622,3.916,3.143,5.779,4.818c1.771,1.593,3.451,3.292,5.102,5.011
		c1.85,1.927,3.621,3.928,5.427,5.896c0.081,0.088,0.17,0.17,0.243,0.265c1.052,1.358,1.01,1.371-0.218,2.639
		c-2.888,2.983-22.27,23.59-22.781,24.028c-0.705,0.604-1.221,0.538-1.873-0.145c-0.302-0.316-0.579-0.656-0.87-0.983
		c-0.766-0.861-0.769-1.138-0.244-2.233c0.974-2.034,1.081-4.15,0.452-6.303c-0.452-1.548-1.195-2.904-2.355-4.084
		c-1.141-1.158-2.055-2.535-3.146-3.745c-0.958-1.062-2.113-1.95-3.026-3.045c-2.32-2.78-5.263-4.876-7.903-7.302
		c-1.612-1.48-3.403-2.771-5.146-4.104c-2.533-1.94-5.074-3.87-7.652-5.749c-1.319-0.963-2.715-1.824-4.099-2.695
		c-1.79-1.126-3.573-2.269-5.414-3.306c-2.085-1.175-4.199-2.309-6.359-3.338c-2.841-1.354-5.725-2.622-8.616-3.866
		c-2.935-1.263-5.881-2.5-8.856-3.657c-1.97-0.766-3.994-1.395-6.008-2.039c-1.482-0.474-2.988-0.872-4.483-1.306
		c-0.153-0.044-0.309-0.086-0.458-0.143c-0.92-0.346-1.037-0.888-0.366-1.597c0.658-0.696,9.366-12.146,10.415-13.208
		C162.361,75.351,163.147,75.049,163.754,75.204z"/>
	<path fill-rule="evenodd" clip-rule="evenodd" fill="#00913A" d="M125.566,155.447c-0.347-0.125-0.516,0.176-1.004,0.014
		c-3.898-1.295-8.121-3.031-12.002-4.374c-2.451-0.848-4.896-1.735-7.274-2.767c-3.62-1.57-7.229-3.182-10.75-4.959
		c-3.516-1.775-6.986-3.665-10.353-5.707c-3.578-2.17-7.012-4.575-10.506-6.882c-3.672-2.424-7.061-5.226-10.467-7.994
		c-1.822-1.481-3.5-3.146-5.191-4.781c-1.374-1.328-2.7-2.709-3.991-4.117c-1.291-1.409-2.555-2.849-3.755-4.336
		c-1.925-2.387-3.792-4.821-5.674-7.241c-0.734-0.944-0.704-1.171,0.138-2.019c3.175-3.198,24.278-24.305,27.372-27.477
		c0.167-0.172,0.324-0.355,0.503-0.513c0.635-0.562,0.754-0.546,1.371,0.066c0.34,0.337,0.698,0.656,1.055,0.976
		c1.013,0.903,1.107,1.387,0.216,2.423c-1.031,1.199-1.763,2.551-2.357,3.993c-1.262,3.063-1.664,6.216-0.991,9.482
		c0.481,2.34,1.464,4.492,2.668,6.516c0.663,1.113,1.661,2.035,2.552,3.003c2.542,2.759,5.07,5.532,7.675,8.231
		c1.437,1.488,3.011,2.845,4.534,4.25c1.055,0.975,2.084,1.983,3.2,2.884c1.95,1.574,3.924,3.124,5.953,4.595
		c1.932,1.401,3.942,2.695,5.927,4.022c1.524,1.02,3.039,2.057,4.598,3.02c3.258,2.011,6.514,4.028,9.99,5.661
		c3.035,1.426,5.994,3.022,9.076,4.335c2.965,1.263,5.86,2.749,9.054,3.429c0.8,0.17,1.023,0.798,0.507,1.543
		C137.139,141.441,126.486,155.46,125.566,155.447z"/>
	<path fill-rule="evenodd" clip-rule="evenodd" fill="#00913A" d="M83.096,189.562c0.067-0.172,0.095-0.438,0.241-0.593
		c0.6-0.639,1.218-1.262,1.864-1.854c0.501-0.46,0.805-0.463,1.363,0.029c1.085,0.96,2.276,1.74,3.566,2.396
		c2.516,1.281,5.182,1.778,7.979,1.624c1.754-0.098,3.469-0.385,5.144-0.984c1.545-0.553,2.841-1.446,4.04-2.511
		c4.241-3.767,8.248-7.778,12.209-11.833c3.378-3.458,6.456-7.176,9.402-11.006c3.289-4.273,6.297-8.741,9.11-13.333
		c1.915-3.127,3.642-6.373,5.371-9.608c1.182-2.211,2.291-4.465,3.312-6.754c1.429-3.205,2.751-6.458,4.102-9.698
		c0.214-0.514,0.327-1.069,0.499-1.601c0.333-1.026,0.802-1.178,1.65-0.501c0.592,0.473,1.136,1.005,1.722,1.484
		c2.652,2.169,5.305,4.339,7.973,6.488c0.745,0.601,1.561,1.112,2.315,1.701c1.115,0.872,1.278,1.361,0.86,2.697
		c-0.798,2.551-1.613,5.095-2.443,7.635c-0.605,1.855-1.185,3.724-1.886,5.543c-0.873,2.265-1.853,4.487-2.799,6.723
		c-0.81,1.912-1.563,3.853-2.477,5.715c-1.6,3.262-3.25,6.502-4.98,9.695c-1.442,2.663-2.972,5.284-4.572,7.855
		c-1.66,2.666-3.367,5.312-5.21,7.853c-1.982,2.732-4.087,5.383-6.246,7.98c-2.473,2.975-4.995,5.917-7.627,8.751
		c-2.169,2.335-4.473,4.556-6.825,6.709c-2.117,1.936-4.384,3.707-6.578,5.56c-0.334,0.282-0.623,0.617-0.94,0.922
		c-0.612,0.587-1.125,0.64-1.822,0.178c-0.165-0.108-0.31-0.251-0.453-0.39c-1.146-1.112-24.559-24.072-27.699-26.608
		C83.204,189.78,83.177,189.695,83.096,189.562z"/>
	<path fill-rule="evenodd" clip-rule="evenodd" fill="#00913A" d="M106.519,114.78c0.067-0.216,0.118-0.408,0.185-0.594
		c0.69-1.915,1.4-3.824,2.07-5.746c0.723-2.072,1.291-4.206,2.137-6.225c1.538-3.669,3.161-7.305,4.88-10.892
		c1.601-3.339,3.307-6.632,5.088-9.879c1.574-2.868,3.389-5.604,4.956-8.476c1.111-2.038,2.49-3.889,3.79-5.785
		c2.049-2.991,4.326-5.825,6.503-8.729c0.166-0.221,1.43-2.061,3.547-4.412c2.455-2.726,5.879-6.083,7.243-7.534
		c3.314-3.525,6.98-6.659,10.841-9.57c1.241-0.937,2.438-1.934,3.684-2.863c0.92-0.686,1.405-0.608,2.186,0.178
		c2.108,2.125,25.442,25.394,26.673,26.64c0.761,0.771,0.74,1.247-0.021,2.045c-0.386,0.404-0.759,0.824-1.173,1.197
		c-0.603,0.543-0.967,0.466-1.471-0.186c-0.509-0.656-0.979-1.375-1.602-1.906c-2.047-1.746-4.443-2.768-7.103-3.177
		c-1.66-0.257-3.32-0.376-4.99-0.092c-2.859,0.487-5.563,1.382-7.864,3.206c-0.87,0.69-1.64,1.04-2.444,1.813
		c-1.669,1.603-2.838,2.64-4.5,4.25c-0.631,0.611-1.922,1.714-3.667,3.844c-1.767,1.695-4.708,5.586-6.116,7.256
		c-1.053,1.249-2.027,2.564-3.029,3.855c-1.539,1.983-3.084,3.963-4.599,5.964c-0.745,0.983-1.449,2.001-2.139,3.025
		c-0.822,1.224-1.621,2.464-2.406,3.711c-0.996,1.582-2.014,3.154-2.941,4.776c-1.604,2.804-3.19,5.62-4.696,8.478
		c-0.892,1.692-1.608,3.478-2.422,5.212c-0.236,0.502-1.262,2.892-1.586,3.565c-0.481,1.001-1.739,4.195-1.814,4.41
		c-0.608,1.724-1.409,3.433-2.051,5.143c-0.235,0.627-0.617,0.642-1.097,0.203c-1.264-1.155-12.329-10.471-13.082-10.995
		C106.87,116.061,106.692,115.43,106.519,114.78z"/>
	<path fill-rule="evenodd" clip-rule="evenodd" fill="#00913A" d="M197.638,178.73c-0.438-0.407-0.844-0.847-1.263-1.272
		c-0.697-0.71-0.684-1.574,0.013-2.319c2.436-2.606,4.006-5.644,4.566-9.185c0.828-5.231-0.437-10.022-3.655-14.16
		c-1.55-2.578-1.637-2.446-2.75-3.75c-0.933-1.093-2.731-3.055-3.688-4.125c-2.131-2.385-4.225-3.77-6.619-5.892
		c-2.393-2.121-4.854-4.152-7.418-6.055c-2.239-1.664-4.552-3.232-6.86-4.803c-1.978-1.345-3.957-2.695-6.005-3.929
		c-2.494-1.502-5.035-2.93-7.602-4.307c-2.496-1.339-5.017-2.642-7.585-3.832c-3.038-1.408-6.124-2.717-9.221-3.992
		c-1.171-0.482-2.425-0.765-3.647-1.116c-0.875-0.251-1.067-0.776-0.463-1.477c1.224-1.419,11.025-13.232,11.483-13.783
		c0.315-0.38,0.697-0.433,1.183-0.258c3.38,1.218,6.791,2.352,10.147,3.628c2.866,1.091,5.675,2.334,8.507,3.516
		c1.141,0.476,2.29,0.937,3.408,1.461c0.896,0.421,1.753,0.928,2.627,1.397c2.321,1.246,4.655,2.468,6.957,3.747
		c1.186,0.658,2.328,1.396,3.467,2.135c2.375,1.54,4.747,3.087,7.1,4.661c3.719,2.488,7.144,5.356,10.563,8.229
		c1.953,1.641,3.969,3.219,5.816,4.971c3.27,3.101,6.578,6.168,9.481,9.635c1.381,1.648,2.872,3.206,4.229,4.873
		c1.006,1.235,1.885,2.576,2.804,3.881c0.598,0.849,1.172,1.714,1.747,2.579c0.776,1.169,0.7,1.901-0.241,2.883
		c-1.216,1.268-2.407,2.559-3.626,3.824c-1.631,1.693-3.293,3.356-4.914,5.06c-1.402,1.473-2.753,2.994-4.148,4.473
		c-2.191,2.32-4.403,4.622-6.604,6.934c-1.703,1.787-3.413,3.568-5.102,5.37c-0.257,0.274-0.915,1.016-1.483,1.232
		S197.793,178.875,197.638,178.73z"/>
</g>
<path fill-rule="evenodd" clip-rule="evenodd" d="M628.437,615.667"/>
<path fill-rule="evenodd" clip-rule="evenodd" d="M610.938,632.125"/>
<path fill-rule="evenodd" clip-rule="evenodd" fill="#FFFFFF" d="M613.738,633.794"/>
<g>
	<g>
		<defs>
			<rect id="SVGID_1_" x="262.932" y="-23" width="1248.068" height="705"/>
		</defs>
		<clipPath id="SVGID_2_">
			<use xlink:href="#SVGID_1_"  overflow="visible"/>
		</clipPath>
		<g clip-path="url(#SVGID_2_)">
			<defs>
				<rect id="SVGID_3_" x="173.999" y="-360.275" width="1425.246" height="2177.219"/>
			</defs>
			<clipPath id="SVGID_4_">
				<use xlink:href="#SVGID_3_"  overflow="visible"/>
			</clipPath>
			<path clip-path="url(#SVGID_4_)" fill-rule="evenodd" clip-rule="evenodd" fill="#FFFFFF" d="M280.12,358.961
				c-2.61-7.486,4.179-17.083,11.543-16.367c41.521,4.034,80.608,20.165,122.401,22.972c4.158,0.279,8.316,0.511,12.476,0.739
				c8.443-4.124,17.807-6.031,27.118-6.188c24.66-0.416,48.814,7.047,73.311,8.33c4.565,0.004,9.132,0.008,13.696,0.008
				c1.81,0,3.386,0.366,4.768,0.964H1511V-22.999H263.693V369.42h21.385C283.141,366.269,281.465,362.825,280.12,358.961z
				 M752.483,150.21c-3.19,5.227-3.416,10.854-2.459,16.701c0.9,5.498,0.966,5.521-3.911,6.736
				c-3.821,0.949-7.938,1.146-11.428,2.859c-5.255,2.581-10.188,6.005-15.053,9.414c-6.686,4.688-8.716,4.094-12.513-0.915
				c-2.856-3.769-6.154-7.211-9.585-10.383c-2.658-2.457-5.747-4.422-8.794-6.325c-2.193-1.367-5.375-2.508-4.007-5.639
				c0.827-1.886,4.003-2.572,6.122-3.798l0.679,1.802c6.024-1.9,12.026-3.878,18.074-5.676c9.248-2.749,18.533-5.325,27.772-8.089
				c2.288-0.683,4.44-1.875,6.69-2.72c1.451-0.545,3.009-1.345,4.449-1.207c1.874,0.183,4.146,0.7,5.321,2.032
				C754.444,145.687,753.406,148.697,752.483,150.21z M1416.67,42.852c2.555-0.266,5.182,0.441,7.779,0.525
				c3.794,0.117,7.584,0.107,11.377,0.055c2.263-0.029,4.543-0.104,6.784-0.403c3.878-0.521,7.804-0.911,11.574-1.947
				c4.555-1.248,7.641,1.206,7.25,6.189c-0.55,7.032-0.938,14.079-1.461,21.116c-0.549,7.432-1.297,14.851-1.743,22.295
				c-0.805,13.367-1.243,26.764-2.226,40.115c-0.738,10.105-2.327,20.138-3.053,30.239c-0.38,5.195,0.688,10.505,0.357,15.709
				c-0.243,3.843-1.505,7.672-2.745,11.336c-0.32,0.94-2.559,2.023-3.443,1.669c-2.918-1.16-5.739-2.763-8.404-4.536
				c-7.699-5.122-14.873-11.275-23.907-13.693c-3.803-1.015-7.645-1.93-11.31-3.37c-1.143-0.453-1.761-2.474-2.618-3.778
				c1.386-0.579,2.903-1.888,4.13-1.62c8.745,1.912,17.396,4.316,26.149,6.188c3.591,0.771,7.375,0.958,11.025,0.697
				c1.452-0.106,3.769-1.94,4.012-3.329c1.335-7.688,2.155-15.479,3.153-23.238c-0.363-0.047-0.729-0.09-1.088-0.137
				c0.575-13.264,1.211-26.526,1.705-39.789c0.2-5.407-0.176-10.846,0.195-16.233c0.695-10.144,1.722-20.258,2.646-30.379
				c0.296-3.214-1.878-6.171-4.958-6.248c-1.764-0.044-3.564,0.264-5.299,0.646c-6.188,1.367-12.343,2.894-18.536,4.231
				c-3.532,0.764-9.316-2.313-10.835-5.549C1412.019,47.141,1413.841,43.146,1416.67,42.852z M1390.739,77.341
				c1.083-0.662,2.482-0.766,3.767-0.978c7.157-1.191,14.308-2.373,21.478-3.49c2.688-0.417,5.398-0.646,8.103-0.959
				c0.015,0.141,0.031,0.28,0.045,0.419c1.192-0.101,2.42-0.451,3.555-0.229c0.896,0.175,2.166,0.891,2.375,1.651
				c0.213,0.795-0.388,2.404-1.073,2.841c-7.813,4.995-16.038,9.15-25.312,8.81c-4.286-0.157-8.539-1.972-12.755-3.219
				c-0.72-0.215-1.691-1.408-1.664-2.108C1389.296,79.118,1389.972,77.81,1390.739,77.341z M1381.39,107.306
				c7.769,1.305,15.097-1.071,22.577-2.45c5.108-0.945,10.286-1.449,15.434-2.166c3.513-0.49,4.844,1.706,4.85,4.975
				c0.008,2.681-0.343,5.382-0.756,8.036c-0.577,3.669-1.615,7.27-1.989,10.957c-0.379,3.761-2.238,5.55-5.442,5.949
				c-1.767,0.22-3.574,0.04-5.363,0.04c0-0.01,0-0.014-0.002-0.02c-1.903,0-3.83-0.207-5.705,0.039
				c-6.301,0.82-6.74,1.637-8.506,8.27c-0.528,1.999-2.781,3.465-4.241,5.174c-1.505-1.503-3.636-2.712-4.398-4.574
				c-2.798-6.82-5.085-13.878-7.677-20.805c-1.045-2.801-2.834-5.363-3.445-8.247
				C1375.975,108.981,1378.035,106.743,1381.39,107.306z M1320.733,83.087c1.932-0.539,4.006-0.502,6.451-0.765
				c1.61,0.233,3.642,0.357,5.599,0.849c3.246,0.818,3.889,3.074,1.87,5.997c-3.942,5.696-13.283,4.841-16.325-1.566
				C1317.084,84.991,1318.763,83.636,1320.733,83.087z M1302.071,111.827c3.557-3.229,7.017-6.589,10.685-9.662
				c0.83-0.69,2.754-1.042,3.495-0.486c8.852,6.624,17.128,13.938,21.806,24.811c1.629,3.787-1.473,8.463-5.95,8.361
				c-0.704-0.387-1.991-1.007-3.196-1.791c-4.361-2.821-6.152-2.494-10.418,0.447c-7.776,5.352-15.725,10.419-23.661,15.498
				c-2.27,1.453-5.276-0.645-6.066-4.098c-1.05-4.61-2.253-9.209-2.919-13.891c-0.276-1.925,0.03-4.744,1.166-5.968
				c3.142-3.38,6.857-6.137,10.343-9.143C1298.928,114.547,1300.527,113.222,1302.071,111.827z M1271.022,87.403
				c3.58,2.253,7.364,2.529,11.367,1.797c1.107-0.203,2.364,0.098,3.478,0.453c3.17,1.01,3.508,2.195,1.196,4.617
				c-2.431,2.545-4.977,4.974-7.64,7.216c-0.678,0.571-2.451,0.756-2.948,0.246c-2.919-2.993-5.652-6.197-8.316-9.451
				c-0.47-0.571-0.34-1.718-0.427-2.239C1267.747,87.074,1268.67,85.924,1271.022,87.403z M1175.94,140.872
				c0.38-9.919,0.466-19.854,1.065-29.757c0.897-14.751,2.42-29.462,3.043-44.223c0.16-3.824-1.727-7.917-3.238-11.613
				c-1.429-3.484-1.227-5.276,2.063-6.635c1.548-0.642,3.203-1.049,4.842-1.38c13.128-2.668,26.196-5.545,38.474-11.561
				c0.991-0.486,2.824-0.419,3.526,0.27c0.656,0.65,0.884,2.852,0.363,3.706c-5.364,8.805-5.401,18.719-5.519,28.672
				c-0.062,5.397-0.44,10.787-0.601,16.181c-0.079,2.701-1.411,4.053-3.612,5.143c-7.89,3.902-15.703,7.988-23.516,12.079
				c-1.05,0.549-2.022,1.406-2.849,2.314c-3.103,3.426-2.655,5.146,1.435,6.921c5.401,2.341,10.787,4.74,16.06,7.391
				c2.384,1.196,4.086,0.662,5.802-1.121c5.789-6.018,10.971-12.546,14.78-20.248c0.226-0.451,0.498-0.889,0.798-1.288
				c1.585-2.072,3.372-3.981,6.076-2.604c2.208,1.126,3.229,6.173,1.381,8.309c-3.54,4.087-7.478,7.783-11.314,11.566
				c-1.756,1.728-3.875,3.065-5.464,4.939c-2.661,3.142-2.4,7.125,1.182,8.713c7.896,3.499,16.084,6.235,24.189,9.158
				c1.076,0.386,2.37,0.053,3.565,0.053c0.038,0.124,0.078,0.252,0.115,0.375c2.979-0.8,5.965-1.577,8.94-2.401
				c2.841-0.791,4.281,0.29,3.955,3.458c-0.526,5.197-2.809,9.62-6.368,13.043c-2.509,2.415-5.383,1.052-8.058-0.248
				c-6.084-2.955-12.151-5.95-18.29-8.787c-4.219-1.947-7.921-0.646-10.616,3.455c-2.483,3.778-4.798,7.699-7.468,11.32
				c-3.222,4.374-7.018,8.278-10.053,12.786c-2.972,4.415-5.341,9.307-7.889,14.044c-0.65,1.217-0.73,2.861-1.533,3.889
				c-0.854,1.09-2.22,2.21-3.433,2.303c-0.832,0.066-1.855-1.521-2.661-2.495c-1.71-2.066-3.427-4.141-4.962-6.353
				c-1.095-1.582-2.489-3.308-2.737-5.13c-0.956-7.014-1.742-14.083-2.113-21.158
				C1175.075,149.627,1175.774,145.242,1175.94,140.872z M1123.931,89.498c0.313-1.269,3.121-2.057,4.935-2.591
				c1.574-0.463,3.325-0.158,4.975-0.392c4.326-0.612,7.43,2.243,7.518,6.989c0.032,1.797-0.288,3.783,0.32,5.33
				c0.54,1.37,2.043,2.916,3.317,3.148c1.063,0.194,3.188-1.157,3.473-2.247c0.834-3.157,0.976-6.526,1.392-9.814l-1.01-0.149
				c0.587-5.205,1.381-10.391,1.715-15.613c0.345-5.252-1.106-7.034-5.46-9.122c-1.271-0.61-2.891-2.477-2.823-3.664
				c0.07-1.22,2.047-3.32,3.127-3.28c3.608,0.145,7.411,0.477,10.722,1.888c3.011,1.284,2.915,5.002,2.633,8.187
				c-0.73,8.208-1.547,16.409-2.199,24.628c-0.26,3.207-0.226,6.443-0.245,9.667c-0.033,6.01-1.453,7.542-6.943,7.375
				c-7.015-0.211-9.406,3.211-8.606,10.958c0.36,3.526-0.23,7.341-1.15,10.787c-0.71,2.68-3.482,3.409-5.699,2.379
				c-1.426-0.665-2.785-2.546-3.313-4.205c-1.2-3.756-2.083-7.675-2.661-11.605c-0.299-2.026-0.123-4.426,0.622-6.293
				c3.292-8.27,2.947-10.136-2.699-16.448C1124.584,93.982,1123.513,91.202,1123.931,89.498z M968.232,88.992
				c6.689-2.919,13.458-0.621,20.146-1.256c6.517-0.615,13.015-1.532,19.493-2.526c2.86-0.437,3.693-2.947,3.088-5.563
				c-0.773-3.349-2.254-6.507-3.104-9.842c-0.471-1.865-1.009-4.533-0.168-5.721c0.805-1.132,3.435-1.307,5.138-1.025
				c3.524,0.59,7.119,1.372,10.381,2.859c1.667,0.759,3.083,3.01,3.885,4.941c1.752,4.212,3.737,5.616,7.789,4.328
				c8.349-2.654,16.795-5.029,24.966-8.239c9.73-3.822,19.162-8.542,28.844-12.531c2.229-0.922,4.946-0.458,7.437-0.635
				c-0.287,2.427-0.3,4.937-0.916,7.263c-2.094,7.919-6.926,11.873-14.668,13c-8.719,1.27-17.27,3.816-25.903,5.77
				c-1.87,0.424-3.805,0.546-5.635,1.088c-3.758,1.118-7.465,2.426-11.195,3.655c-3.511,1.152-7.119,2.05-10.516,3.512
				c-5.855,2.521-6.96,7.173-4.039,13.446c4.04,8.685,9.548,7.371,15.482,4.187c5.968-3.199,11.976-6.342,18.139-9.066
				c8-3.53,15.626,0.703,16.173,11.364c0.031,0.644,0.068,1.292,0.034,1.937c-0.372,6.931-1.056,13.864-1.061,20.798
				c-0.012,8.867,0.424,17.74,0.854,26.603c0.18,3.711,0.968,7.385,1.257,11.098c0.329,4.285-2.777,7.249-6.226,5.438
				c-3.78-1.982-7.229-4.833-10.483-7.748c-0.686-0.613-0.511-3.852,0.308-4.671c4.863-4.876,5.238-10.993,4.825-17.451
				c-0.591-9.389-1.158-18.783-1.816-28.167c-0.104-1.525-0.546-3.043-0.969-4.514c-1.072-3.729-5.184-7.242-9.254-5.269
				c-4.207,2.039-8.687,3.435-13.068,5.044c-2.787,1.023-5.631,2.021-5.845,5.861c-0.153,2.791,3.422,6.999,6.541,7.293
				c2.557,0.241,5.188-0.439,7.793-0.589c1.36-0.081,2.823-0.165,4.081,0.276c0.657,0.231,1.397,1.625,1.34,2.433
				c-0.049,0.727-1.019,1.687-1.777,2.003c-2.999,1.245-6.086,2.24-9.115,3.419c-1.109,0.432-2.718,0.842-3.078,1.744
				c-0.769,1.921-0.876,4.155-1.251,6.259c1.689,0.35,3.509,1.304,5.043,0.922c3.704-0.92,7.26-2.529,10.912-3.71
				c1.039-0.336,2.219-0.169,3.333-0.231l0.604,1.604c-4.004,2.642-7.978,5.337-12.015,7.911c-2.876,1.826-5.977,3.275-8.703,5.318
				c-1.209,0.909-1.983,2.778-2.521,4.385c-0.554,1.669-0.565,3.548-0.849,5.328c-0.358,2.27-0.936,4.641-3.621,4.314
				c-2.636-0.324-4.888-1.704-4.92-5.09c-0.064-7.087-0.109-14.178,0.032-21.262c0.081-4.108,0.77-8.209,0.698-12.302
				c-0.027-1.445-1.214-3.451-2.386-4.09c-0.798-0.431-2.768,0.782-3.704,1.807c-0.838,0.905-1.094,2.529-1.396,3.889
				c-1.399,6.275-5.006,10.564-9.887,14.109c-2.344,1.707-3.965,4.576-5.933,6.898c-1.807,2.128-3.639,4.227-5.458,6.336
				c-1.765-2.131-3.959-4.006-5.204-6.444c-2.761-5.392-2.171-7.221,2.14-11.239c3.968-3.704,8.155-7.234,11.63-11.439
				c2.736-3.31,5.066-7.295,6.607-11.404c2.227-5.929,3.723-12.205,5.251-18.41c0.837-3.384-0.344-4.711-3.591-3.955
				c-3.545,0.828-6.951,2.321-10.445,3.431c-1.707,0.543-3.479,0.828-5.205,1.323c-1.482,0.422-3.102,0.682-4.374,1.52
				c-8.008,5.26-15.842,3.318-23.634-0.491c-0.935-0.458-1.755-1.346-2.443-2.206C962.821,92.556,963.57,91.029,968.232,88.992z
				 M843.07,72.977c0.896-1.94,2.12-3.719,3.322-5.47c1.505-2.187,3.484-3.346,5.9-1.851c2.695,1.67,5.396,3.363,4.755,7.708
				c-0.385,2.622-0.442,5.425-0.027,8.029c0.63,3.947,3.337,5.267,6.69,3.572c4.409-2.222,8.79-4.521,13.139-6.881
				c3.537-1.924,4.611-6.812,2.16-10.17c-1.975-2.712-4.411-5.052-6.247-7.862c-1.931-2.956-1.059-4.943,2.172-6.076
				c7.047-2.469,12.628,0.834,14.36,8.554c0.335,1.5,0.394,3.075,0.756,4.566c0.766,3.171,3.327,4.119,5.729,2.192
				c1.152-0.927,2.151-2.256,3.435-2.739c1.019-0.382,2.359,0.248,3.557,0.43c-0.197,1.301-0.113,2.769-0.676,3.848
				c-0.473,0.897-1.62,1.609-2.604,1.932c-5.062,1.664-8.159,6.039-11.825,9.659c-2.099,2.079-1.49,4.064-0.278,6.209
				c1.226,2.161,2.772,3.582,5.301,2.703c4.191-1.457,8.332-3.109,12.576-4.333c1.214-0.346,2.717,0.503,4.09,0.802
				c-0.457,1.185-0.64,2.667-1.413,3.506c-5.005,5.431-10.354,9.439-17.979,10.671c-5.385,0.871-10.516,5.046-15.302,8.488
				c-4.118,2.961-7.439,7.267-13.889,7.929c-1.237-0.659-3.387-1.438-5.106-2.833c-1.944-1.574-1.256-6.032,1.142-7.124
				c4.152-1.89,8.523-3.221,12.69-5.086c3.401-1.526,6.78-3.24,9.903-5.336c2.35-1.574,4.577-4.119,3.356-7.375
				c-1.253-3.355-4.319-3.531-7.065-2.242c-4.995,2.338-9.964,4.783-14.745,7.582c-3.76,2.202-5.948,1.674-8.093-2.359
				c-3.128-5.875-6.527-11.588-9.679-17.453C842.728,75.333,842.672,73.829,843.07,72.977z M840.966,138.514
				c-2.129,2.125-4.715,3.711-7.578,5.907c-5.773-2.978-11.339-5.749-16.773-8.788c-0.655-0.371-1.126-2.971-0.796-3.234
				c1.217-0.97,2.838-1.991,4.248-1.901c4.863,0.313,9.706,1.079,14.553,1.693c1.648,0.209,3.337,0.302,4.93,0.766
				C842.615,133.858,843.296,136.187,840.966,138.514z M812.899,110.99c0.235-3.312,2.31-4.203,5.032-3.703
				c2.815-0.31,5.628-0.667,8.447-0.922c4.131-0.377,7.875,0.238,11.406,3.181c3.393,2.822,3.911,6.338,3.427,10.248
				c-0.481,3.883-2.65,5.06-6.195,3.801c-5.258-1.866-11.013-2.37-15.36-6.759c-0.705-0.712-1.978-1.073-2.998-1.082
				C813.599,115.713,812.696,113.867,812.899,110.99z M800.987,153.596c9.394-0.224,18.795-0.187,28.188-0.506
				c10.854-0.369,21.699-1.011,32.549-1.542c0.358-0.017,0.761-0.01,1.053-0.185c1.901-1.148,3.776-2.346,5.66-3.525
				c-1.26-2.183-2.24-4.656-3.841-6.491c-2.833-3.254-6.156-6.008-9.063-9.197c-2.066-2.269-1.233-5.38,1.544-6.489
				c7.671-3.062,15.424-5.911,23.02-9.168c4.278-1.832,8.401-4.14,12.433-6.546c3.819-2.273,6.29-1.295,7.438,3.349
				c0.887,3.59,2.474,7.136,2.6,10.749c0.134,3.968-0.839,8.055-1.811,11.952c-0.241,0.96-2.329,1.428-3.608,2.029
				c-4,1.884-8.062,3.64-12.023,5.619c-1.984,0.99-3.81,2.35-6.293,3.914c1.28,0.696,2.132,1.545,3.019,1.588
				c6.26,0.303,12.535,0.725,18.789,0.562c7.598-0.202,15.18-0.916,22.765-1.464c5.321-0.383,10.763-0.244,15.913-1.487
				c4.159-1.006,7.902-3.902,11.962-5.596c1.419-0.592,3.864-0.835,4.728,0.04c2.121,2.15,1.816,5.384-0.293,7.245
				c-5.441,4.794-10.979,9.582-16.975,13.469c-2.481,1.607-6.24,1.102-9.427,1.203c-7.617,0.239-15.243,0.462-22.858,0.328
				c-10.115-0.174-20.223-0.827-30.338-1.025c-10.246-0.203-20.492-0.094-30.741-0.135c-10.737-0.042-21.48-0.206-32.223-0.101
				c-3.552,0.033-7.13,0.554-10.645,1.18c-3.13,0.557-6.07-1.066-6.601-4.112C795.445,156.598,797.926,153.672,800.987,153.596z
				 M716.834,62.435c0.987-1.442,2.054-2.901,3.343-4.001c1.102-0.941,2.996-2.278,3.775-1.84c1.23,0.69,1.827,2.709,2.304,3.511
				c-0.139,3.807-5.331,8.118-7.865,7.447C716.119,66.953,715.349,64.604,716.834,62.435z M677.141,90.9
				c2.514-3.82,5.691-7.139,8.64-10.616c2.381-2.813,5.146-5.321,7.131-8.419c1.562-2.435,1.077-5.312-0.684-7.941
				c-2.768-4.13-2.469-9.135,0.419-12.397c2.157-2.438,8.449-2.798,11.387-0.016c1.349,1.279,2.428,4.067,2.158,5.919
				c-0.546,3.751-2.283,7.285-3.157,11.007c-0.423,1.808-0.625,4.33,0.235,5.63c0.676,1.02,3.282,1.229,4.782,0.797
				c3.675-1.051,7.188-1.501,10.849-0.054c2.531,1.004,4.702,0.064,6.446-2.066c1.738-2.12,3.538-4.189,5.155-6.416
				c2.611-3.589,3.39-7.375,0.542-11.323c-0.217-0.303-0.479-0.638-0.537-0.995c-0.356-2.179-0.656-4.368-0.973-6.556
				c1.926,0.499,3.865,0.954,5.779,1.512c0.8,0.236,1.551,0.674,2.31,1.051c4.99,2.48,6.467,6.088,4.435,11.529
				c-0.87,2.333-1.811,4.926,0.746,6.025c2.817,1.208,6.054,1.399,9.134,1.604c0.249,0.015,1.072-3.329,0.96-5.063
				c-0.337-5.449,2.826-9.695,7.51-9.639c3.63,0.043,5.368,2.637,3.73,6.159c-1.072,2.316-2.9,4.222-4.35,6.344
				c-0.752,1.096-1.424,2.256-2.133,3.39c1.042,0.692,2.021,1.543,3.138,2.041c1.951,0.865,4.809,1.226,4.253,4.169
				c-0.475,2.499-2.78,3.467-5.399,3.362c-4.841-0.188-9.688-0.054-14.533-0.054c-0.109,0.526-0.226,1.048-0.338,1.569
				c-1.457-0.915-3.123-1.583-4.335-2.794c-2.989-2.985-4.674-3.293-8.256-0.996c-7.432,4.766-15.415,6.929-24.123,7.122
				c-9.512,0.213-18.764,1.91-25.969,9.896c-1.44,1.592-4.041,1.964-6.104,2.901C676.329,95.323,676.035,92.576,677.141,90.9z
				 M663.279,70.716c2.914-0.858,5.954-1.331,8.966-1.535c0.607-0.039,1.973,1.842,1.866,2.669
				c-0.381,3.041-1.003,6.102-1.992,8.973c-0.685,1.994-2.222,3.349-4.572,2.364c-2.332-0.979-5.887-6.293-5.97-10.008
				C661.86,72.741,662.382,70.979,663.279,70.716z M656.591,112.867c0.721-1.243,2.804-1.65,4.341-2.217
				c0.746-0.274,1.653-0.046,2.488-0.046v-0.088c5.709,0.312,11.42,0.84,17.13,0.84c2.536,0,5.057-1.162,7.611-1.625
				c2.911-0.528,5.902-0.62,8.768-1.326c4.993-1.234,9.866-3.662,14.884-4.03c9.453-0.688,17.237-6.541,26.155-8.63
				c5.351-1.257,10.78-2.135,16.095-3.536c3.368-0.888,6.48-2.299,9.923-0.058c2.249,1.465,3.498,3.143,2.833,5.945
				c-0.818,3.452-1.79,6.866-2.74,10.283c-0.9,3.231-3.359,3.578-5.79,3.043c-2.526-0.559-4.549-2.095-4.874-5.303
				c-0.608-6.014-4.02-7.859-8.919-5.134c-2.854,1.585-5.942,2.676-8.888,4.075c-1.06,0.505-2.236,1.06-2.948,1.966
				c-0.691,0.874-1.407,2.473-1.094,3.309c0.308,0.823,1.897,1.544,2.915,1.531c7.964-0.093,6.276,2.129,4.516,7.715
				c-1.874,5.948-1.5,6.813,3.542,10.194c0.721,0.483,1.733,1.676,1.586,2.202c-0.305,1.077-1.136,2.437-2.047,2.79
				c-6.897,2.683-13.893,5.077-20.807,7.714c-3.542,1.35-6.933,3.171-10.479,4.506c-3.187,1.202-6.091,0.509-8.459-2.333
				c-2.708-3.252-5.635-6.307-8.227-9.664c-3.813-4.933-2.663-8.289,3.083-9.189c3.185-0.5,6.417-0.736,9.634-0.907
				c6.91-0.367,13.031-3.165,18.598-7.297c1.109-0.824,1.841-3.438,1.52-4.906c-0.212-0.964-2.629-1.391-4.079-1.987
				c-0.297-0.117-0.72,0.033-1.056,0.146c-8.02,2.668-15.96,5.644-24.073,7.918c-4.776,1.339-9.804,1.743-14.747,2.265
				c-6.69,0.709-7.594,1.684-9.181,8.736c-1.203,5.347-2.954,10.555-4.584,15.778c-0.326,1.037-1.04,2.166-1.876,2.732
				c-1.321,0.889-2.896,1.335-4.362,1.97c-0.572-1.89-1.87-3.913-1.589-5.64c1.429-8.822-0.729-16.593-5.469-23.579
				C653.758,117.837,655.221,115.235,656.591,112.867z M475.763,169.786c3.819-2.13,7.519-4.523,11.368-6.583
				c5.937-3.179,12.608-5.255,17.779-9.495c5.661-4.639,10.296-10.928,14.726-17.05c2.017-2.795-0.265-5.545-4.422-6.297
				c-1.982-0.359-4.263-0.392-5.803-1.53c-1.404-1.04-2.415-3.296-2.688-5.172c-0.093-0.638,2.631-2.579,3.996-2.499
				c5.935,0.356,11.179-2.188,16.645-3.857c2.815-0.86,3.98-3.125,4.43-5.959c0.503-3.186-1.202-4.331-4.144-3.74
				c-3.6,0.727-7.332,1.035-10.983,0.89c-1.266-0.05-3.05-1.759-3.511-3.135c-0.353-1.062,0.669-3.146,1.635-4.152
				c3.774-3.931,8.891-3.972,13.651-5.034c1.965-0.437,3.951-0.94,5.797-1.762c2.627-1.168,3.048-3.889,2.093-6.188
				c-0.905-2.185-2.679-3.836-5.538-2.673c-8.121,3.311-16.287,6.484-24.475,9.594c-3.226,1.224-6.286,2.023-9.876,0.069
				c-3.325-1.811-7.345-2.082-10.99-3.268c-2.255-0.734-4.504-1.707-6.51-3.005c-0.868-0.557-1.72-2.388-1.489-3.331
				c0.237-0.961,1.766-2.099,2.8-2.186c2.961-0.251,5.958,0.122,8.935,0.021c5.474-0.186,10.944-0.749,16.416-0.764
				c7.211-0.027,14.141-1.537,20.971-3.813c1.248-0.413,2.497-0.875,3.688-1.446c7.592-3.639,8.257-6.94,2.94-14.009
				c-1.67-2.219-3.217-4.546-4.819-6.821c0.375-0.586,0.75-1.174,1.127-1.76c2.824,1.311,5.814,2.328,8.431,4.023
				c2.405,1.563,4.467,3.775,6.563,5.844c2.402,2.373,4.877,2.286,7.588,0.78c11.119-6.167,22.116-12.617,33.462-18.248
				c3.179-1.574,7.503-1.301,11.11-0.648c1.734,0.316,3.641,3.262,4.352,5.442c0.864,2.648-0.947,4.592-3.154,6.238
				c-3.509,2.614-7.097,4.334-11.389,5.113c-3.302,0.599-6.259,3.141-9.532,4.258c-5.76,1.964-11.669,3.409-17.466,5.246
				c-3.763,1.19-7.571,2.397-11.125,4.15c-2.866,1.414-3.618,4.436-2.471,7.593c1.077,2.968,3.002,4.715,6.191,3.253
				c4.784-2.188,9.505-4.546,14.362-6.529c1.305-0.539,2.997,0.011,4.511,0.06c-0.424,1.391-0.467,3.283-1.354,4.064
				c-1.712,1.505-3.795,2.761-5.909,3.431c-4.228,1.335-8.127,4.041-12.968,3.139c-1.576-0.293-4.034,0.933-5.074,2.336
				c-1.268,1.719-2.023,4.398-1.89,6.58c0.072,1.143,2.394,2.479,3.92,3.096c4.843,1.955,9.222,0.654,13.621-2.169
				c3.649-2.341,7.779-3.803,11.688-5.67c2.708-1.292,5.332-2.849,8.13-3.827c1.486-0.517,3.265-0.046,4.91-0.019
				c-0.6,1.62-0.773,3.958-1.88,4.729c-3.572,2.486-7.475,4.421-11.274,6.514c-2.544,1.405-5.288,2.464-7.652,4.156
				c-2.064,1.476-2.369,3.89,0.101,5.26c4.01,2.224,8.195,4.102,12.375,5.94c2.969,1.305,6.027,2.412,9.096,3.423
				c7.458,2.46,14.943,4.824,22.424,7.196c4.424,1.401,8.966,2.456,13.266,4.208c3.097,1.257,3.146,3.893,0.571,6.194
				c-6.801,6.067-15.005,5.691-21.993-0.093c-4.017-3.327-8.705-5.836-13.344-8.11c-3.75-1.838-7.278,1.086-7.338,5.635
				c-0.128,10.153-0.165,20.312-0.19,30.465c-0.012,4.629-3.487,6.394-6.287,8.235c-8.183,5.391-16.898,9.405-26.705,9.79
				c-0.951,0.041-1.904,0.229-2.844,0.414c-7.048,1.377-10.332-1.269-11.771-8.935c-1.132-6.037-2.531-12.027-4.114-17.942
				c-1.337-5.004-4.182-5.199-7.934-1.829c-4.885,4.383-9.892,8.351-16.623,9.908c-5.378,1.244-10.217,5.188-15.302,7.913
				c-2.977,1.596-5.904,3.332-8.979,4.67c-2.607,1.138-5.958-0.396-6.717-2.663C471.779,174.067,472.841,171.414,475.763,169.786z
				 M305.603,164.14c4.147-1.046,8.457-1.482,12.723-1.836c4.455-0.372,8.986,0.049,13.404-0.549
				c9.949-1.353,19.913-2.747,29.747-4.832c9.05-1.916,7.898-5.286,6.912-13.654c-0.282-2.391-2.098-3.432-4.314-2.891
				c-1.975,0.482-3.913,1.173-5.838,1.867c-8.802,3.162-17.248,1.015-25.586-2.087c-2.909-1.082-3.922-4.042-2.688-7.352
				c1.123-3.005,3.063-3.982,6.035-2.67c7.503,3.31,15.294,3.655,23.197,2.192c3.769-0.7,5.127-2.614,3.917-6.527
				c-2.32-7.505-5.444-14.383-13.592-16.501c-2.032-0.528-3.962-1.789-5.766-3.015c-2.88-1.955-2.709-5.522,0.458-6.928
				c2.161-0.959,4.643-1.046,6.951-1.653c4.49-1.184,8.993-2.327,13.417-3.748c2.906-0.934,4.021-3.611,3.056-6.468
				c-1.758-5.195-3.714-10.597-9.299-12.37c-2.552-0.813-5.378-1.207-8.019-0.962c-3.885,0.354-7.699,1.541-11.573,2.186
				c-1.735,0.293-4.001,0.843-5.148-0.042c-0.88-0.683-1.018-3.807-0.335-5.176c0.815-1.637,2.712-3.246,4.392-3.65
				c3.335-0.795,6.868-0.574,10.273-1.118c4.188-0.665,5.084-2.767,3.037-6.688c-1.334-2.556-2.994-4.92-4.243-7.519
				c-0.693-1.446-1.074-3.178-1.206-4.814c-0.353-4.343,0.923-4.713,4.853-3.738c8.097,2.015,11.342,7.84,12.522,15.971
				c0.228,1.566,1.158,3.09,2.005,4.464c3.041,4.924,6.138,9.811,9.312,14.634c1.397,2.119,1.216,3.811-0.136,5.941
				c-2.548,4.001-1.537,6.643,2.929,6.595c5.325-0.058,10.678-0.955,15.943-1.953c2.968-0.564,2.806-3.432,1.703-5.57
				c-2.606-5.053-1.332-8.722,1.755-13.273c5.237-7.723,8.754-16.529,9.036-26.468c0.101-3.634-1.755-5.956-3.739-8.449
				c-0.907-1.142-1.21-2.85-1.79-4.3c1.425-0.254,2.858-0.788,4.269-0.719c4.149,0.199,8.234,0.798,10.104,5.716
				c0.342,0.897,0.694,2.048,0.462,2.897c-0.943,3.437-2.143,6.792-3.177,10.199c-0.336,1.091-0.588,2.25-0.656,3.39
				c-0.265,4.459,1.958,6.236,5.807,4.818c3.941-1.447,7.858-3.047,11.896-4.071c1.483-0.379,3.737,0.167,4.793,1.253
				c0.809,0.833,0.589,3.237,0.294,4.832c-0.585,3.166-2.557,4.96-5.467,5.986c-6.16,2.168-11.844,5.953-18.794,5.172
				c-2.898-0.326-5.119,1.633-6.309,4.787c-0.67,1.77-1.866,3.3-2.72,5.003c-1.697,3.373-0.746,5.082,2.773,5.252
				c4.226,0.206,7.55-1.714,10.667-4.63c1.01-0.948,2.78-0.952,4.203-1.39c-0.04,1.695,0.518,3.848-0.239,4.989
				c-1.877,2.843-3.663,5.974-7.645,6.315c-3.177,0.273-6.31,1.334-9.424,2.204c-3.621,1.009-3.222,4.443-3.256,7.261
				c-0.055,4.629,0.145,9.277,0.556,13.887c0.131,1.473,0.967,3.262,2.026,4.165c2.052,1.751,10.049,0.057,11.752-2.136
				c2.375-3.05,1.685-6.112-1.802-9.23c-0.956-0.858-2.077-2.363-2.032-3.521c0.172-4.312,2.427-5.406,5.745-2.88
				c1.208,0.918,2.2,2.3,3.012,3.664c2.365,3.987,5.16,4.907,9.474,4.186c2.305-0.387,6.402,0.005,6.952,1.35
				c1.414,3.455-2.514,3.727-4.397,5.168c-0.384,0.294-0.847,0.478-1.293,0.665c-5.888,2.501-7.638,5.809-6.541,12.38
				c0.804,4.839,4.436,6.835,8.48,4.476c1.664-0.969,2.978-2.648,4.648-3.6c2.61-1.479,5.304-2.927,8.118-3.809
				c2.941-0.924,5.221,0.457,5.913,3.879c0.692,3.413-1.607,5.307-3.909,6.003c-11.454,3.451-22.968,6.693-34.533,9.684
				c-4.779,1.236-8.301,4.163-9.26,8.94c-0.549,2.752,1.028,6.452,2.606,9.046c0.689,1.136,4.068,1.356,5.725,0.638
				c5.835-2.522,11.507-5.522,17.141-8.556c4.577-2.465,8.987-5.298,13.539-7.819c0.801-0.443,2.372-0.615,2.826-0.112
				c0.574,0.639,0.82,2.339,0.436,3.159c-2.215,4.705-4.296,9.566-7.143,13.813c-2.062,3.074-5.694,3.25-9.217,3.015
				c-2.418-0.164-4.976,0.114-7.31,0.821c-3.869,1.171-7.582,2.932-11.409,4.287c-4.183,1.483-4.902,2.731-4.809,7.531
				c0.173,9.256-0.073,18.527,0.322,27.767c0.184,4.31,2.054,8.555,2.103,12.844c0.094,8.233-0.43,16.486-0.972,24.712
				c-0.224,3.427-5.133,8.017-9.667,9.206c-0.223-4.111-0.624-7.89-0.604-11.665c0.059-10.161,0.228-20.319,0.489-30.475
				c0.213-8.513,0.656-17.021,0.932-25.535c0.224-6.934-2.721-9.291-8.753-7.014c-2.245,0.849-4.469,1.818-6.588,2.979
				c-5.979,3.278-12.028,6.161-18.79,7.14c-2.04,0.293-4.005,1.656-5.878,2.771c-5.626,3.362-15.156,2.475-19.825-2.214
				c-0.889-0.891-1.524-2.79-1.299-4.009c0.16-0.854,1.936-1.81,3.063-1.938c9.83-1.127,19.695-1.923,29.509-3.174
				c2.895-0.367,5.683-1.823,8.492-2.854c3.583-1.317,7.055-3.259,10.729-3.953c7.641-1.446,11.855-9.903,7.892-17.267
				c-0.677-1.26-3.307-2.299-4.712-1.943c-10.786,2.693-21.5,5.725-32.219,8.725c-6.226,1.744-12.475,3.418-18.612,5.487
				c-6.966,2.348-13.795,5.188-20.746,7.611c-1.607,0.561-3.718,0.923-5.161,0.265c-3.148-1.439-6.14-3.393-8.958-5.508
				C300.949,169.572,302.087,165.025,305.603,164.14z"/>
			<path clip-path="url(#SVGID_4_)" fill-rule="evenodd" clip-rule="evenodd" d="M394.566,254.074
				c-0.226-4.111-0.624-7.89-0.603-11.666c0.058-10.158,0.226-20.315,0.486-30.473c0.215-8.515,0.659-17.021,0.934-25.532
				c0.223-6.938-2.719-9.297-8.754-7.019c-2.243,0.849-4.469,1.818-6.589,2.979c-5.974,3.278-12.028,6.162-18.786,7.138
				c-2.043,0.298-4.008,1.658-5.882,2.775c-5.626,3.359-15.156,2.473-19.827-2.216c-0.886-0.889-1.522-2.785-1.294-4.009
				c0.158-0.857,1.931-1.81,3.063-1.94c9.831-1.125,19.692-1.921,29.508-3.171c2.894-0.366,5.679-1.822,8.494-2.854
				c3.58-1.316,7.049-3.256,10.725-3.951c7.641-1.448,11.854-9.905,7.892-17.268c-0.677-1.258-3.305-2.294-4.712-1.945
				c-10.786,2.694-21.501,5.729-32.219,8.726c-6.222,1.745-12.475,3.419-18.609,5.488c-6.967,2.349-13.794,5.19-20.746,7.612
				c-1.61,0.561-3.719,0.926-5.163,0.264c-3.147-1.436-6.139-3.393-8.958-5.508c-2.576-1.934-1.437-6.479,2.076-7.363
				c4.148-1.046,8.459-1.48,12.724-1.837c4.455-0.37,8.984,0.049,13.405-0.55c9.947-1.351,19.912-2.747,29.746-4.831
				c9.053-1.916,7.9-5.286,6.913-13.655c-0.283-2.389-2.098-3.431-4.315-2.892c-1.974,0.483-3.909,1.173-5.837,1.869
				c-8.801,3.163-17.248,1.015-25.586-2.088c-2.907-1.081-3.92-4.042-2.687-7.348c1.123-3.007,3.066-3.985,6.036-2.673
				c7.502,3.312,15.291,3.653,23.197,2.193c3.767-0.7,5.124-2.617,3.918-6.523c-2.322-7.512-5.446-14.387-13.594-16.503
				c-2.032-0.53-3.964-1.792-5.765-3.016c-2.883-1.958-2.71-5.523,0.456-6.929c2.163-0.961,4.643-1.047,6.952-1.655
				c4.488-1.185,8.992-2.328,13.418-3.746c2.904-0.933,4.018-3.611,3.053-6.466c-1.757-5.198-3.715-10.6-9.301-12.374
				c-2.551-0.81-5.38-1.203-8.015-0.964c-3.886,0.357-7.702,1.543-11.574,2.191c-1.731,0.288-4.003,0.843-5.15-0.044
				c-0.878-0.684-1.014-3.808-0.336-5.176c0.818-1.636,2.717-3.246,4.395-3.651c3.334-0.797,6.865-0.574,10.271-1.118
				c4.188-0.668,5.084-2.767,3.035-6.688c-1.332-2.555-2.99-4.92-4.24-7.518c-0.696-1.446-1.075-3.174-1.208-4.814
				c-0.352-4.344,0.924-4.715,4.853-3.737c8.098,2.014,11.344,7.841,12.523,15.97c0.228,1.566,1.161,3.094,2.008,4.463
				c3.041,4.925,6.136,9.812,9.312,14.638c1.393,2.116,1.216,3.811-0.138,5.937c-2.545,4.004-1.536,6.645,2.929,6.596
				c5.324-0.058,10.675-0.955,15.944-1.953c2.968-0.563,2.804-3.432,1.699-5.571c-2.604-5.054-1.328-8.723,1.754-13.272
				c5.239-7.725,8.759-16.53,9.039-26.469c0.102-3.635-1.758-5.956-3.736-8.449c-0.911-1.144-1.216-2.848-1.792-4.296
				c1.421-0.26,2.858-0.792,4.266-0.724c4.149,0.199,8.234,0.796,10.105,5.72c0.344,0.894,0.694,2.045,0.46,2.892
				c-0.943,3.438-2.143,6.792-3.177,10.201c-0.332,1.093-0.586,2.249-0.655,3.392c-0.264,4.457,1.96,6.232,5.811,4.817
				c3.938-1.451,7.854-3.049,11.892-4.074c1.485-0.378,3.738,0.168,4.793,1.254c0.809,0.83,0.592,3.239,0.293,4.831
				c-0.584,3.165-2.554,4.959-5.466,5.985c-6.158,2.174-11.844,5.954-18.793,5.172c-2.898-0.326-5.12,1.638-6.31,4.789
				c-0.669,1.771-1.865,3.298-2.719,5c-1.696,3.376-0.746,5.084,2.772,5.255c4.226,0.206,7.55-1.711,10.665-4.63
				c1.013-0.946,2.783-0.95,4.205-1.388c-0.037,1.69,0.518,3.845-0.236,4.989c-1.88,2.841-3.667,5.971-7.648,6.315
				c-3.174,0.273-6.309,1.333-9.424,2.202c-3.618,1.009-3.221,4.444-3.256,7.259c-0.054,4.63,0.145,9.281,0.556,13.887
				c0.135,1.473,0.968,3.266,2.027,4.165c2.05,1.751,10.047,0.057,11.754-2.133c2.372-3.052,1.682-6.117-1.802-9.233
				c-0.958-0.858-2.075-2.363-2.03-3.52c0.166-4.315,2.421-5.405,5.741-2.881c1.207,0.918,2.202,2.299,3.012,3.664
				c2.365,3.989,5.162,4.909,9.474,4.184c2.308-0.384,6.404,0.005,6.952,1.351c1.415,3.456-2.515,3.728-4.394,5.168
				c-0.382,0.295-0.85,0.478-1.294,0.667c-5.89,2.501-7.64,5.809-6.542,12.38c0.806,4.837,4.434,6.834,8.479,4.479
				c1.667-0.971,2.979-2.651,4.65-3.601c2.61-1.481,5.304-2.929,8.117-3.811c2.942-0.924,5.222,0.46,5.918,3.878
				c0.691,3.413-1.608,5.31-3.914,6c-11.454,3.453-22.965,6.699-34.533,9.688c-4.779,1.236-8.3,4.163-9.26,8.939
				c-0.549,2.752,1.028,6.453,2.606,9.047c0.692,1.138,4.067,1.355,5.723,0.638c5.837-2.523,11.508-5.524,17.141-8.555
				c4.582-2.467,8.989-5.294,13.541-7.82c0.801-0.442,2.37-0.617,2.826-0.112c0.577,0.639,0.821,2.338,0.436,3.159
				c-2.212,4.705-4.292,9.568-7.139,13.813c-2.064,3.077-5.697,3.249-9.219,3.016c-2.42-0.161-4.978,0.113-7.311,0.82
				c-3.869,1.172-7.583,2.931-11.41,4.288c-4.182,1.481-4.901,2.729-4.811,7.53c0.175,9.256-0.069,18.527,0.324,27.77
				c0.183,4.31,2.054,8.553,2.104,12.839c0.092,8.235-0.435,16.488-0.973,24.714C404.009,248.295,399.099,252.887,394.566,254.074
				 M391.08,108.56c0.397-8.506-3.143-11.831-8.989-9.39c-1.36,0.564-2.547,1.858-3.579,3.05c-3.456,3.988-6.982,7.499-12.359,8.511
				c-4.48,0.844-5.552,5.759-2.466,9.337c0.567,0.656,1.133,1.327,1.619,2.053c3.567,5.372,4.96,5.694,10.368,2.256
				c3.556-2.261,6.875-4.711,11.389-4.842c3.856-0.11,4.869-2.22,4.512-6.704C391.433,111.042,391.162,109.264,391.08,108.56
				 M393.49,131.796c-0.01,0-0.025,0-0.036-0.003c0.055-1.027,0.177-2.057,0.158-3.083c-0.112-6.2-3.22-8.367-7.913-5.027
				c-4.648,3.306-8.847,7.341-13.297,10.976c-4.016,3.28-4.261,6.089-0.959,13.043c1.675,3.53,4.822,4.727,8.85,3.3
				c2.476-0.877,4.964-1.746,7.38-2.788c2.447-1.059,4.943-2.194,5.157-5.677C393.046,138.955,393.27,135.377,393.49,131.796
				 M413.292,127.432c-0.674-0.886-1.235-2.371-2.065-2.578c-2.024-0.498-4.313-0.979-6.241-0.433
				c-5.091,1.449-6.021,3.889-4.283,9.269c0.308,0.952,0.193,2.084,0.573,2.983c0.758,1.812,2.156,5.138,2.536,5.019
				c2.343-0.735,5.339-1.671,6.477-3.647C411.97,135.132,412.286,131.291,413.292,127.432"/>
			<path clip-path="url(#SVGID_4_)" fill-rule="evenodd" clip-rule="evenodd" d="M529.512,54.826
				c2.825,1.315,5.816,2.332,8.431,4.025c2.403,1.562,4.47,3.776,6.564,5.847c2.401,2.371,4.876,2.281,7.587,0.775
				c11.121-6.164,22.114-12.616,33.462-18.245c3.176-1.575,7.503-1.304,11.11-0.648c1.732,0.314,3.638,3.261,4.352,5.44
				c0.866,2.651-0.945,4.594-3.154,6.239c-3.509,2.617-7.097,4.335-11.389,5.111c-3.301,0.601-6.257,3.146-9.531,4.26
				c-5.76,1.967-11.669,3.408-17.465,5.246c-3.767,1.195-7.572,2.395-11.126,4.149c-2.866,1.415-3.621,4.437-2.474,7.594
				c1.08,2.968,3.004,4.714,6.191,3.256c4.784-2.192,9.508-4.547,14.361-6.533c1.308-0.536,2.998,0.01,4.514,0.061
				c-0.424,1.39-0.47,3.284-1.354,4.061c-1.713,1.505-3.795,2.761-5.909,3.432c-4.228,1.34-8.127,4.042-12.968,3.14
				c-1.576-0.29-4.038,0.933-5.074,2.34c-1.267,1.715-2.022,4.394-1.89,6.577c0.074,1.143,2.394,2.479,3.92,3.095
				c4.841,1.956,9.224,0.653,13.621-2.168c3.646-2.342,7.779-3.803,11.688-5.67c2.709-1.292,5.329-2.849,8.13-3.824
				c1.483-0.52,3.266-0.046,4.911-0.023c-0.598,1.62-0.774,3.961-1.881,4.73c-3.572,2.485-7.478,4.42-11.276,6.517
				c-2.544,1.402-5.289,2.462-7.649,4.153c-2.067,1.475-2.373,3.888,0.1,5.261c4.007,2.223,8.195,4.102,12.375,5.938
				c2.969,1.306,6.027,2.417,9.096,3.426c7.458,2.458,14.944,4.821,22.425,7.193c4.423,1.402,8.965,2.46,13.267,4.209
				c3.096,1.261,3.144,3.892,0.567,6.194c-6.799,6.068-15.005,5.694-21.991-0.095c-4.015-3.324-8.703-5.834-13.343-8.104
				c-3.751-1.841-7.278,1.083-7.339,5.63c-0.129,10.157-0.165,20.311-0.189,30.469c-0.012,4.627-3.488,6.392-6.288,8.236
				c-8.179,5.39-16.898,9.4-26.705,9.789c-0.952,0.036-1.904,0.228-2.844,0.412c-7.048,1.378-10.332-1.269-11.771-8.937
				c-1.132-6.036-2.53-12.027-4.113-17.941c-1.341-5.004-4.182-5.195-7.934-1.829c-4.883,4.384-9.892,8.351-16.623,9.908
				c-5.377,1.244-10.217,5.187-15.301,7.913c-2.98,1.597-5.905,3.333-8.979,4.673c-2.608,1.137-5.963-0.397-6.718-2.667
				c-1.125-3.374-0.062-6.029,2.858-7.658c3.819-2.129,7.516-4.523,11.366-6.584c5.939-3.178,12.61-5.255,17.783-9.491
				c5.66-4.638,10.294-10.931,14.725-17.053c2.017-2.792-0.264-5.545-4.422-6.298c-1.98-0.358-4.263-0.392-5.803-1.529
				c-1.402-1.038-2.415-3.298-2.688-5.173c-0.093-0.639,2.631-2.579,3.996-2.498c5.935,0.355,11.179-2.189,16.645-3.858
				c2.815-0.862,3.98-3.125,4.431-5.956c0.503-3.189-1.201-4.334-4.144-3.743c-3.6,0.728-7.331,1.033-10.983,0.894
				c-1.266-0.05-3.052-1.763-3.512-3.14c-0.352-1.061,0.671-3.146,1.639-4.151c3.773-3.932,8.887-3.971,13.649-5.032
				c1.965-0.436,3.953-0.944,5.798-1.765c2.626-1.167,3.049-3.89,2.093-6.188c-0.907-2.183-2.681-3.835-5.538-2.669
				c-8.122,3.308-16.291,6.481-24.477,9.592c-3.228,1.226-6.286,2.022-9.876,0.067c-3.325-1.811-7.345-2.075-10.989-3.267
				c-2.256-0.733-4.506-1.703-6.513-3.002c-0.865-0.562-1.717-2.392-1.487-3.331c0.237-0.964,1.766-2.101,2.8-2.188
				c2.963-0.248,5.961,0.123,8.937,0.022c5.472-0.188,10.942-0.746,16.414-0.767c7.209-0.025,14.138-1.533,20.969-3.809
				c1.249-0.416,2.498-0.875,3.689-1.446c7.592-3.642,8.258-6.943,2.94-14.009c-1.67-2.218-3.217-4.546-4.819-6.826
				C528.762,56.001,529.135,55.415,529.512,54.826 M551.992,178.258c3.403-0.664,7.059-0.71,10.129-2.182
				c2.48-1.192,5.715-3.858,6.077-6.304c1.229-8.345,1.62-16.879,1.746-25.353c0.057-3.744-2.864-5.229-5.877-3.364
				c-7.345,4.539-15.602,4.801-23.585,6.462c-1.761,0.367-4.224,1.514-4.746,2.977c-0.686,1.912-0.38,4.891,0.613,6.693
				c1.385,2.516,4.092,2.663,6.765,1.801c5.376-1.73,10.769-3.424,16.224-4.822c0.841-0.218,2.965,1.271,2.933,1.858
				c-0.191,3.141,0.071,7.176-3.176,8.415c-2.547,0.972-5.674,0.463-8.506,0.195c-2.081-0.2-4.102-1.437-6.162-1.489
				c-0.946-0.021-2.583,1.552-2.786,2.645C540.694,170.864,547.16,178.292,551.992,178.258 M535.949,138.253
				c7.205,0.065,27.06-7.148,31.688-10.968c3.235-2.667,3.32-6.006-0.292-7.947c-5.097-2.739-10.359-5.279-15.784-7.103
				c-6.156-2.068-13.815,3.515-15.345,10.279c-0.49,2.172-1.081,4.716-2.461,6.159c-1.743,1.822-2.675,3.598-1.468,5.666
				C533.357,136.187,535.213,137.499,535.949,138.253"/>
			<path clip-path="url(#SVGID_4_)" fill-rule="evenodd" clip-rule="evenodd" d="M1056.027,138.383
				c-4.004,2.642-7.978,5.339-12.015,7.911c-2.876,1.828-5.977,3.273-8.703,5.32c-1.209,0.908-1.983,2.779-2.521,4.386
				c-0.557,1.667-0.564,3.544-0.849,5.327c-0.358,2.27-0.936,4.639-3.621,4.31c-2.636-0.32-4.888-1.701-4.92-5.086
				c-0.064-7.085-0.109-14.176,0.032-21.263c0.081-4.102,0.77-8.205,0.698-12.298c-0.027-1.446-1.214-3.451-2.386-4.089
				c-0.797-0.432-2.768,0.781-3.704,1.802c-0.838,0.906-1.094,2.53-1.396,3.891c-1.399,6.276-5.006,10.566-9.887,14.108
				c-2.344,1.708-3.964,4.579-5.933,6.899c-1.807,2.128-3.639,4.225-5.458,6.339c-1.765-2.132-3.959-4.007-5.204-6.447
				c-2.761-5.391-2.171-7.22,2.14-11.238c3.968-3.706,8.155-7.235,11.63-11.44c2.736-3.312,5.066-7.297,6.607-11.406
				c2.23-5.928,3.723-12.204,5.251-18.407c0.837-3.387-0.344-4.713-3.591-3.957c-3.545,0.826-6.951,2.322-10.445,3.432
				c-1.707,0.542-3.479,0.828-5.205,1.32c-1.482,0.424-3.102,0.682-4.374,1.521c-8.008,5.261-15.842,3.319-23.634-0.491
				c-0.935-0.456-1.755-1.344-2.443-2.204c-3.276-4.063-2.527-5.593,2.135-7.629c6.689-2.919,13.458-0.62,20.146-1.254
				c6.517-0.617,13.015-1.532,19.493-2.529c2.86-0.436,3.693-2.942,3.088-5.562c-0.773-3.348-2.254-6.507-3.104-9.843
				c-0.469-1.861-1.009-4.533-0.168-5.72c0.804-1.131,3.435-1.308,5.138-1.024c3.524,0.59,7.119,1.371,10.381,2.857
				c1.667,0.757,3.083,3.01,3.885,4.941c1.751,4.211,3.739,5.618,7.789,4.328c8.349-2.656,16.8-5.03,24.966-8.238
				c9.73-3.822,19.163-8.54,28.845-12.533c2.229-0.917,4.945-0.458,7.436-0.632c-0.287,2.426-0.3,4.938-0.916,7.263
				c-2.094,7.919-6.921,11.872-14.668,12.999c-8.716,1.268-17.27,3.814-25.903,5.771c-1.866,0.421-3.805,0.543-5.635,1.085
				c-3.758,1.118-7.465,2.429-11.193,3.654c-3.513,1.157-7.121,2.052-10.518,3.516c-5.855,2.521-6.96,7.169-4.039,13.445
				c4.04,8.687,9.548,7.374,15.482,4.187c5.968-3.199,11.976-6.344,18.138-9.065c8.001-3.529,15.627,0.703,16.174,11.361
				c0.031,0.645,0.068,1.293,0.034,1.938c-0.372,6.935-1.055,13.862-1.061,20.796c-0.012,8.869,0.424,17.744,0.854,26.604
				c0.18,3.711,0.968,7.386,1.257,11.096c0.329,4.288-2.777,7.251-6.226,5.44c-3.78-1.983-7.229-4.834-10.483-7.75
				c-0.686-0.613-0.511-3.851,0.308-4.671c4.863-4.875,5.238-10.99,4.825-17.449c-0.594-9.392-1.158-18.782-1.816-28.165
				c-0.104-1.527-0.546-3.045-0.969-4.517c-1.072-3.726-5.184-7.243-9.254-5.268c-4.207,2.041-8.687,3.435-13.068,5.042
				c-2.787,1.026-5.631,2.025-5.845,5.867c-0.153,2.789,3.422,6.996,6.541,7.289c2.56,0.242,5.188-0.438,7.793-0.588
				c1.36-0.081,2.823-0.163,4.081,0.276c0.662,0.232,1.397,1.624,1.34,2.433c-0.049,0.73-1.019,1.69-1.776,2.001
				c-3,1.251-6.087,2.244-9.116,3.42c-1.109,0.431-2.718,0.846-3.078,1.741c-0.769,1.926-0.873,4.157-1.251,6.266
				c1.689,0.346,3.509,1.302,5.043,0.92c3.704-0.917,7.26-2.526,10.912-3.71c1.039-0.336,2.219-0.167,3.333-0.232L1056.027,138.383z
				"/>
			<path clip-path="url(#SVGID_4_)" fill-rule="evenodd" clip-rule="evenodd" d="M1248.588,136.234
				c2.979-0.8,5.965-1.577,8.94-2.404c2.841-0.788,4.281,0.292,3.955,3.46c-0.526,5.199-2.809,9.625-6.368,13.044
				c-2.509,2.414-5.383,1.052-8.058-0.246c-6.084-2.957-12.155-5.953-18.29-8.788c-4.219-1.947-7.921-0.643-10.616,3.455
				c-2.483,3.78-4.798,7.701-7.468,11.32c-3.222,4.375-7.018,8.277-10.053,12.785c-2.972,4.414-5.341,9.31-7.889,14.045
				c-0.65,1.215-0.731,2.863-1.533,3.889c-0.854,1.089-2.22,2.212-3.433,2.305c-0.832,0.065-1.857-1.523-2.661-2.498
				c-1.71-2.064-3.427-4.137-4.962-6.353c-1.095-1.582-2.489-3.306-2.737-5.129c-0.956-7.015-1.74-14.079-2.113-21.154
				c-0.228-4.338,0.474-8.722,0.638-13.092c0.38-9.916,0.466-19.854,1.065-29.759c0.897-14.747,2.42-29.462,3.043-44.222
				c0.16-3.823-1.727-7.915-3.238-11.611c-1.428-3.485-1.227-5.278,2.063-6.635c1.548-0.642,3.203-1.05,4.842-1.382
				c13.128-2.665,26.196-5.544,38.474-11.559c0.991-0.488,2.824-0.419,3.526,0.271c0.656,0.649,0.884,2.851,0.363,3.703
				c-5.364,8.807-5.401,18.722-5.519,28.677c-0.062,5.394-0.44,10.784-0.601,16.18c-0.079,2.699-1.411,4.049-3.612,5.139
				c-7.89,3.905-15.703,7.992-23.512,12.081c-1.054,0.551-2.028,1.406-2.853,2.315c-3.103,3.425-2.655,5.145,1.435,6.918
				c5.401,2.343,10.787,4.741,16.06,7.393c2.384,1.196,4.084,0.66,5.802-1.121c5.789-6.016,10.971-12.546,14.78-20.244
				c0.226-0.456,0.498-0.89,0.798-1.289c1.585-2.076,3.372-3.984,6.077-2.607c2.207,1.126,3.229,6.176,1.38,8.309
				c-3.54,4.085-7.478,7.785-11.314,11.566c-1.756,1.727-3.875,3.065-5.464,4.939c-2.661,3.142-2.4,7.125,1.182,8.713
				c7.896,3.5,16.082,6.234,24.19,9.16c1.075,0.384,2.369,0.05,3.563,0.05C1248.511,135.986,1248.551,136.109,1248.588,136.234
				 M1185.286,162.565c0.031,0.002,0.06,0.002,0.09,0.005c-0.056,0.512-0.273,1.081-0.141,1.526c0.49,1.642,0.701,3.949,1.777,4.655
				c1,0.651,3.4,0.122,4.425-0.834c2.918-2.738,5.475-5.935,8.119-9.007c0.885-1.029,1.496-2.343,2.421-3.322
				c4.039-4.292,8.252-8.398,12.208-12.78c4.095-4.542,3.99-7.483-0.167-11.813c-0.815-0.848-2.007-1.286-3.028-1.896
				c-4.121-2.468-8.486-4.556-12.266-7.524c-2.378-1.871-4.398-3.75-7.304-2.308c-2.864,1.425-3.924,4.21-4.102,7.579
				C1186.704,138.756,1185.974,150.658,1185.286,162.565 M1191.076,62.865c0.024,6.256,3.487,8.991,8.908,6.83
				c2.562-1.018,4.931-2.565,7.438-3.73c4.499-2.08,5.235-3.835,3.918-8.872c-1.08-4.114-4.122-4.598-7.269-4.907
				C1197.097,51.5,1191.051,56.51,1191.076,62.865 M1194.749,91.977c5.901-2.496,11.604-4.182,15.741-8.887
				c0.941-1.07,0.867-3.625,0.562-5.355c-0.168-0.934-1.772-2.151-2.797-2.23c-6.474-0.485-11.98,2.282-16.355,7.174
				c-1.213,1.354-1.556,4.355-1.179,6.36C1190.945,90.253,1193.311,91,1194.749,91.977"/>
			<path clip-path="url(#SVGID_4_)" fill-rule="evenodd" clip-rule="evenodd" d="M878.831,147.56
				c1.277,0.699,2.132,1.544,3.019,1.587c6.264,0.306,12.535,0.731,18.792,0.563c7.595-0.2,15.177-0.916,22.762-1.463
				c5.317-0.385,10.763-0.245,15.913-1.488c4.159-1.006,7.902-3.902,11.962-5.594c1.419-0.592,3.864-0.837,4.729,0.041
				c2.119,2.149,1.814,5.381-0.295,7.24c-5.441,4.796-10.977,9.583-16.975,13.47c-2.481,1.609-6.24,1.104-9.427,1.202
				c-7.617,0.241-15.243,0.463-22.858,0.331c-10.115-0.176-20.223-0.831-30.338-1.027c-10.243-0.203-20.492-0.092-30.74-0.136
				c-10.738-0.042-21.485-0.206-32.226-0.101c-3.551,0.036-7.128,0.555-10.643,1.179c-3.133,0.559-6.07-1.066-6.601-4.106
				c-0.462-2.655,2.021-5.586,5.081-5.659c9.396-0.223,18.797-0.191,28.188-0.509c10.858-0.369,21.699-1.011,32.55-1.539
				c0.359-0.019,0.761-0.01,1.057-0.188c1.897-1.146,3.773-2.342,5.658-3.522c-1.262-2.186-2.242-4.656-3.842-6.493
				c-2.833-3.254-6.157-6.004-9.063-9.194c-2.066-2.267-1.232-5.381,1.545-6.492c7.669-3.062,15.421-5.909,23.019-9.167
				c4.279-1.832,8.4-4.142,12.432-6.542c3.82-2.277,6.29-1.295,7.438,3.346c0.887,3.589,2.474,7.135,2.6,10.746
				c0.134,3.974-0.839,8.061-1.811,11.955c-0.241,0.96-2.329,1.428-3.605,2.029c-4.003,1.886-8.063,3.638-12.026,5.618
				C883.137,144.636,881.313,145.999,878.831,147.56 M895.752,123.978c-0.112-3.157-1.492-4.986-4.282-4.57
				c-8.399,1.257-14.793,7.421-22.22,11.071c-0.751,0.369-1.23,3.432-0.657,4.542c2.565,4.978,6.947,6.011,11.631,3.367
				c2.311-1.303,4.792-2.251,7.138-3.488C890.642,133.17,896.167,128.096,895.752,123.978"/>
			<path clip-path="url(#SVGID_4_)" fill-rule="evenodd" clip-rule="evenodd" d="M663.42,110.514
				c5.709,0.313,11.42,0.842,17.13,0.842c2.536,0,5.057-1.165,7.611-1.627c2.911-0.526,5.902-0.622,8.768-1.327
				c4.993-1.234,9.866-3.662,14.886-4.031c9.451-0.687,17.234-6.539,26.153-8.628c5.351-1.254,10.78-2.137,16.096-3.538
				c3.364-0.886,6.479-2.298,9.922-0.056c2.251,1.465,3.499,3.147,2.833,5.947c-0.818,3.454-1.79,6.864-2.74,10.282
				c-0.9,3.231-3.359,3.578-5.79,3.041c-2.525-0.556-4.55-2.094-4.873-5.3c-0.609-6.015-4.021-7.859-8.92-5.135
				c-2.854,1.587-5.941,2.676-8.887,4.076c-1.061,0.503-2.237,1.06-2.949,1.966c-0.69,0.874-1.407,2.471-1.092,3.309
				c0.306,0.822,1.896,1.544,2.913,1.531c7.965-0.093,6.276,2.131,4.517,7.715c-1.875,5.948-1.501,6.813,3.541,10.194
				c0.721,0.487,1.733,1.676,1.586,2.202c-0.305,1.077-1.134,2.437-2.047,2.789c-6.897,2.683-13.893,5.078-20.807,7.715
				c-3.542,1.354-6.933,3.17-10.479,4.504c-3.187,1.204-6.091,0.511-8.458-2.329c-2.709-3.255-5.636-6.308-8.227-9.668
				c-3.813-4.928-2.664-8.287,3.082-9.188c3.185-0.498,6.417-0.737,9.636-0.908c6.908-0.368,13.029-3.166,18.596-7.297
				c1.111-0.826,1.841-3.436,1.52-4.906c-0.212-0.964-2.629-1.389-4.083-1.983c-0.293-0.121-0.715,0.027-1.052,0.141
				c-8.02,2.67-15.96,5.642-24.073,7.92c-4.775,1.338-9.804,1.743-14.747,2.265c-6.688,0.709-7.594,1.686-9.179,8.736
				c-1.205,5.347-2.956,10.555-4.586,15.777c-0.326,1.038-1.04,2.167-1.876,2.73c-1.32,0.893-2.896,1.337-4.362,1.973
				c-0.572-1.89-1.87-3.914-1.589-5.642c1.429-8.821-0.729-16.593-5.471-23.577c-2.163-3.192-0.702-5.791,0.668-8.161
				c0.721-1.243,2.807-1.652,4.341-2.215c0.746-0.277,1.655-0.049,2.488-0.049V110.514z M732.837,130.003
				c0.03-3.624-1.971-5.765-4.479-5.17c-3.462,0.819-7.174,1.551-10.09,3.506c-1.784,1.198-2.276,4.631-3.35,7.061
				c1.513,0.719,3.258,2.352,4.496,1.983c3.872-1.147,7.604-2.907,11.258-4.744C731.771,132.089,732.431,130.524,732.837,130.003"/>
			<path clip-path="url(#SVGID_4_)" fill-rule="evenodd" clip-rule="evenodd" d="M1449.969,103.143
				c0.2-5.404-0.176-10.845,0.195-16.231c0.695-10.14,1.722-20.257,2.646-30.378c0.296-3.213-1.878-6.172-4.958-6.247
				c-1.764-0.047-3.564,0.265-5.299,0.647c-6.188,1.36-12.343,2.891-18.536,4.228c-3.531,0.766-9.316-2.31-10.835-5.547
				c-1.163-2.473,0.659-6.468,3.488-6.764c2.555-0.265,5.182,0.445,7.779,0.526c3.794,0.12,7.584,0.108,11.377,0.058
				c2.263-0.032,4.543-0.104,6.784-0.406c3.878-0.517,7.804-0.909,11.574-1.946c4.555-1.248,7.641,1.207,7.25,6.19
				c-0.55,7.033-0.938,14.078-1.461,21.114c-0.549,7.437-1.297,14.855-1.743,22.296c-0.805,13.367-1.243,26.765-2.226,40.116
				c-0.738,10.105-2.327,20.134-3.053,30.238c-0.38,5.196,0.688,10.507,0.358,15.708c-0.244,3.845-1.506,7.674-2.746,11.339
				c-0.32,0.939-2.559,2.021-3.442,1.668c-2.919-1.16-5.74-2.765-8.405-4.537c-7.699-5.126-14.873-11.277-23.907-13.695
				c-3.799-1.017-7.645-1.931-11.31-3.369c-1.143-0.451-1.761-2.473-2.618-3.778c1.386-0.578,2.903-1.887,4.13-1.62
				c8.745,1.91,17.396,4.316,26.149,6.188c3.591,0.769,7.375,0.958,11.025,0.696c1.452-0.105,3.769-1.94,4.012-3.328
				c1.335-7.688,2.155-15.481,3.153-23.24C1448.988,143.023,1449.475,116.409,1449.969,103.143"/>
			<path clip-path="url(#SVGID_4_)" fill-rule="evenodd" clip-rule="evenodd" d="M860.772,118.393
				c-1.237-0.659-3.387-1.438-5.106-2.83c-1.943-1.578-1.256-6.034,1.142-7.127c4.155-1.89,8.523-3.22,12.69-5.086
				c3.401-1.525,6.78-3.24,9.903-5.336c2.35-1.574,4.577-4.119,3.357-7.375c-1.253-3.355-4.32-3.531-7.071-2.242
				c-4.99,2.338-9.959,4.783-14.74,7.582c-3.764,2.202-5.948,1.674-8.093-2.359c-3.128-5.878-6.527-11.588-9.679-17.453
				c-0.448-0.833-0.504-2.338-0.105-3.19c0.896-1.94,2.12-3.719,3.323-5.468c1.504-2.188,3.483-3.347,5.899-1.853
				c2.695,1.67,5.396,3.364,4.755,7.708c-0.383,2.622-0.442,5.425-0.026,8.029c0.629,3.947,3.337,5.267,6.689,3.576
				c4.409-2.225,8.79-4.524,13.139-6.885c3.537-1.924,4.611-6.809,2.161-10.172c-1.976-2.709-4.412-5.05-6.248-7.859
				c-1.93-2.955-1.06-4.942,2.172-6.074c7.047-2.47,12.627,0.833,14.36,8.552c0.335,1.5,0.396,3.075,0.756,4.566
				c0.766,3.171,3.327,4.122,5.729,2.192c1.152-0.927,2.151-2.256,3.435-2.739c1.016-0.382,2.359,0.249,3.557,0.43
				c-0.197,1.301-0.113,2.769-0.676,3.846c-0.475,0.899-1.62,1.611-2.604,1.934c-5.062,1.664-8.159,6.039-11.825,9.661
				c-2.099,2.077-1.49,4.063-0.276,6.209c1.221,2.16,2.773,3.581,5.299,2.702c4.191-1.457,8.332-3.109,12.576-4.333
				c1.214-0.346,2.717,0.503,4.09,0.802c-0.457,1.185-0.64,2.667-1.413,3.506c-5.005,5.429-10.354,9.44-17.979,10.671
				c-5.39,0.871-10.517,5.046-15.303,8.488C870.543,113.425,867.222,117.731,860.772,118.393"/>
			<path clip-path="url(#SVGID_4_)" fill-rule="evenodd" clip-rule="evenodd" d="M740.44,78.662
				c-2.989-2.983-4.676-3.292-8.257-0.998c-7.431,4.767-15.414,6.931-24.122,7.126c-9.512,0.211-18.762,1.904-25.97,9.892
				c-1.441,1.594-4.04,1.967-6.102,2.9c0.342-2.261,0.049-5.008,1.15-6.683c2.513-3.821,5.691-7.137,8.64-10.618
				c2.384-2.809,5.144-5.317,7.131-8.415c1.561-2.436,1.08-5.312-0.685-7.941c-2.766-4.131-2.466-9.136,0.42-12.399
				c2.157-2.441,8.449-2.797,11.387-0.016c1.349,1.282,2.429,4.066,2.157,5.92c-0.547,3.753-2.282,7.279-3.156,11.007
				c-0.425,1.811-0.626,4.332,0.238,5.633c0.672,1.018,3.278,1.229,4.78,0.795c3.673-1.052,7.187-1.501,10.848-0.054
				c2.531,0.999,4.701,0.063,6.445-2.067c1.738-2.12,3.537-4.191,5.156-6.416c2.611-3.588,3.39-7.378,0.54-11.321
				c-0.217-0.302-0.478-0.642-0.534-0.996c-0.353-2.18-0.656-4.37-0.975-6.556c1.927,0.496,3.866,0.953,5.78,1.512
				c0.8,0.232,1.55,0.67,2.31,1.047c4.989,2.48,6.467,6.093,4.435,11.532c-0.868,2.333-1.811,4.927,0.745,6.022
				c2.819,1.214,6.055,1.402,9.134,1.607c0.247,0.015,1.073-3.329,0.964-5.063c-0.34-5.448,2.82-9.697,7.504-9.641
				c3.633,0.045,5.373,2.638,3.733,6.161c-1.073,2.316-2.899,4.222-4.35,6.34c-0.752,1.1-1.426,2.258-2.133,3.39
				c1.042,0.696,2.025,1.547,3.138,2.044c1.951,0.865,4.809,1.227,4.251,4.169c-0.473,2.499-2.779,3.467-5.397,3.362
				c-4.841-0.189-9.688-0.053-14.532-0.053C745.002,80.415,741.651,79.871,740.44,78.662"/>
			<path clip-path="url(#SVGID_4_)" fill-rule="evenodd" clip-rule="evenodd" d="M709.609,154.985
				c9.248-2.749,18.533-5.324,27.772-8.089c2.287-0.681,4.44-1.875,6.69-2.72c1.453-0.545,3.01-1.343,4.45-1.207
				c1.872,0.184,4.146,0.7,5.32,2.032c0.602,0.687-0.435,3.697-1.359,5.209c-3.192,5.229-3.415,10.854-2.457,16.701
				c0.9,5.498,0.962,5.521-3.913,6.737c-3.819,0.948-7.938,1.145-11.43,2.858c-5.253,2.581-10.189,6.003-15.051,9.414
				c-6.686,4.688-8.716,4.094-12.513-0.913c-2.856-3.77-6.154-7.213-9.585-10.385c-2.658-2.459-5.747-4.421-8.794-6.325
				c-2.195-1.367-5.375-2.508-4.006-5.638c0.826-1.887,4.002-2.573,6.122-3.799C691.083,159.459,705.742,156.137,709.609,154.985
				 M720.603,174.746c7.72-3.339,15.18-6.317,22.365-9.93c1.087-0.546,1.725-4.42,1.071-6.06c-0.632-1.59-3.107-2.915-4.933-3.207
				c-2.013-0.325-4.207,0.67-6.325,1.061c-5.854,1.088-11.374,2.811-15.502,7.941c-1.423,1.772-3.711,3.404-2.264,5.821
				C716.083,172.158,718.38,173.083,720.603,174.746"/>
			<path clip-path="url(#SVGID_4_)" fill-rule="evenodd" clip-rule="evenodd" d="M1150.564,74.159
				c0.345-5.252-1.106-7.032-5.46-9.119c-1.275-0.613-2.891-2.477-2.823-3.667c0.07-1.221,2.047-3.32,3.127-3.278
				c3.608,0.146,7.411,0.475,10.722,1.887c3.011,1.286,2.915,5.003,2.633,8.185c-0.73,8.209-1.547,16.416-2.199,24.633
				c-0.261,3.205-0.226,6.442-0.245,9.663c-0.033,6.011-1.453,7.542-6.943,7.376c-7.015-0.21-9.406,3.209-8.606,10.957
				c0.36,3.525-0.23,7.339-1.15,10.79c-0.71,2.678-3.482,3.405-5.699,2.375c-1.426-0.662-2.785-2.546-3.313-4.202
				c-1.2-3.76-2.083-7.676-2.661-11.603c-0.299-2.032-0.123-4.431,0.622-6.298c3.292-8.267,2.947-10.137-2.699-16.444
				c-1.283-1.435-2.354-4.213-1.937-5.915c0.313-1.274,3.121-2.06,4.935-2.591c1.574-0.467,3.325-0.158,4.975-0.395
				c4.328-0.609,7.43,2.244,7.518,6.988c0.032,1.798-0.288,3.783,0.32,5.33c0.54,1.373,2.043,2.917,3.317,3.15
				c1.063,0.193,3.188-1.156,3.473-2.244c0.834-3.161,0.976-6.527,1.392-9.815C1149.519,89.872,1150.23,79.379,1150.564,74.159"/>
			<path clip-path="url(#SVGID_4_)" fill-rule="evenodd" clip-rule="evenodd" d="M1332.106,134.85
				c-0.697-0.387-1.991-1.007-3.196-1.791c-4.361-2.821-6.152-2.494-10.418,0.447c-7.776,5.352-15.725,10.419-23.661,15.498
				c-2.27,1.453-5.276-0.645-6.066-4.094c-1.05-4.616-2.249-9.214-2.919-13.896c-0.276-1.926,0.03-4.744,1.167-5.968
				c3.141-3.38,6.856-6.137,10.342-9.144c1.573-1.356,3.173-2.681,4.718-4.076c3.556-3.229,7.016-6.59,10.684-9.662
				c0.83-0.69,2.754-1.042,3.492-0.487c8.854,6.623,17.131,13.939,21.809,24.812C1339.69,130.275,1336.584,134.952,1332.106,134.85
				 M1326.477,122.553c-1.271-1.663-2.323-3.298-3.623-4.657c-1.1-1.149-2.758-1.739-3.695-2.988
				c-3.248-4.321-6.734-3.258-9.735,0.405c-3.354,4.093-6.108,8.82-8.711,13.541c-0.724,1.302-0.443,3.814,0.269,5.257
				c0.388,0.786,2.851,1.074,4.036,0.596c6.296-2.545,12.482-5.401,18.707-8.152c0.22-0.096,0.494-0.187,0.614-0.379
				C1324.969,125.162,1325.561,124.118,1326.477,122.553"/>
			<path clip-path="url(#SVGID_4_)" fill-rule="evenodd" clip-rule="evenodd" d="M1410.697,132.628c-1.903,0-3.83-0.209-5.709,0.037
				c-6.297,0.821-6.736,1.639-8.502,8.27c-0.528,1.998-2.781,3.464-4.241,5.177c-1.505-1.507-3.636-2.712-4.398-4.575
				c-2.798-6.819-5.085-13.881-7.677-20.805c-1.045-2.802-2.834-5.365-3.445-8.248c-0.75-3.501,1.311-5.743,4.665-5.177
				c7.769,1.306,15.097-1.073,22.577-2.451c5.108-0.944,10.286-1.451,15.434-2.168c3.513-0.487,4.84,1.709,4.85,4.979
				c0.008,2.676-0.343,5.38-0.756,8.034c-0.577,3.669-1.615,7.271-1.989,10.956c-0.379,3.763-2.238,5.549-5.442,5.949
				c-1.767,0.221-3.574,0.038-5.363,0.038C1410.699,132.637,1410.699,132.633,1410.697,132.628 M1401.045,127.624
				c7.443-1.513,12.437-2.655,13.629-9.98c0.584-3.559-1.094-6.635-4.316-6.472c-4.326,0.221-8.647,1.124-12.902,2.086
				c-2.641,0.604-4.665,2.368-3.995,5.781C1394.377,123.759,1397.971,127.698,1401.045,127.624"/>
			<path clip-path="url(#SVGID_4_)" fill-rule="evenodd" clip-rule="evenodd" d="M817.932,107.286
				c2.815-0.31,5.628-0.667,8.447-0.922c4.131-0.375,7.875,0.237,11.406,3.182c3.392,2.821,3.911,6.341,3.427,10.245
				c-0.483,3.884-2.647,5.061-6.194,3.805c-5.259-1.868-11.014-2.369-15.358-6.757c-0.708-0.715-1.98-1.074-3-1.087
				c-3.061-0.037-3.963-1.885-3.76-4.76C813.135,107.679,815.209,106.788,817.932,107.286"/>
			<path clip-path="url(#SVGID_4_)" fill-rule="evenodd" clip-rule="evenodd" d="M1424.131,72.334
				c1.192-0.103,2.42-0.45,3.555-0.229c0.896,0.173,2.166,0.892,2.375,1.65c0.213,0.796-0.388,2.405-1.073,2.844
				c-7.813,4.996-16.038,9.146-25.312,8.807c-4.286-0.157-8.539-1.972-12.755-3.219c-0.72-0.212-1.691-1.407-1.664-2.107
				c0.039-0.963,0.715-2.269,1.482-2.737c1.083-0.662,2.482-0.767,3.767-0.979c7.157-1.191,14.313-2.373,21.478-3.487
				c2.688-0.419,5.4-0.647,8.103-0.962C1424.101,72.056,1424.117,72.194,1424.131,72.334"/>
			<path clip-path="url(#SVGID_4_)" fill-rule="evenodd" clip-rule="evenodd" d="M833.384,144.421
				c-5.771-2.978-11.335-5.749-16.77-8.788c-0.655-0.371-1.126-2.971-0.795-3.234c1.213-0.97,2.84-1.991,4.246-1.901
				c4.867,0.313,9.707,1.079,14.554,1.693c1.648,0.209,3.338,0.302,4.93,0.766c3.064,0.901,3.747,3.229,1.421,5.557
				C838.835,140.639,836.251,142.225,833.384,144.421"/>
			<path clip-path="url(#SVGID_4_)" fill-rule="evenodd" clip-rule="evenodd" d="M1267.732,90.043
				c0.015-2.968,0.938-4.119,3.29-2.642c3.58,2.253,7.364,2.532,11.367,1.802c1.107-0.206,2.364,0.094,3.478,0.451
				c3.169,1.009,3.508,2.194,1.196,4.619c-2.431,2.542-4.977,4.972-7.64,7.215c-0.678,0.569-2.451,0.755-2.948,0.243
				c-2.919-2.988-5.652-6.193-8.316-9.446C1267.689,91.714,1267.819,90.567,1267.732,90.043"/>
			<path clip-path="url(#SVGID_4_)" fill-rule="evenodd" clip-rule="evenodd" d="M1327.185,82.323
				c1.61,0.231,3.642,0.357,5.599,0.851c3.246,0.816,3.889,3.075,1.87,5.99c-3.942,5.701-13.283,4.848-16.325-1.562
				c-1.244-2.612,0.435-3.97,2.405-4.517C1322.665,82.546,1324.739,82.586,1327.185,82.323"/>
			<path clip-path="url(#SVGID_4_)" fill-rule="evenodd" clip-rule="evenodd" d="M661.577,73.178
				c0.283-0.436,0.804-2.201,1.701-2.462c2.913-0.855,5.952-1.328,8.969-1.533c0.605-0.042,1.971,1.84,1.864,2.672
				c-0.381,3.038-1.005,6.101-1.992,8.97c-0.683,1.991-2.221,3.345-4.571,2.363C665.215,82.211,661.66,76.894,661.577,73.178"/>
			<path clip-path="url(#SVGID_4_)" fill-rule="evenodd" clip-rule="evenodd" d="M726.256,60.104
				c-0.139,3.807-5.331,8.118-7.865,7.447c-2.271-0.599-3.042-2.947-1.557-5.117c0.987-1.442,2.054-2.901,3.343-4.001
				c1.102-0.941,2.996-2.278,3.775-1.84C725.183,57.283,725.779,59.302,726.256,60.104"/>
			<path clip-path="url(#SVGID_4_)" fill-rule="evenodd" clip-rule="evenodd" fill="#FFFFFF" d="M391.077,108.56
				c0.084,0.704,0.354,2.48,0.495,4.269c0.357,4.487-0.654,6.596-4.51,6.706c-4.516,0.131-7.833,2.582-11.39,4.842
				c-5.405,3.438-6.799,3.116-10.369-2.256c-0.484-0.73-1.053-1.396-1.618-2.053c-3.084-3.581-2.011-8.493,2.465-9.337
				c5.377-1.01,8.906-4.523,12.359-8.511c1.035-1.194,2.22-2.486,3.581-3.05C387.935,96.729,391.478,100.052,391.077,108.56"/>
			<path clip-path="url(#SVGID_4_)" fill-rule="evenodd" clip-rule="evenodd" fill="#FFFFFF" d="M393.49,131.796
				c-0.22,3.582-0.444,7.159-0.664,10.742c-0.213,3.483-2.705,4.618-5.155,5.677c-2.415,1.042-4.903,1.911-7.379,2.788
				c-4.03,1.426-7.174,0.229-8.851-3.3c-3.301-6.954-3.055-9.764,0.958-13.043c4.452-3.635,8.65-7.67,13.296-10.977
				c4.696-3.341,7.802-1.172,7.913,5.028c0.021,1.026-0.1,2.056-0.157,3.083C393.466,131.796,393.479,131.796,393.49,131.796"/>
			<path clip-path="url(#SVGID_4_)" fill-rule="evenodd" clip-rule="evenodd" fill="#FFFFFF" d="M413.292,127.432
				c-1.006,3.859-1.322,7.7-3.004,10.613c-1.138,1.977-4.133,2.912-6.477,3.647c-0.38,0.119-1.778-3.207-2.536-5.019
				c-0.379-0.899-0.265-2.032-0.573-2.983c-1.738-5.379-0.808-7.82,4.283-9.269c1.927-0.547,4.216-0.065,6.241,0.433
				C412.057,125.061,412.618,126.546,413.292,127.432"/>
			<path clip-path="url(#SVGID_4_)" fill-rule="evenodd" clip-rule="evenodd" fill="#FFFFFF" d="M551.992,178.258
				c-4.833,0.034-11.296-7.393-10.35-12.465c0.203-1.095,1.835-2.669,2.784-2.645c2.062,0.047,4.081,1.288,6.163,1.483
				c2.833,0.272,5.957,0.781,8.506-0.19c3.248-1.238,2.984-5.274,3.173-8.416c0.036-0.59-2.088-2.075-2.933-1.858
				c-5.451,1.398-10.843,3.092-16.22,4.822c-2.673,0.86-5.382,0.717-6.767-1.8c-0.99-1.804-1.301-4.785-0.616-6.692
				c0.527-1.464,2.99-2.611,4.75-2.979c7.98-1.66,16.242-1.922,23.585-6.461c3.015-1.864,5.932-0.381,5.877,3.364
				c-0.127,8.472-0.515,17.007-1.746,25.353c-0.361,2.446-3.596,5.106-6.079,6.299C559.052,177.55,555.394,177.596,551.992,178.258"
				/>
			<path clip-path="url(#SVGID_4_)" fill-rule="evenodd" clip-rule="evenodd" fill="#FFFFFF" d="M535.949,138.253
				c-0.736-0.754-2.592-2.066-3.663-3.913c-1.207-2.068-0.275-3.843,1.468-5.666c1.38-1.443,1.971-3.987,2.461-6.159
				c1.53-6.764,9.188-12.347,15.345-10.279c5.425,1.823,10.688,4.363,15.784,7.103c3.611,1.941,3.526,5.28,0.292,7.947
				C563.008,131.104,543.154,138.318,535.949,138.253"/>
			<path clip-path="url(#SVGID_4_)" fill-rule="evenodd" clip-rule="evenodd" fill="#FFFFFF" d="M1185.286,162.565
				c0.688-11.907,1.418-23.809,2.034-35.718c0.177-3.369,1.236-6.154,4.101-7.58c2.905-1.442,4.926,0.437,7.304,2.308
				c3.779,2.968,8.146,5.056,12.266,7.524c1.021,0.61,2.213,1.048,3.028,1.896c4.157,4.33,4.262,7.27,0.167,11.812
				c-3.956,4.383-8.169,8.489-12.208,12.78c-0.925,0.979-1.536,2.293-2.421,3.322c-2.645,3.072-5.201,6.267-8.119,9.005
				c-1.024,0.958-3.425,1.487-4.425,0.836c-1.077-0.706-1.286-3.013-1.777-4.657c-0.133-0.443,0.085-1.012,0.141-1.524
				C1185.346,162.567,1185.317,162.567,1185.286,162.565"/>
			<path clip-path="url(#SVGID_4_)" fill-rule="evenodd" clip-rule="evenodd" fill="#FFFFFF" d="M1191.076,62.865
				c-0.025-6.355,6.026-11.368,12.996-10.679c3.146,0.31,6.188,0.793,7.269,4.907c1.319,5.037,0.581,6.792-3.918,8.873
				c-2.508,1.161-4.877,2.711-7.435,3.73C1194.563,71.856,1191.101,69.121,1191.076,62.865"/>
			<path clip-path="url(#SVGID_4_)" fill-rule="evenodd" clip-rule="evenodd" fill="#FFFFFF" d="M1194.749,91.977
				c-1.438-0.978-3.804-1.724-4.028-2.938c-0.377-2.005-0.034-5.006,1.179-6.36c4.375-4.892,9.882-7.66,16.355-7.174
				c1.024,0.079,2.629,1.296,2.797,2.23c0.306,1.73,0.38,4.285-0.562,5.355C1206.354,87.795,1200.65,89.481,1194.749,91.977"/>
			<path clip-path="url(#SVGID_4_)" fill-rule="evenodd" clip-rule="evenodd" fill="#FFFFFF" d="M895.752,123.978
				c0.415,4.118-5.11,9.192-8.391,10.921c-2.346,1.237-4.827,2.185-7.138,3.488c-4.684,2.644-9.065,1.611-11.631-3.367
				c-0.573-1.109-0.094-4.172,0.657-4.542c7.427-3.65,13.82-9.813,22.22-11.071C894.26,118.991,895.64,120.821,895.752,123.978"/>
			<path clip-path="url(#SVGID_4_)" fill-rule="evenodd" clip-rule="evenodd" fill="#FFFFFF" d="M732.837,130.003
				c-0.406,0.521-1.066,2.085-2.164,2.636c-3.653,1.837-7.386,3.597-11.258,4.744c-1.238,0.368-2.983-1.265-4.496-1.983
				c1.073-2.43,1.565-5.863,3.35-7.061c2.916-1.955,6.628-2.687,10.09-3.506C730.866,124.239,732.867,126.38,732.837,130.003"/>
			<path clip-path="url(#SVGID_4_)" fill-rule="evenodd" clip-rule="evenodd" fill="#FFFFFF" d="M720.603,174.746
				c-2.223-1.663-4.52-2.588-5.587-4.373c-1.447-2.417,0.841-4.049,2.264-5.821c4.128-5.13,9.648-6.853,15.502-7.941
				c2.118-0.391,4.313-1.386,6.325-1.061c1.825,0.292,4.301,1.617,4.933,3.207c0.653,1.64,0.016,5.514-1.071,6.06
				C735.782,168.429,728.322,171.407,720.603,174.746"/>
			<path clip-path="url(#SVGID_4_)" fill-rule="evenodd" clip-rule="evenodd" fill="#FFFFFF" d="M1326.477,122.553
				c-0.916,1.565-1.508,2.609-2.139,3.623c-0.12,0.192-0.395,0.283-0.614,0.379c-6.225,2.75-12.411,5.607-18.707,8.152
				c-1.186,0.479-3.648,0.19-4.036-0.596c-0.712-1.443-0.992-3.955-0.269-5.257c2.603-4.721,5.357-9.448,8.711-13.541
				c3.001-3.663,6.487-4.726,9.735-0.405c0.938,1.249,2.596,1.839,3.695,2.988C1324.153,119.254,1325.205,120.89,1326.477,122.553"
				/>
			<path clip-path="url(#SVGID_4_)" fill-rule="evenodd" clip-rule="evenodd" fill="#FFFFFF" d="M1401.045,127.624
				c-3.074,0.074-6.668-3.865-7.585-8.585c-0.67-3.413,1.354-5.177,3.995-5.781c4.255-0.962,8.576-1.865,12.902-2.086
				c3.223-0.163,4.9,2.913,4.316,6.472C1413.481,124.969,1408.488,126.111,1401.045,127.624"/>
		</g>
		<g clip-path="url(#SVGID_2_)">
			<defs>
				<rect id="SVGID_5_" x="262.932" y="290.286" width="1247.377" height="391.714"/>
			</defs>
			<clipPath id="SVGID_6_">
				<use xlink:href="#SVGID_5_"  overflow="visible"/>
			</clipPath>
			<g clip-path="url(#SVGID_6_)">
				<defs>
					<rect id="SVGID_7_" x="262.932" y="290.286" width="1247.378" height="391.714"/>
				</defs>
				<clipPath id="SVGID_8_">
					<use xlink:href="#SVGID_7_"  overflow="visible"/>
				</clipPath>
			</g>
		</g>
	</g>
</g>
</svg>
