<?xml version="1.0" encoding="utf-8"?>
<!-- Generator: Adobe Illustrator 16.0.0, SVG Export Plug-In . SVG Version: 6.00 Build 0)  -->
<!DOCTYPE svg PUBLIC "-//W3C//DTD SVG 1.1//EN" "http://www.w3.org/Graphics/SVG/1.1/DTD/svg11.dtd">
<svg version="1.1" id="圖層_1" xmlns="http://www.w3.org/2000/svg" xmlns:xlink="http://www.w3.org/1999/xlink" x="0px" y="0px"
	 width="504.5px" height="97.5px" viewBox="0 0 504.5 97.5" enable-background="new 0 0 504.5 97.5" xml:space="preserve">
<g>
	<path fill-rule="evenodd" clip-rule="evenodd" fill="#FFFFFF" d="M-8.037,138.81c0-50.571,0-101.143,0-151.741
		c173.645,0,347.309,0,520.961,0c0,50.587,0,101.164,0,151.741C339.27,138.81,165.626,138.81-8.037,138.81z M46.625,94.208
		c1.893-0.459,3.944-2.235,4.038-3.56c0.225-3.181,0.445-6.372,0.406-9.556c-0.021-1.658-0.801-3.3-0.878-4.966
		c-0.165-3.574-0.062-7.159-0.135-10.738c-0.038-1.855,0.263-2.339,2.009-2.912c1.598-0.524,3.149-1.205,4.766-1.658
		c0.975-0.273,2.042-0.379,3.053-0.317c1.472,0.091,2.988,0.023,3.85-1.166c1.189-1.642,2.058-3.522,2.982-5.341
		c0.161-0.317,0.059-0.974-0.182-1.221c-0.189-0.195-0.845-0.128-1.18,0.043c-1.901,0.976-3.743,2.07-5.655,3.023
		c-2.353,1.173-4.722,2.333-7.159,3.309c-0.692,0.277-2.103,0.192-2.391-0.247c-0.659-1.003-1.318-2.434-1.088-3.498
		c0.4-1.847,1.871-2.979,3.867-3.457c4.83-1.156,9.639-2.41,14.423-3.745c0.962-0.269,1.922-1.001,1.633-2.321
		c-0.29-1.322-1.242-1.857-2.47-1.5c-1.175,0.341-2.3,0.901-3.39,1.474c-0.698,0.367-1.247,1.017-1.942,1.392
		c-1.689,0.911-3.206,0.139-3.542-1.731c-0.458-2.542,0.273-3.82,2.733-4.787c0.186-0.073,0.38-0.143,0.54-0.257
		c0.786-0.558,2.426-0.663,1.836-2c-0.229-0.52-1.94-0.671-2.904-0.522c-1.802,0.28-2.969-0.076-3.958-1.619
		c-0.338-0.527-0.754-1.061-1.258-1.416c-1.386-0.977-2.328-0.554-2.398,1.113c-0.019,0.448,0.448,1.03,0.848,1.361
		c1.457,1.206,1.745,2.39,0.753,3.57c-0.712,0.848-4.053,1.502-4.91,0.826c-0.442-0.349-0.791-1.042-0.846-1.611
		c-0.172-1.781-0.255-3.579-0.232-5.369c0.014-1.09-0.151-2.418,1.36-2.808c1.301-0.335,2.609-0.746,3.936-0.852
		c1.664-0.132,2.409-1.343,3.194-2.442c0.315-0.441,0.083-1.274,0.1-1.929c-0.594,0.169-1.333,0.171-1.756,0.538
		c-1.301,1.127-2.69,1.869-4.455,1.79c-1.47-0.066-1.867-0.727-1.158-2.032c0.357-0.658,0.856-1.25,1.136-1.934
		c0.497-1.218,1.425-1.977,2.635-1.851c2.903,0.302,5.277-1.161,7.85-2c1.215-0.397,2.039-1.091,2.283-2.314
		c0.123-0.616,0.215-1.546-0.123-1.868c-0.441-0.42-1.382-0.631-2.002-0.485c-1.686,0.397-3.322,1.015-4.967,1.576
		c-1.608,0.547-2.537-0.14-2.426-1.863c0.029-0.442,0.134-0.889,0.273-1.312c0.433-1.318,0.934-2.615,1.327-3.944
		c0.097-0.328-0.049-0.772-0.192-1.119c-0.782-1.902-2.488-2.133-4.221-2.211c-0.589-0.027-1.188,0.179-1.783,0.279
		c0.242,0.561,0.369,1.22,0.748,1.663c0.827,0.964,1.604,1.861,1.561,3.267c-0.117,3.843-1.587,7.248-3.775,10.235
		c-1.288,1.759-1.821,3.178-0.732,5.132c0.46,0.827,0.529,1.937-0.711,2.154c-2.199,0.386-4.436,0.733-6.66,0.755
		c-1.864,0.019-2.286-1.002-1.223-2.55c0.565-0.823,0.64-1.478,0.058-2.296c-1.327-1.865-2.619-3.755-3.889-5.66
		c-0.354-0.53-0.744-1.12-0.838-1.726c-0.493-3.144-1.848-5.397-5.23-6.176c-1.641-0.377-2.174-0.234-2.027,1.446
		c0.055,0.633,0.214,1.302,0.505,1.861c0.522,1.005,1.214,1.919,1.771,2.908c0.856,1.517,0.481,2.328-1.268,2.586
		c-1.422,0.21-2.897,0.124-4.291,0.432c-0.701,0.156-1.494,0.778-1.834,1.411c-0.285,0.53-0.228,1.737,0.14,2.001
		c0.479,0.343,1.427,0.129,2.151,0.017c1.617-0.25,3.211-0.708,4.834-0.846c1.102-0.094,2.283,0.058,3.349,0.372
		c2.333,0.686,3.15,2.775,3.884,4.785c0.403,1.104-0.062,2.14-1.275,2.5c-1.849,0.549-3.729,0.991-5.604,1.449
		c-0.964,0.235-2.001,0.269-2.904,0.64c-1.322,0.543-1.394,1.923-0.19,2.679c0.753,0.473,1.559,0.961,2.408,1.166
		c3.402,0.819,4.708,3.478,5.677,6.381c0.504,1.512-0.063,2.253-1.636,2.523c-3.301,0.566-6.556,0.433-9.689-0.847
		c-1.241-0.507-2.052-0.13-2.521,1.033c-0.516,1.279-0.093,2.423,1.122,2.842c3.483,1.2,7.011,2.03,10.688,0.807
		c0.804-0.268,1.613-0.535,2.438-0.722c0.926-0.209,1.685,0.194,1.802,1.118c0.412,3.236,0.894,4.539-2.887,5.28
		c-4.106,0.806-8.269,1.345-12.424,1.868c-1.846,0.232-3.738,0.069-5.599,0.213C13,58.86,11.2,59.028,9.466,59.432
		c-1.467,0.342-1.943,2.1-0.867,2.847c1.177,0.818,2.427,1.575,3.741,2.13c0.603,0.255,1.484,0.115,2.157-0.102
		c2.903-0.937,5.754-2.035,8.665-2.943c2.563-0.8,5.173-1.448,7.772-2.122c4.477-1.16,8.952-2.332,13.457-3.375
		c0.587-0.136,1.685,0.265,1.968,0.752c1.655,2.847-0.104,6.117-3.296,6.677c-1.535,0.269-2.984,1.02-4.48,1.528
		c-1.174,0.399-2.338,0.962-3.547,1.104c-4.1,0.483-8.219,0.791-12.325,1.226c-0.472,0.05-1.213,0.419-1.279,0.75
		c-0.095,0.472,0.17,1.206,0.541,1.55c1.951,1.813,5.931,2.156,8.281,0.856c0.783-0.432,1.603-0.958,2.456-1.072
		c2.824-0.378,5.351-1.493,7.848-2.76c0.885-0.449,1.814-0.824,2.752-1.152c2.52-0.881,3.749,0.032,3.655,2.712
		c-0.115,3.292-0.299,6.582-0.39,9.874c-0.108,3.927-0.179,7.855-0.203,11.783C46.363,91.157,46.53,92.618,46.625,94.208z
		 M102.986,17.164c-0.157,0.227-0.314,0.454-0.471,0.681c0.669,0.881,1.315,1.781,2.013,2.639c2.222,2.733,1.943,4.01-1.228,5.417
		c-0.498,0.221-1.019,0.398-1.541,0.559c-2.853,0.88-5.747,1.463-8.759,1.474c-2.286,0.007-4.569,0.224-6.855,0.296
		c-1.243,0.039-2.496-0.104-3.732-0.008c-0.432,0.034-1.071,0.473-1.17,0.846c-0.097,0.364,0.26,1.072,0.621,1.288
		c0.839,0.502,1.778,0.877,2.719,1.162c1.523,0.459,3.203,0.563,4.59,1.263c1.499,0.756,2.777,0.448,4.125-0.026
		c3.42-1.203,6.832-2.43,10.223-3.709c1.194-0.451,1.936,0.188,2.313,1.032c0.398,0.889,0.223,1.941-0.875,2.394
		c-0.771,0.318-1.601,0.513-2.422,0.682c-1.988,0.41-4.125,0.426-5.701,1.945c-0.404,0.389-0.832,1.195-0.684,1.606
		c0.192,0.532,0.938,1.193,1.466,1.212c1.525,0.056,3.084-0.063,4.587-0.344c1.229-0.229,1.941,0.214,1.731,1.446
		c-0.188,1.096-0.673,1.97-1.85,2.303c-2.283,0.646-4.474,1.629-6.952,1.492c-0.57-0.031-1.708,0.719-1.669,0.966
		c0.114,0.725,0.537,1.599,1.123,2c0.643,0.44,1.596,0.453,2.425,0.592c1.736,0.291,2.689,1.355,1.845,2.436
		c-1.85,2.367-3.786,4.799-6.15,6.593c-2.16,1.639-4.945,2.441-7.426,3.67c-1.608,0.797-3.152,1.722-4.748,2.546
		c-1.22,0.63-1.664,1.657-1.194,2.961c0.316,0.877,1.717,1.47,2.806,1.03c1.284-0.518,2.506-1.189,3.75-1.806
		c2.125-1.054,4.146-2.58,6.391-3.061c2.812-0.602,4.903-2.136,6.943-3.831c1.567-1.302,2.755-1.228,3.314,0.707
		c0.661,2.288,1.246,4.604,1.719,6.938c0.601,2.964,1.972,3.988,4.916,3.455c0.393-0.071,0.79-0.145,1.188-0.159
		c4.096-0.149,7.737-1.701,11.154-3.785c1.168-0.712,2.621-1.396,2.626-3.185c0.011-3.927,0.025-7.854,0.079-11.78
		c0.024-1.759,1.499-2.889,3.065-2.179c1.938,0.878,3.896,1.85,5.573,3.135c2.918,2.238,6.346,2.382,9.186,0.036
		c1.077-0.89,1.055-1.908-0.237-2.395c-1.796-0.677-3.693-1.086-5.542-1.628c-3.125-0.917-6.251-1.831-9.366-2.781
		c-1.282-0.391-2.559-0.82-3.799-1.325c-1.747-0.711-3.495-1.437-5.169-2.297c-1.033-0.53-0.905-1.463-0.042-2.034
		c0.987-0.654,2.133-1.063,3.196-1.606c1.587-0.811,3.218-1.558,4.709-2.519c0.462-0.298,0.535-1.202,0.785-1.829
		c-0.688-0.01-1.431-0.192-2.05,0.008c-1.169,0.377-2.265,0.979-3.396,1.479c-1.633,0.722-3.359,1.287-4.882,2.192
		c-1.837,1.092-3.667,1.595-5.689,0.839c-0.637-0.238-1.607-0.755-1.636-1.197c-0.057-0.844,0.26-1.88,0.789-2.543
		c0.433-0.543,1.461-1.017,2.119-0.904c2.022,0.349,3.651-0.697,5.417-1.214c0.884-0.259,1.753-0.745,2.468-1.327
		c0.37-0.301,0.388-1.033,0.565-1.571c-0.632-0.02-1.337-0.231-1.884-0.023c-2.027,0.768-4,1.679-5.998,2.525
		c-1.332,0.564-2.136-0.11-2.586-1.258c-0.479-1.221-0.165-2.389,1.033-2.936c1.484-0.678,3.074-1.144,4.646-1.605
		c2.421-0.71,4.89-1.269,7.295-2.028c1.367-0.432,2.602-1.415,3.981-1.647c1.792-0.301,3.292-0.966,4.758-1.977
		c0.922-0.636,1.678-1.388,1.316-2.413c-0.297-0.843-1.093-1.981-1.817-2.104c-1.507-0.253-3.313-0.358-4.641,0.251
		c-4.74,2.176-9.333,4.671-13.976,7.055c-1.132,0.582-2.166,0.616-3.169-0.301c-0.875-0.8-1.738-1.656-2.743-2.26
		C105.416,18.064,104.167,17.671,102.986,17.164z M322.896,49.472c-0.084-0.207-0.168-0.413-0.252-0.62
		c-0.465,0.024-0.957-0.041-1.391,0.089c-1.526,0.458-3.011,1.08-4.559,1.435c-0.642,0.147-1.401-0.222-2.106-0.356
		c0.157-0.814,0.201-1.678,0.522-2.421c0.15-0.348,0.821-0.507,1.285-0.674c1.265-0.456,2.556-0.839,3.809-1.322
		c0.316-0.122,0.722-0.493,0.742-0.774c0.022-0.313-0.284-0.851-0.561-0.941c-0.526-0.17-1.136-0.138-1.705-0.107
		c-1.088,0.058-2.186,0.321-3.254,0.228c-1.303-0.114-2.796-1.74-2.731-2.819c0.089-1.485,1.276-1.872,2.44-2.268
		c1.83-0.622,3.701-1.162,5.458-1.95c1.7-0.763,3.418,0.596,3.866,2.037c0.177,0.569,0.359,1.156,0.403,1.746
		c0.275,3.629,0.512,7.26,0.76,10.892c0.172,2.498,0.016,4.862-2.017,6.748c-0.342,0.317-0.414,1.569-0.128,1.806
		c1.359,1.127,2.8,2.23,4.378,2.997c1.44,0.7,2.737-0.446,2.6-2.104c-0.12-1.435-0.448-2.856-0.523-4.291
		c-0.18-3.426-0.362-6.858-0.357-10.287c0.004-2.681,0.288-5.362,0.443-8.042c0.015-0.249-0.001-0.5-0.015-0.749
		c-0.228-4.121-3.413-5.758-6.754-4.393c-2.573,1.052-5.084,2.268-7.576,3.505c-2.479,1.231-4.779,1.739-6.468-1.62
		c-1.219-2.425-0.758-4.224,1.688-5.199c1.419-0.566,2.927-0.912,4.394-1.359c1.558-0.474,3.105-0.981,4.675-1.413
		c0.765-0.21,1.574-0.257,2.354-0.421c3.605-0.756,7.179-1.74,10.819-2.231c3.234-0.436,5.252-1.965,6.126-5.027
		c0.257-0.899,0.263-1.87,0.383-2.808c-1.04,0.067-2.175-0.111-3.105,0.245c-4.044,1.543-7.982,3.369-12.048,4.847
		c-3.411,1.24-6.94,2.158-10.427,3.186c-1.691,0.498-2.521-0.045-3.254-1.674c-0.336-0.746-0.927-1.617-1.622-1.91
		c-1.362-0.575-2.864-0.877-4.337-1.105c-0.711-0.109-1.809-0.041-2.145,0.396c-0.352,0.459-0.127,1.492,0.07,2.212
		c0.354,1.29,0.973,2.51,1.296,3.806c0.253,1.013-0.096,1.982-1.29,2.151c-2.706,0.384-5.42,0.739-8.142,0.977
		c-2.793,0.245-5.619-0.644-8.414,0.486c-1.947,0.787-2.26,1.378-0.892,2.949c0.288,0.332,0.63,0.676,1.021,0.853
		c3.255,1.473,6.526,2.224,9.871,0.19c0.532-0.324,1.208-0.424,1.827-0.588c0.72-0.19,1.461-0.301,2.174-0.51
		c1.459-0.43,2.883-1.008,4.363-1.328c1.355-0.292,1.848,0.221,1.499,1.529c-0.639,2.4-1.262,4.826-2.192,7.119
		c-0.645,1.589-1.618,3.13-2.761,4.411c-1.45,1.625-3.199,2.99-4.857,4.423c-1.8,1.554-2.047,2.261-0.894,4.346
		c0.521,0.943,1.437,1.668,2.174,2.492c0.76-0.816,1.525-1.627,2.279-2.45c0.823-0.898,1.498-2.008,2.479-2.667
		c2.039-1.371,3.544-3.03,4.129-5.456c0.127-0.526,0.233-1.154,0.582-1.504c0.392-0.395,1.216-0.864,1.548-0.697
		c0.49,0.247,0.986,1.022,0.997,1.581c0.029,1.583-0.258,3.169-0.292,4.756c-0.059,2.74-0.039,5.481-0.013,8.222
		c0.013,1.309,0.953,1.842,2.054,1.967c1.122,0.127,1.362-0.79,1.514-1.667c0.118-0.688,0.122-1.415,0.354-2.06
		c0.224-0.621,0.547-1.344,1.053-1.696c1.139-0.791,2.434-1.35,3.634-2.057C319.564,51.537,321.224,50.494,322.896,49.472z
		 M403.322,48.642c-0.016-0.048-0.032-0.097-0.048-0.145c-0.499,0-1.04,0.129-1.488-0.021c-3.387-1.13-6.807-2.188-10.104-3.542
		c-1.497-0.614-1.605-2.154-0.494-3.369c0.664-0.725,1.549-1.242,2.281-1.91c1.604-1.462,3.247-2.892,4.727-4.473
		c0.771-0.824,0.345-2.777-0.576-3.212c-1.13-0.533-1.877,0.205-2.538,1.008c-0.126,0.154-0.239,0.322-0.333,0.498
		c-1.592,2.978-3.756,5.502-6.174,7.828c-0.717,0.689-1.428,0.896-2.423,0.433c-2.202-1.025-4.452-1.952-6.708-2.858
		c-1.708-0.686-1.896-1.351-0.599-2.675c0.345-0.352,0.751-0.682,1.19-0.896c3.262-1.582,6.525-3.162,9.82-4.671
		c0.919-0.421,1.476-0.943,1.509-1.987c0.067-2.086,0.225-4.17,0.251-6.257c0.049-3.849,0.063-7.683,2.305-11.088
		c0.218-0.33,0.123-1.181-0.152-1.432c-0.292-0.267-1.058-0.292-1.473-0.104c-5.128,2.326-10.585,3.438-16.068,4.47
		c-0.685,0.128-1.375,0.286-2.022,0.534c-1.374,0.525-1.458,1.218-0.862,2.565c0.632,1.43,1.42,3.011,1.353,4.491
		c-0.26,5.708-0.896,11.396-1.271,17.1c-0.251,3.829-0.286,7.671-0.443,11.507c-0.069,1.689-0.363,3.385-0.268,5.062
		c0.155,2.736,0.483,5.468,0.883,8.181c0.104,0.705,0.685,1.372,1.143,1.983c0.642,0.856,1.358,1.658,2.072,2.456
		c0.337,0.377,0.765,0.991,1.112,0.966c0.506-0.036,1.076-0.469,1.433-0.891c0.336-0.397,0.369-1.034,0.642-1.504
		c1.064-1.832,2.053-3.724,3.294-5.431c1.268-1.744,2.853-3.253,4.2-4.944c1.114-1.399,2.081-2.916,3.118-4.377
		c1.125-1.585,2.672-2.089,4.435-1.336c2.563,1.096,5.097,2.255,7.639,3.397c1.118,0.502,2.316,1.029,3.365,0.096
		c1.486-1.323,2.439-3.034,2.66-5.043c0.135-1.226-0.466-1.643-1.652-1.338C405.814,48.032,404.567,48.333,403.322,48.642z
		 M248.886,53.021c1.037-0.604,1.799-1.131,2.628-1.514c1.655-0.765,3.351-1.443,5.023-2.172c0.533-0.233,1.406-0.414,1.507-0.785
		c0.405-1.506,0.812-3.086,0.755-4.622c-0.052-1.397-0.715-2.768-1.086-4.156c-0.479-1.795-1.51-2.174-3.105-1.294
		c-1.685,0.929-3.407,1.822-5.192,2.531c-3.174,1.26-6.411,2.361-9.615,3.545c-1.16,0.429-1.508,1.632-0.645,2.509
		c1.214,1.233,2.602,2.297,3.786,3.556c0.668,0.71,1.078,1.666,1.604,2.51c-0.787,0.457-1.57,0.919-2.364,1.363
		c-0.123,0.068-0.292,0.065-0.44,0.072c-4.531,0.205-9.061,0.452-13.594,0.595c-3.923,0.124-7.85,0.11-11.774,0.197
		c-1.279,0.028-2.315,1.161-2.122,2.188c0.221,1.177,1.448,1.805,2.756,1.589c1.468-0.243,2.962-0.443,4.446-0.456
		c4.486-0.04,8.973,0.022,13.458,0.039c4.28,0.016,8.561-0.026,12.839,0.052c4.225,0.077,8.447,0.33,12.671,0.397
		c3.181,0.051,6.365-0.035,9.547-0.127c1.331-0.039,2.901,0.156,3.937-0.465c2.506-1.503,4.817-3.354,7.091-5.208
		c0.882-0.72,1.008-1.969,0.123-2.8c-0.361-0.339-1.383-0.245-1.976-0.016c-1.695,0.655-3.259,1.775-4.996,2.164
		c-2.151,0.481-4.424,0.427-6.646,0.576c-3.168,0.211-6.335,0.488-9.507,0.565c-2.613,0.064-5.233-0.1-7.848-0.217
		C249.777,53.619,249.42,53.291,248.886,53.021z M158.916,38.696c0,0.011,0,0.023,0,0.034c-0.349,0-0.727-0.088-1.039,0.019
		c-0.642,0.219-1.513,0.376-1.813,0.857c-0.573,0.916-1.183,1.921-0.279,3.155c1.98,2.702,2.882,5.706,2.285,9.117
		c-0.117,0.668,0.424,1.451,0.663,2.181c0.613-0.245,1.271-0.417,1.823-0.762c0.349-0.218,0.647-0.655,0.783-1.057
		c0.681-2.02,1.414-4.034,1.916-6.101c0.663-2.727,1.04-3.104,3.834-3.378c2.064-0.202,4.165-0.358,6.16-0.876
		c3.388-0.88,6.705-2.03,10.054-3.063c0.141-0.044,0.317-0.102,0.44-0.055c0.607,0.23,1.615,0.395,1.704,0.767
		c0.135,0.569-0.17,1.578-0.635,1.897c-2.325,1.598-4.882,2.68-7.767,2.822c-1.344,0.066-2.694,0.157-4.024,0.351
		c-2.4,0.348-2.88,1.646-1.289,3.553c1.083,1.298,2.306,2.479,3.438,3.737c0.988,1.099,2.201,1.366,3.532,0.902
		c1.481-0.517,2.898-1.22,4.377-1.743c2.887-1.02,5.809-1.946,8.69-2.983c0.38-0.137,0.728-0.662,0.855-1.079
		c0.062-0.203-0.361-0.663-0.663-0.851c-2.105-1.308-2.263-1.642-1.48-3.942c0.735-2.159,1.441-3.019-1.886-2.982
		c-0.425,0.004-1.089-0.274-1.217-0.592c-0.13-0.324,0.168-0.942,0.456-1.28c0.298-0.35,0.79-0.565,1.232-0.76
		c1.23-0.542,2.521-0.963,3.712-1.576c2.046-1.053,3.471-0.34,3.726,1.986c0.135,1.24,0.981,1.834,2.036,2.05
		c1.015,0.208,2.042,0.073,2.418-1.177c0.397-1.321,0.802-2.64,1.145-3.975c0.278-1.083-0.244-1.733-1.184-2.299
		c-1.438-0.867-2.739-0.321-4.145,0.022c-2.22,0.542-4.488,0.882-6.723,1.368c-3.725,0.808-6.975,3.071-10.923,3.337
		c-2.097,0.142-4.131,1.081-6.217,1.558c-1.197,0.273-2.446,0.31-3.662,0.513c-1.067,0.179-2.121,0.629-3.18,0.629
		C163.686,39.022,161.301,38.817,158.916,38.696z M486.721,51.233c0.151,0.018,0.303,0.035,0.454,0.052
		c-0.417,3-0.759,6.013-1.317,8.986c-0.101,0.537-1.068,1.247-1.676,1.287c-1.524,0.101-3.104,0.028-4.604-0.269
		c-3.655-0.724-7.27-1.654-10.922-2.393c-0.512-0.104-1.146,0.402-1.725,0.626c0.358,0.504,0.616,1.287,1.094,1.461
		c1.53,0.557,3.137,0.91,4.724,1.303c3.773,0.935,6.77,3.314,9.985,5.295c1.113,0.686,2.29,1.305,3.511,1.754
		c0.37,0.136,1.304-0.282,1.437-0.645c0.519-1.417,1.046-2.898,1.147-4.384c0.139-2.012-0.308-4.066-0.15-6.074
		c0.305-3.907,0.968-7.786,1.277-11.692c0.409-5.163,0.593-10.344,0.929-15.513c0.187-2.877,0.498-5.747,0.729-8.621
		c0.218-2.721,0.38-5.445,0.61-8.165c0.162-1.927-1.126-2.876-3.029-2.393c-1.573,0.4-3.215,0.551-4.834,0.752
		c-0.937,0.116-1.889,0.145-2.834,0.156c-1.583,0.02-3.167,0.024-4.75-0.021c-1.086-0.031-2.184-0.306-3.25-0.203
		c-1.183,0.114-1.943,1.659-1.457,2.615c0.636,1.252,3.051,2.441,4.525,2.146c2.586-0.517,5.157-1.108,7.741-1.636
		c0.726-0.148,1.477-0.267,2.213-0.25c1.288,0.03,2.195,1.173,2.072,2.416c-0.387,3.914-0.815,7.825-1.105,11.747
		c-0.154,2.083,0.002,4.187-0.082,6.277C487.227,40.976,486.961,46.104,486.721,51.233z M241.344,41.743
		c2.694-0.256,4.081-1.921,5.801-3.066c2-1.331,4.141-2.945,6.393-3.282c3.185-0.476,5.418-2.027,7.508-4.126
		c0.323-0.325,0.399-0.897,0.591-1.355c-0.573-0.116-1.202-0.445-1.708-0.31c-1.773,0.473-3.503,1.111-5.253,1.675
		c-1.055,0.339-1.703-0.209-2.213-1.045c-0.506-0.829-0.761-1.598,0.116-2.4c1.531-1.4,2.824-3.092,4.938-3.735
		c0.411-0.125,0.891-0.4,1.088-0.748c0.235-0.416,0.2-0.985,0.282-1.488c-0.5-0.07-1.061-0.313-1.485-0.166
		c-0.536,0.187-0.954,0.701-1.435,1.059c-1.004,0.747-2.073,0.379-2.394-0.847c-0.15-0.577-0.174-1.186-0.315-1.766
		c-0.725-2.985-3.054-4.262-5.999-3.307c-1.348,0.438-1.712,1.206-0.905,2.349c0.766,1.086,1.784,1.991,2.609,3.04
		c1.023,1.3,0.575,3.189-0.902,3.932c-1.817,0.914-3.647,1.802-5.489,2.663c-1.399,0.654-2.53,0.144-2.793-1.382
		c-0.173-1.007-0.149-2.091,0.012-3.104c0.267-1.68-0.86-2.334-1.988-2.98c-1.008-0.578-1.835-0.13-2.462,0.716
		c-0.503,0.677-1.015,1.364-1.388,2.114c-0.165,0.331-0.143,0.912,0.044,1.234c1.315,2.269,2.735,4.477,4.042,6.75
		c0.896,1.559,1.809,1.763,3.38,0.912c1.997-1.082,4.072-2.028,6.157-2.932c1.148-0.498,2.428-0.431,2.953,0.867
		c0.51,1.259-0.421,2.243-1.402,2.852c-1.304,0.81-2.715,1.473-4.137,2.063c-1.74,0.721-3.565,1.237-5.301,1.968
		c-1.001,0.421-1.288,2.146-0.477,2.754C239.93,41.187,240.828,41.487,241.344,41.743z M192.896,27.461
		c0.047-0.202,0.095-0.404,0.142-0.607c2.023,0,4.049-0.052,6.069,0.021c1.094,0.04,2.057-0.334,2.255-1.301
		c0.233-1.137-0.961-1.277-1.775-1.612c-0.466-0.192-0.876-0.521-1.311-0.79c0.295-0.438,0.576-0.887,0.89-1.311
		c0.606-0.82,1.369-1.557,1.818-2.453c0.683-1.361-0.043-2.364-1.561-2.381c-1.956-0.022-3.276,1.62-3.134,3.728
		c0.045,0.67-0.299,1.963-0.403,1.957c-1.286-0.079-2.637-0.152-3.814-0.62c-1.067-0.424-0.675-1.428-0.311-2.33
		c0.849-2.104,0.232-3.5-1.852-4.458c-0.317-0.146-0.631-0.315-0.965-0.405c-0.799-0.216-1.609-0.393-2.414-0.585
		c0.133,0.845,0.259,1.692,0.407,2.535c0.024,0.138,0.133,0.268,0.224,0.385c1.189,1.526,0.865,2.99-0.226,4.378
		c-0.676,0.86-1.428,1.661-2.154,2.481c-0.729,0.824-1.635,1.187-2.692,0.799c-1.529-0.561-2.997-0.386-4.532,0.021
		c-0.627,0.167-1.714,0.086-1.997-0.309c-0.36-0.503-0.275-1.478-0.099-2.178c0.365-1.44,1.09-2.805,1.319-4.256
		c0.113-0.716-0.338-1.793-0.901-2.289c-1.226-1.076-3.854-0.938-4.755,0.006c-1.207,1.262-1.332,3.197-0.176,4.794
		c0.736,1.017,0.938,2.129,0.286,3.071c-0.83,1.198-1.983,2.168-2.978,3.254c-1.231,1.346-2.559,2.628-3.609,4.105
		c-0.46,0.647-0.338,1.71-0.48,2.584c0.862-0.361,1.947-0.505,2.548-1.122c3.011-3.088,6.874-3.744,10.847-3.826
		c3.637-0.075,6.971-0.912,10.075-2.754c1.496-0.887,2.2-0.769,3.449,0.386C191.59,26.847,192.287,27.107,192.896,27.461z
		 M170.659,58.086c-0.094-0.232-0.188-0.464-0.283-0.696c-0.885,0.474-2.212,0.739-2.557,1.469c-0.572,1.21,0.756,1.651,1.673,2.181
		c1.273,0.735,2.563,1.495,3.673,2.445c1.433,1.227,2.811,2.558,4.003,4.015c1.585,1.937,2.435,2.166,5.225,0.354
		c2.032-1.318,4.093-2.643,6.288-3.641c1.458-0.663,3.178-0.738,4.774-1.105c2.036-0.47,2.01-0.479,1.634-2.605
		c-0.4-2.261-0.307-4.436,1.026-6.458c0.386-0.585,0.82-1.75,0.568-2.015c-0.49-0.514-1.439-0.715-2.222-0.785
		c-0.602-0.054-1.251,0.255-1.858,0.466c-0.94,0.328-1.839,0.788-2.794,1.052c-3.859,1.069-7.739,2.065-11.6,3.128
		C175.682,56.588,173.174,57.353,170.659,58.086z M361.664,30.675c0.141,0.02,0.281,0.039,0.422,0.059
		c-0.173,1.271-0.232,2.574-0.579,3.795c-0.12,0.421-1.009,0.944-1.452,0.869c-0.531-0.09-1.159-0.688-1.385-1.218
		c-0.255-0.598-0.121-1.366-0.135-2.061c-0.036-1.835-1.332-2.939-3.139-2.702c-0.689,0.09-1.421-0.028-2.078,0.151
		c-0.758,0.207-1.931,0.511-2.062,1.002c-0.175,0.659,0.273,1.733,0.809,2.287c2.359,2.439,2.503,3.162,1.128,6.359
		c-0.312,0.722-0.385,1.65-0.26,2.435c0.241,1.519,0.61,3.034,1.111,4.487c0.221,0.641,0.788,1.369,1.385,1.625
		c0.925,0.398,2.082,0.116,2.38-0.919c0.384-1.333,0.631-2.809,0.479-4.171c-0.334-2.996,0.666-4.318,3.595-4.237
		c2.294,0.064,2.886-0.528,2.9-2.852c0.008-1.247-0.006-2.498,0.102-3.738c0.274-3.178,0.615-6.349,0.92-9.524
		c0.118-1.23,0.157-2.668-1.101-3.165c-1.382-0.546-2.97-0.673-4.478-0.729c-0.451-0.017-1.276,0.796-1.306,1.268
		c-0.028,0.459,0.647,1.181,1.179,1.417c1.818,0.807,2.424,1.496,2.281,3.526C362.241,26.657,361.911,28.664,361.664,30.675z
		 M438.205,48.106c1.87,0.04,3.167-1.769,2.486-3.232c-1.955-4.204-5.412-7.034-9.108-9.595c-0.309-0.214-1.113-0.079-1.459,0.188
		c-1.532,1.188-2.978,2.488-4.463,3.735c-0.645,0.541-1.313,1.053-1.97,1.578c-1.457,1.162-3.009,2.228-4.319,3.535
		c-0.475,0.474-0.604,1.563-0.488,2.308c0.279,1.811,0.781,3.588,1.22,5.372c0.329,1.335,1.585,2.146,2.533,1.583
		c3.314-1.964,6.634-3.923,9.882-5.993c1.782-1.137,2.531-1.263,4.353-0.171C437.373,47.717,437.913,47.957,438.205,48.106z
		 M471.029,47.247c0.001,0.002,0.001,0.004,0.001,0.007c0.747,0,1.503,0.07,2.241-0.015c1.338-0.154,2.114-0.845,2.273-2.3
		c0.156-1.426,0.59-2.818,0.83-4.237c0.173-1.025,0.318-2.071,0.316-3.106c-0.003-1.264-0.559-2.113-2.025-1.924
		c-2.15,0.277-4.313,0.473-6.447,0.837c-3.123,0.534-6.185,1.453-9.428,0.948c-1.402-0.219-2.264,0.648-1.951,2.002
		c0.257,1.114,1.004,2.106,1.441,3.189c1.081,2.677,2.037,5.408,3.205,8.045c0.318,0.72,1.209,1.187,1.837,1.769
		c0.61-0.662,1.551-1.229,1.772-2.001c0.737-2.565,0.92-2.88,3.552-3.198C469.431,47.167,470.235,47.247,471.029,47.247z
		 M223.451,37.448c-1.137-0.193-2.003,0.152-2.102,1.432c-0.085,1.112,0.293,1.827,1.571,1.842c0.424,0.004,0.956,0.143,1.251,0.419
		c1.815,1.697,4.22,1.891,6.416,2.613c1.48,0.486,2.386,0.032,2.587-1.47c0.202-1.511-0.015-2.871-1.43-3.962
		c-1.477-1.138-3.04-1.376-4.766-1.23C225.801,37.19,224.626,37.328,223.451,37.448z M476.642,23.933
		c-0.006-0.054-0.013-0.108-0.019-0.163c-1.129,0.122-2.262,0.21-3.385,0.372c-2.993,0.431-5.981,0.888-8.971,1.348
		c-0.536,0.083-1.121,0.123-1.573,0.378c-0.32,0.181-0.603,0.687-0.619,1.059c-0.012,0.271,0.395,0.732,0.695,0.814
		c1.762,0.483,3.537,1.184,5.327,1.245c3.873,0.132,7.309-1.475,10.572-3.405c0.287-0.17,0.537-0.792,0.447-1.1
		c-0.086-0.293-0.616-0.571-0.991-0.639C477.652,23.759,477.139,23.894,476.642,23.933z M229.905,51.808
		c1.197-0.849,2.277-1.463,3.167-2.284c0.974-0.899,0.688-1.801-0.592-2.149c-0.665-0.18-1.37-0.215-2.06-0.296
		c-2.024-0.238-4.046-0.534-6.078-0.655c-0.588-0.035-1.267,0.36-1.773,0.735c-0.139,0.103,0.058,1.108,0.333,1.251
		C225.17,49.585,227.495,50.656,229.905,51.808z M411.319,30.78c0.036,0.203-0.019,0.646,0.177,0.867
		c1.114,1.258,2.256,2.497,3.474,3.653c0.208,0.198,0.949,0.126,1.231-0.094c1.113-0.867,2.177-1.807,3.19-2.79
		c0.967-0.938,0.825-1.396-0.499-1.786c-0.465-0.137-0.99-0.253-1.453-0.175c-1.67,0.283-3.251,0.175-4.747-0.695
		C411.71,29.188,411.324,29.633,411.319,30.78z M436.149,27.795c-1.021,0.102-1.887,0.087-2.694,0.295
		c-0.823,0.212-1.523,0.736-1.005,1.747c1.271,2.478,5.173,2.808,6.819,0.604c0.843-1.128,0.574-2.001-0.781-2.318
		C437.671,27.933,436.821,27.885,436.149,27.795z M158.147,24.259c0.034,1.437,1.519,3.493,2.493,3.871
		c0.982,0.381,1.624-0.144,1.91-0.914c0.413-1.11,0.673-2.294,0.832-3.469c0.044-0.321-0.526-1.049-0.779-1.033
		c-1.259,0.079-2.529,0.262-3.745,0.593C158.482,23.408,158.265,24.09,158.147,24.259z M185.161,19.204
		c-0.199-0.31-0.448-1.091-0.963-1.358c-0.324-0.168-1.116,0.348-1.576,0.712c-0.538,0.426-0.984,0.989-1.396,1.547
		c-0.621,0.839-0.299,1.748,0.65,1.979C182.934,22.342,185.103,20.676,185.161,19.204z"/>
	<path fill-rule="evenodd" clip-rule="evenodd" d="M46.625,94.208c-0.094-1.59-0.261-3.051-0.252-4.511
		c0.024-3.928,0.095-7.856,0.203-11.783c0.09-3.292,0.275-6.582,0.39-9.874c0.094-2.681-1.136-3.594-3.655-2.712
		c-0.938,0.328-1.867,0.703-2.752,1.152c-2.497,1.267-5.024,2.382-7.848,2.76c-0.853,0.114-1.673,0.64-2.456,1.072
		c-2.35,1.299-6.331,0.957-8.281-0.856c-0.371-0.344-0.636-1.078-0.541-1.55c0.066-0.332,0.807-0.7,1.279-0.75
		c4.106-0.435,8.226-0.743,12.325-1.226c1.209-0.142,2.373-0.705,3.547-1.104c1.496-0.509,2.945-1.259,4.48-1.528
		c3.192-0.56,4.951-3.83,3.296-6.677c-0.283-0.487-1.38-0.888-1.968-0.752c-4.505,1.042-8.98,2.215-13.457,3.375
		c-2.6,0.674-5.21,1.322-7.772,2.122c-2.911,0.908-5.762,2.007-8.665,2.943c-0.672,0.217-1.554,0.357-2.157,0.102
		c-1.314-0.556-2.564-1.313-3.741-2.13c-1.076-0.747-0.6-2.505,0.867-2.847C11.2,59.028,13,58.86,14.781,58.723
		c1.861-0.144,3.753,0.019,5.599-0.213c4.155-0.523,8.317-1.063,12.424-1.868c3.781-0.741,3.299-2.044,2.887-5.28
		c-0.118-0.924-0.876-1.327-1.802-1.118c-0.825,0.187-1.633,0.454-2.438,0.722c-3.676,1.223-7.204,0.393-10.688-0.807
		c-1.214-0.418-1.637-1.563-1.122-2.842c0.469-1.163,1.279-1.541,2.521-1.033c3.133,1.28,6.388,1.413,9.689,0.847
		c1.573-0.27,2.14-1.011,1.636-2.523c-0.969-2.903-2.274-5.562-5.677-6.381c-0.849-0.205-1.655-0.693-2.408-1.166
		c-1.203-0.756-1.131-2.136,0.19-2.679c0.903-0.371,1.939-0.404,2.904-0.64c1.875-0.458,3.755-0.9,5.604-1.449
		c1.213-0.36,1.679-1.396,1.275-2.5c-0.733-2.01-1.551-4.099-3.884-4.785c-1.066-0.313-2.247-0.465-3.349-0.372
		c-1.623,0.138-3.217,0.596-4.834,0.846c-0.724,0.112-1.671,0.326-2.151-0.017c-0.367-0.264-0.424-1.471-0.14-2.001
		c0.34-0.633,1.133-1.255,1.834-1.411c1.393-0.309,2.869-0.222,4.291-0.432c1.749-0.258,2.124-1.07,1.268-2.586
		c-0.557-0.988-1.25-1.903-1.771-2.908c-0.291-0.559-0.45-1.228-0.505-1.861c-0.146-1.68,0.386-1.823,2.027-1.446
		c3.382,0.779,4.737,3.032,5.23,6.176c0.095,0.606,0.484,1.195,0.838,1.726c1.27,1.904,2.563,3.794,3.889,5.66
		c0.582,0.818,0.508,1.473-0.058,2.296c-1.063,1.548-0.642,2.569,1.223,2.55c2.224-0.022,4.46-0.369,6.66-0.755
		c1.24-0.217,1.171-1.327,0.711-2.154c-1.088-1.954-0.556-3.373,0.732-5.132c2.188-2.987,3.658-6.392,3.775-10.235
		c0.043-1.406-0.734-2.303-1.561-3.267c-0.379-0.442-0.506-1.102-0.748-1.663c0.595-0.1,1.194-0.306,1.783-0.279
		c1.733,0.078,3.438,0.309,4.221,2.211c0.143,0.347,0.289,0.792,0.192,1.119c-0.394,1.329-0.895,2.626-1.327,3.944
		c-0.139,0.422-0.245,0.87-0.273,1.312c-0.11,1.723,0.818,2.41,2.426,1.863c1.646-0.561,3.281-1.178,4.967-1.576
		c0.62-0.146,1.562,0.065,2.002,0.485c0.338,0.322,0.246,1.252,0.123,1.868c-0.244,1.224-1.068,1.917-2.283,2.314
		c-2.573,0.84-4.947,2.302-7.85,2c-1.21-0.126-2.138,0.632-2.635,1.851c-0.28,0.685-0.779,1.276-1.136,1.934
		c-0.708,1.305-0.312,1.966,1.158,2.032c1.765,0.079,3.154-0.663,4.455-1.79c0.423-0.367,1.162-0.369,1.756-0.538
		c-0.017,0.655,0.216,1.488-0.1,1.929c-0.785,1.099-1.53,2.31-3.194,2.442c-1.326,0.106-2.635,0.516-3.936,0.852
		c-1.512,0.39-1.346,1.718-1.36,2.808c-0.023,1.79,0.061,3.587,0.232,5.369c0.055,0.57,0.404,1.263,0.846,1.611
		c0.857,0.677,4.197,0.022,4.91-0.826c0.992-1.18,0.704-2.364-0.753-3.57c-0.4-0.332-0.867-0.914-0.848-1.361
		c0.07-1.667,1.012-2.09,2.398-1.113c0.504,0.355,0.919,0.889,1.258,1.416c0.988,1.542,2.156,1.898,3.958,1.619
		c0.963-0.149,2.674,0.002,2.904,0.522c0.59,1.336-1.051,1.441-1.836,2c-0.16,0.114-0.354,0.184-0.54,0.257
		c-2.459,0.967-3.19,2.246-2.733,4.787c0.337,1.871,1.854,2.643,3.542,1.731c0.695-0.375,1.244-1.025,1.942-1.392
		c1.09-0.573,2.215-1.132,3.39-1.474c1.229-0.357,2.181,0.178,2.47,1.5c0.289,1.32-0.671,2.053-1.633,2.321
		c-4.784,1.335-9.593,2.589-14.423,3.745c-1.996,0.478-3.467,1.609-3.867,3.457c-0.23,1.064,0.429,2.495,1.088,3.498
		c0.289,0.439,1.699,0.524,2.391,0.247c2.438-0.976,4.806-2.136,7.159-3.309c1.912-0.953,3.753-2.048,5.655-3.023
		c0.335-0.171,0.99-0.238,1.18-0.043c0.241,0.247,0.343,0.904,0.182,1.221c-0.924,1.819-1.793,3.699-2.982,5.341
		c-0.862,1.189-2.378,1.257-3.85,1.166c-1.01-0.063-2.078,0.044-3.053,0.317c-1.616,0.453-3.167,1.134-4.766,1.658
		c-1.747,0.573-2.047,1.056-2.009,2.912c0.073,3.579-0.029,7.164,0.135,10.738c0.077,1.666,0.858,3.308,0.878,4.966
		c0.04,3.184-0.181,6.375-0.406,9.556C50.568,91.974,48.518,93.749,46.625,94.208z M45.167,37.94
		c0.167-3.29-1.312-4.575-3.754-3.631c-0.568,0.219-1.063,0.719-1.495,1.18c-1.442,1.542-2.916,2.9-5.162,3.292
		c-1.87,0.326-2.318,2.226-1.03,3.609c0.237,0.254,0.474,0.513,0.676,0.794c1.491,2.077,2.073,2.202,4.332,0.872
		c1.485-0.874,2.871-1.821,4.757-1.872c1.61-0.043,2.033-0.858,1.884-2.593C45.315,38.9,45.202,38.212,45.167,37.94z M46.175,46.925
		c-0.005,0-0.01,0-0.016-0.001c0.023-0.397,0.074-0.795,0.066-1.192c-0.047-2.398-1.345-3.236-3.305-1.944
		c-1.941,1.278-3.694,2.839-5.554,4.245c-1.677,1.268-1.78,2.354-0.401,5.043c0.7,1.365,2.014,1.828,3.697,1.276
		c1.034-0.339,2.073-0.675,3.083-1.078c1.022-0.409,2.064-0.848,2.153-2.195C45.989,49.694,46.083,48.31,46.175,46.925z
		 M54.445,45.238c-0.281-0.343-0.516-0.917-0.863-0.997c-0.845-0.192-1.801-0.379-2.606-0.167c-2.126,0.561-2.516,1.504-1.79,3.584
		c0.128,0.368,0.082,0.804,0.239,1.153c0.317,0.701,0.901,1.986,1.059,1.941c0.979-0.284,2.23-0.646,2.706-1.41
		C53.894,48.215,54.025,46.73,54.445,45.238z"/>
	<path fill-rule="evenodd" clip-rule="evenodd" d="M102.986,17.164c1.181,0.507,2.43,0.901,3.521,1.556
		c1.005,0.604,1.868,1.46,2.743,2.26c1.003,0.917,2.037,0.882,3.169,0.301c4.644-2.384,9.236-4.879,13.976-7.055
		c1.327-0.609,3.134-0.504,4.641-0.251c0.724,0.122,1.52,1.261,1.817,2.104c0.361,1.025-0.395,1.776-1.316,2.413
		c-1.466,1.011-2.966,1.676-4.758,1.977c-1.379,0.232-2.614,1.215-3.981,1.647c-2.405,0.759-4.874,1.318-7.295,2.028
		c-1.572,0.461-3.163,0.927-4.646,1.605c-1.197,0.547-1.512,1.715-1.033,2.936c0.45,1.148,1.254,1.823,2.586,1.258
		c1.998-0.846,3.971-1.758,5.998-2.525c0.547-0.208,1.252,0.004,1.884,0.023c-0.177,0.538-0.195,1.27-0.565,1.571
		c-0.715,0.582-1.584,1.067-2.468,1.327c-1.766,0.518-3.395,1.563-5.417,1.214c-0.658-0.113-1.686,0.361-2.119,0.904
		c-0.529,0.664-0.846,1.7-0.789,2.543c0.029,0.442,1,0.959,1.636,1.197c2.023,0.756,3.853,0.252,5.689-0.839
		c1.523-0.905,3.249-1.47,4.882-2.192c1.13-0.5,2.226-1.102,3.396-1.479c0.62-0.2,1.363-0.018,2.05-0.008
		c-0.25,0.627-0.323,1.531-0.785,1.829c-1.492,0.961-3.123,1.708-4.709,2.519c-1.063,0.543-2.209,0.953-3.196,1.606
		c-0.862,0.571-0.99,1.504,0.042,2.034c1.674,0.86,3.422,1.586,5.169,2.297c1.24,0.505,2.517,0.934,3.799,1.325
		c3.115,0.95,6.241,1.864,9.366,2.781c1.848,0.542,3.745,0.951,5.542,1.628c1.292,0.487,1.314,1.505,0.237,2.395
		c-2.84,2.346-6.267,2.202-9.186-0.036c-1.677-1.286-3.635-2.257-5.573-3.135c-1.566-0.71-3.041,0.419-3.065,2.179
		c-0.054,3.926-0.068,7.854-0.079,11.78c-0.005,1.79-1.458,2.473-2.626,3.185c-3.417,2.084-7.058,3.636-11.154,3.785
		c-0.397,0.014-0.795,0.088-1.188,0.159c-2.944,0.533-4.315-0.491-4.916-3.455c-0.473-2.333-1.058-4.65-1.719-6.938
		c-0.559-1.935-1.747-2.009-3.314-0.707c-2.04,1.695-4.131,3.229-6.943,3.831c-2.246,0.481-4.267,2.006-6.391,3.061
		c-1.243,0.617-2.466,1.288-3.75,1.806c-1.089,0.44-2.49-0.153-2.806-1.03c-0.47-1.305-0.026-2.332,1.194-2.961
		c1.595-0.824,3.14-1.749,4.748-2.546c2.481-1.229,5.267-2.032,7.426-3.67c2.364-1.794,4.3-4.226,6.15-6.593
		c0.844-1.081-0.109-2.145-1.845-2.436c-0.829-0.139-1.782-0.151-2.425-0.592c-0.586-0.401-1.008-1.275-1.123-2
		c-0.039-0.247,1.099-0.997,1.669-0.966c2.478,0.137,4.669-0.847,6.952-1.492c1.177-0.333,1.662-1.208,1.85-2.303
		c0.21-1.232-0.501-1.675-1.731-1.446c-1.503,0.281-3.062,0.4-4.587,0.344c-0.529-0.019-1.274-0.681-1.466-1.212
		c-0.148-0.411,0.279-1.217,0.684-1.606c1.576-1.52,3.712-1.536,5.701-1.945c0.821-0.169,1.651-0.364,2.422-0.682
		c1.098-0.453,1.273-1.504,0.875-2.394c-0.378-0.844-1.12-1.483-2.313-1.032c-3.392,1.279-6.803,2.506-10.223,3.709
		c-1.347,0.474-2.626,0.782-4.125,0.026c-1.388-0.7-3.067-0.803-4.59-1.263c-0.941-0.284-1.88-0.66-2.719-1.162
		c-0.361-0.216-0.718-0.924-0.621-1.288c0.099-0.373,0.738-0.812,1.17-0.846c1.236-0.096,2.489,0.047,3.732,0.008
		c2.286-0.072,4.57-0.289,6.855-0.296c3.012-0.01,5.906-0.594,8.759-1.474c0.521-0.161,1.042-0.338,1.541-0.559
		c3.171-1.407,3.449-2.684,1.228-5.417c-0.697-0.858-1.343-1.758-2.013-2.639C102.672,17.617,102.83,17.391,102.986,17.164z
		 M112.376,64.892c1.421-0.256,2.949-0.274,4.23-0.845c1.037-0.461,2.387-1.49,2.538-2.437c0.514-3.227,0.677-6.527,0.729-9.803
		c0.023-1.448-1.196-2.022-2.455-1.301c-3.067,1.755-6.517,1.856-9.85,2.499c-0.736,0.142-1.764,0.585-1.983,1.151
		c-0.286,0.739-0.158,1.891,0.257,2.588c0.578,0.973,1.709,1.028,2.826,0.696c2.246-0.669,4.498-1.324,6.775-1.865
		c0.353-0.084,1.24,0.491,1.225,0.719c-0.08,1.215,0.03,2.775-1.325,3.254c-1.065,0.376-2.37,0.179-3.554,0.074
		c-0.869-0.077-1.712-0.555-2.573-0.574c-0.396-0.009-1.079,0.6-1.164,1.022C107.658,62.033,110.357,64.904,112.376,64.892z
		 M105.676,49.422c3.009,0.025,11.302-2.764,13.235-4.241c1.35-1.031,1.385-2.323-0.122-3.073c-2.129-1.059-4.328-2.042-6.593-2.746
		c-2.572-0.8-5.771,1.359-6.409,3.974c-0.206,0.841-0.452,1.824-1.029,2.383c-0.728,0.705-1.116,1.39-0.614,2.191
		C104.592,48.624,105.368,49.131,105.676,49.422z"/>
	<path fill-rule="evenodd" clip-rule="evenodd" d="M322.896,49.472c-1.672,1.022-3.331,2.065-5.019,3.059
		c-1.2,0.707-2.495,1.266-3.634,2.057c-0.506,0.352-0.829,1.075-1.053,1.696c-0.232,0.646-0.236,1.372-0.354,2.06
		c-0.151,0.878-0.392,1.794-1.514,1.667c-1.101-0.125-2.041-0.658-2.054-1.967c-0.026-2.741-0.046-5.482,0.013-8.222
		c0.034-1.587,0.321-3.173,0.292-4.756c-0.011-0.559-0.507-1.334-0.997-1.581c-0.332-0.167-1.156,0.302-1.548,0.697
		c-0.349,0.35-0.455,0.979-0.582,1.504c-0.585,2.426-2.09,4.085-4.129,5.456c-0.98,0.659-1.655,1.77-2.479,2.667
		c-0.754,0.822-1.52,1.633-2.279,2.45c-0.737-0.824-1.652-1.549-2.174-2.492c-1.153-2.085-0.906-2.792,0.894-4.346
		c1.658-1.433,3.407-2.797,4.857-4.423c1.143-1.281,2.116-2.822,2.761-4.411c0.931-2.293,1.554-4.719,2.192-7.119
		c0.349-1.309-0.144-1.821-1.499-1.529c-1.48,0.32-2.904,0.897-4.363,1.328c-0.713,0.209-1.454,0.32-2.174,0.51
		c-0.619,0.164-1.295,0.264-1.827,0.588c-3.345,2.034-6.616,1.283-9.871-0.19c-0.391-0.176-0.732-0.521-1.021-0.853
		c-1.368-1.571-1.056-2.163,0.892-2.949c2.795-1.129,5.621-0.241,8.414-0.486c2.722-0.238,5.436-0.593,8.142-0.977
		c1.194-0.169,1.543-1.139,1.29-2.151c-0.323-1.295-0.941-2.516-1.296-3.806c-0.197-0.721-0.422-1.753-0.07-2.212
		c0.336-0.438,1.434-0.506,2.145-0.396c1.473,0.228,2.975,0.531,4.337,1.105c0.695,0.293,1.286,1.164,1.622,1.91
		c0.732,1.629,1.563,2.172,3.254,1.674c3.486-1.027,7.016-1.945,10.427-3.186c4.065-1.478,8.004-3.303,12.048-4.847
		c0.931-0.355,2.065-0.177,3.105-0.245c-0.12,0.938-0.126,1.909-0.383,2.808c-0.874,3.062-2.892,4.591-6.126,5.027
		c-3.641,0.491-7.214,1.475-10.819,2.231c-0.779,0.164-1.589,0.21-2.354,0.421c-1.569,0.432-3.117,0.938-4.675,1.413
		c-1.467,0.447-2.975,0.793-4.394,1.359c-2.445,0.975-2.906,2.773-1.688,5.199c1.688,3.359,3.988,2.851,6.468,1.62
		c2.492-1.237,5.003-2.453,7.576-3.505c3.341-1.365,6.526,0.272,6.754,4.393c0.014,0.249,0.029,0.5,0.015,0.749
		c-0.155,2.681-0.439,5.361-0.443,8.042c-0.005,3.429,0.178,6.86,0.357,10.287c0.075,1.435,0.403,2.856,0.523,4.291
		c0.138,1.658-1.159,2.803-2.6,2.104c-1.578-0.767-3.019-1.87-4.378-2.997c-0.286-0.237-0.214-1.489,0.128-1.806
		c2.032-1.886,2.188-4.25,2.017-6.748c-0.248-3.631-0.484-7.263-0.76-10.892c-0.044-0.589-0.227-1.176-0.403-1.746
		c-0.448-1.441-2.166-2.8-3.866-2.037c-1.757,0.789-3.628,1.328-5.458,1.95c-1.164,0.396-2.352,0.783-2.44,2.268
		c-0.064,1.079,1.429,2.706,2.731,2.819c1.068,0.093,2.166-0.17,3.254-0.228c0.569-0.031,1.179-0.063,1.705,0.107
		c0.276,0.09,0.583,0.628,0.561,0.941c-0.021,0.282-0.426,0.653-0.742,0.774c-1.253,0.482-2.544,0.866-3.809,1.322
		c-0.464,0.167-1.135,0.327-1.285,0.674c-0.321,0.743-0.365,1.607-0.522,2.421c0.705,0.134,1.465,0.503,2.106,0.356
		c1.548-0.355,3.032-0.978,4.559-1.435c0.434-0.13,0.926-0.064,1.391-0.089C322.728,49.059,322.812,49.266,322.896,49.472z"/>
	<path fill-rule="evenodd" clip-rule="evenodd" d="M403.322,48.642c1.245-0.309,2.492-0.61,3.734-0.929
		c1.187-0.305,1.787,0.113,1.652,1.338c-0.221,2.009-1.174,3.72-2.66,5.043c-1.049,0.934-2.247,0.407-3.365-0.096
		c-2.542-1.143-5.076-2.302-7.639-3.397c-1.763-0.753-3.31-0.25-4.435,1.336c-1.037,1.461-2.004,2.978-3.118,4.377
		c-1.348,1.691-2.933,3.201-4.2,4.944c-1.241,1.707-2.229,3.599-3.294,5.431c-0.272,0.47-0.306,1.106-0.642,1.504
		c-0.356,0.421-0.927,0.854-1.433,0.891c-0.348,0.025-0.775-0.588-1.112-0.966c-0.714-0.798-1.431-1.6-2.072-2.456
		c-0.458-0.612-1.039-1.279-1.143-1.983c-0.399-2.712-0.728-5.445-0.883-8.181c-0.096-1.677,0.198-3.373,0.268-5.062
		c0.157-3.835,0.192-7.678,0.443-11.507c0.375-5.704,1.011-11.393,1.271-17.1c0.067-1.479-0.721-3.061-1.353-4.491
		c-0.596-1.347-0.512-2.041,0.862-2.565c0.647-0.248,1.338-0.406,2.022-0.534c5.483-1.031,10.94-2.144,16.068-4.47
		c0.415-0.188,1.181-0.162,1.473,0.104c0.275,0.251,0.37,1.103,0.152,1.432c-2.241,3.405-2.256,7.239-2.305,11.088
		c-0.026,2.086-0.184,4.17-0.251,6.257c-0.033,1.044-0.59,1.566-1.509,1.987c-3.295,1.51-6.559,3.09-9.82,4.671
		c-0.439,0.213-0.846,0.544-1.19,0.896c-1.297,1.324-1.109,1.989,0.599,2.675c2.256,0.906,4.506,1.833,6.708,2.858
		c0.995,0.463,1.706,0.256,2.423-0.433c2.418-2.326,4.582-4.851,6.174-7.828c0.094-0.176,0.207-0.344,0.333-0.498
		c0.661-0.803,1.408-1.541,2.538-1.008c0.921,0.435,1.347,2.388,0.576,3.212c-1.479,1.582-3.123,3.011-4.727,4.473
		c-0.732,0.668-1.617,1.185-2.281,1.91c-1.111,1.215-1.003,2.755,0.494,3.369c3.297,1.354,6.717,2.411,10.104,3.542
		c0.448,0.149,0.989,0.021,1.488,0.021C403.29,48.545,403.307,48.593,403.322,48.642z M376.883,58.823
		c0.013,0.001,0.025,0.001,0.038,0.002c-0.023,0.198-0.114,0.418-0.059,0.59c0.205,0.635,0.293,1.527,0.742,1.799
		c0.417,0.252,1.421,0.048,1.848-0.323c1.219-1.059,2.286-2.294,3.391-3.482c0.37-0.398,0.626-0.906,1.012-1.285
		c1.688-1.659,3.448-3.247,5.099-4.942c1.711-1.756,1.667-2.893-0.069-4.567c-0.341-0.329-0.838-0.498-1.266-0.735
		c-1.72-0.953-3.544-1.76-5.122-2.909c-0.993-0.723-1.837-1.45-3.051-0.892c-1.196,0.551-1.639,1.627-1.712,2.931
		C377.476,49.618,377.171,54.22,376.883,58.823z M379.302,20.271c0.011,2.419,1.456,3.476,3.723,2.641
		c1.067-0.394,2.057-0.992,3.105-1.441c1.879-0.805,2.187-1.483,1.636-3.431c-0.451-1.591-1.723-1.778-3.036-1.898
		C381.817,15.876,379.291,17.814,379.302,20.271z M380.836,31.528c2.465-0.965,4.847-1.617,6.574-3.436
		c0.394-0.414,0.362-1.403,0.234-2.071c-0.069-0.361-0.74-0.832-1.168-0.862c-2.704-0.188-5.004,0.882-6.831,2.772
		c-0.507,0.524-0.649,1.685-0.493,2.46C379.247,30.861,380.235,31.15,380.836,31.528z"/>
	<path fill-rule="evenodd" clip-rule="evenodd" d="M248.886,53.021c0.534,0.27,0.891,0.597,1.262,0.614
		c2.615,0.118,5.235,0.282,7.848,0.217c3.172-0.078,6.339-0.354,9.507-0.565c2.223-0.149,4.495-0.095,6.646-0.576
		c1.737-0.389,3.301-1.509,4.996-2.164c0.593-0.229,1.614-0.323,1.976,0.016c0.885,0.831,0.759,2.081-0.123,2.8
		c-2.273,1.854-4.585,3.706-7.091,5.208c-1.035,0.621-2.605,0.426-3.937,0.465c-3.182,0.092-6.366,0.179-9.547,0.127
		c-4.225-0.067-8.447-0.32-12.671-0.397c-4.279-0.078-8.56-0.036-12.839-0.052c-4.486-0.017-8.973-0.079-13.458-0.039
		c-1.484,0.013-2.978,0.213-4.446,0.456c-1.308,0.216-2.535-0.412-2.756-1.589c-0.193-1.027,0.843-2.16,2.122-2.188
		c3.924-0.087,7.851-0.073,11.774-0.197c4.533-0.143,9.063-0.391,13.594-0.595c0.149-0.007,0.318-0.004,0.44-0.072
		c0.793-0.444,1.577-0.907,2.364-1.363c-0.526-0.845-0.936-1.8-1.604-2.51c-1.184-1.258-2.572-2.323-3.786-3.556
		c-0.863-0.877-0.515-2.081,0.645-2.509c3.205-1.184,6.441-2.285,9.615-3.545c1.786-0.708,3.508-1.602,5.192-2.531
		c1.596-0.88,2.626-0.501,3.105,1.294c0.371,1.388,1.034,2.759,1.086,4.156c0.057,1.535-0.35,3.115-0.755,4.622
		c-0.101,0.371-0.974,0.552-1.507,0.785c-1.673,0.729-3.368,1.407-5.023,2.172C250.686,51.89,249.923,52.417,248.886,53.021z
		 M255.954,43.902c-0.047-1.221-0.623-1.928-1.789-1.767c-3.507,0.486-6.178,2.869-9.281,4.28c-0.313,0.143-0.513,1.328-0.274,1.756
		c1.07,1.925,2.902,2.325,4.858,1.303c0.965-0.504,2-0.871,2.98-1.35C253.819,47.456,256.127,45.495,255.954,43.902z"/>
	<path fill-rule="evenodd" clip-rule="evenodd" d="M158.916,38.696c2.385,0.121,4.77,0.326,7.154,0.326
		c1.059,0,2.112-0.451,3.18-0.629c1.215-0.204,2.465-0.24,3.662-0.513c2.086-0.477,4.121-1.416,6.217-1.558
		c3.948-0.266,7.198-2.529,10.923-3.337c2.235-0.485,4.503-0.826,6.723-1.368c1.406-0.343,2.706-0.889,4.145-0.022
		c0.939,0.566,1.461,1.216,1.184,2.299c-0.343,1.335-0.748,2.654-1.145,3.975c-0.375,1.25-1.403,1.385-2.418,1.177
		c-1.055-0.216-1.9-0.81-2.036-2.05c-0.254-2.326-1.679-3.039-3.726-1.986c-1.191,0.613-2.481,1.035-3.712,1.576
		c-0.442,0.195-0.934,0.41-1.232,0.76c-0.288,0.338-0.586,0.956-0.456,1.28c0.128,0.318,0.792,0.597,1.217,0.592
		c3.327-0.037,2.621,0.823,1.886,2.982c-0.783,2.3-0.625,2.634,1.48,3.942c0.301,0.188,0.725,0.648,0.663,0.851
		c-0.127,0.417-0.475,0.942-0.855,1.079c-2.881,1.037-5.803,1.963-8.69,2.983c-1.479,0.523-2.896,1.226-4.377,1.743
		c-1.331,0.464-2.543,0.197-3.532-0.902c-1.132-1.259-2.354-2.439-3.438-3.737c-1.591-1.907-1.111-3.205,1.289-3.553
		c1.33-0.193,2.68-0.285,4.024-0.351c2.885-0.142,5.442-1.225,7.767-2.822c0.464-0.319,0.77-1.329,0.635-1.897
		c-0.089-0.373-1.097-0.537-1.704-0.767c-0.123-0.047-0.299,0.011-0.44,0.055c-3.349,1.032-6.666,2.183-10.054,3.063
		c-1.996,0.518-4.096,0.674-6.16,0.876c-2.794,0.274-3.171,0.651-3.834,3.378c-0.502,2.067-1.234,4.081-1.916,6.101
		c-0.136,0.401-0.434,0.838-0.783,1.057c-0.552,0.344-1.21,0.517-1.823,0.762c-0.238-0.73-0.78-1.513-0.663-2.181
		c0.597-3.411-0.305-6.416-2.285-9.117c-0.904-1.233-0.294-2.239,0.279-3.155c0.3-0.481,1.171-0.639,1.813-0.857
		c0.312-0.106,0.69-0.019,1.039-0.019C158.916,38.719,158.916,38.708,158.916,38.696z M187.909,46.232
		c0.013-1.401-0.823-2.229-1.87-1.999c-1.446,0.317-2.996,0.599-4.215,1.356c-0.744,0.462-0.951,1.79-1.398,2.729
		c0.632,0.277,1.361,0.909,1.878,0.767c1.616-0.443,3.176-1.125,4.702-1.834C187.464,47.039,187.739,46.433,187.909,46.232z"/>
	<path fill-rule="evenodd" clip-rule="evenodd" d="M487.433,35.846c0.084-2.09-0.072-4.194,0.082-6.277
		c0.29-3.921,0.719-7.833,1.105-11.747c0.123-1.243-0.784-2.386-2.072-2.416c-0.736-0.017-1.487,0.102-2.213,0.25
		c-2.584,0.528-5.155,1.119-7.741,1.636c-1.475,0.295-3.89-0.894-4.525-2.146c-0.486-0.956,0.274-2.5,1.457-2.615
		c1.066-0.103,2.164,0.172,3.25,0.203c1.583,0.045,3.167,0.042,4.75,0.021c0.945-0.012,1.897-0.04,2.834-0.156
		c1.619-0.201,3.261-0.352,4.834-0.752c1.903-0.483,3.191,0.466,3.029,2.393c-0.23,2.719-0.393,5.444-0.61,8.165
		c-0.23,2.875-0.542,5.744-0.729,8.621c-0.336,5.169-0.52,10.35-0.929,15.513c-0.31,3.907-0.973,7.786-1.277,11.692
		c-0.157,2.008,0.289,4.063,0.15,6.074c-0.102,1.486-0.629,2.967-1.147,4.384c-0.133,0.363-1.066,0.781-1.437,0.645
		c-1.221-0.449-2.397-1.068-3.511-1.754c-3.216-1.981-6.212-4.36-9.985-5.295c-1.587-0.393-3.193-0.746-4.724-1.303
		c-0.478-0.174-0.735-0.957-1.094-1.461c0.578-0.224,1.213-0.729,1.725-0.626c3.652,0.739,7.267,1.669,10.922,2.393
		c1.5,0.297,3.08,0.37,4.604,0.269c0.607-0.041,1.575-0.75,1.676-1.287c0.559-2.973,0.9-5.986,1.317-8.986
		C487.023,51.268,487.227,40.976,487.433,35.846z"/>
	<path fill-rule="evenodd" clip-rule="evenodd" d="M241.344,41.743c-0.516-0.255-1.414-0.556-2.133-1.095
		c-0.812-0.609-0.524-2.333,0.477-2.754c1.735-0.731,3.561-1.247,5.301-1.968c1.421-0.59,2.833-1.252,4.137-2.063
		c0.981-0.609,1.912-1.593,1.402-2.852c-0.525-1.298-1.805-1.365-2.953-0.867c-2.085,0.904-4.161,1.85-6.157,2.932
		c-1.571,0.851-2.484,0.647-3.38-0.912c-1.307-2.273-2.727-4.481-4.042-6.75c-0.187-0.322-0.209-0.904-0.044-1.234
		c0.374-0.75,0.885-1.437,1.388-2.114c0.627-0.846,1.455-1.294,2.462-0.716c1.127,0.646,2.254,1.3,1.988,2.98
		c-0.161,1.014-0.185,2.097-0.012,3.104c0.263,1.526,1.394,2.036,2.793,1.382c1.842-0.86,3.672-1.749,5.489-2.663
		c1.477-0.743,1.925-2.632,0.902-3.932c-0.825-1.049-1.843-1.954-2.609-3.04c-0.807-1.143-0.443-1.911,0.905-2.349
		c2.945-0.955,5.274,0.322,5.999,3.307c0.141,0.58,0.165,1.189,0.315,1.766c0.32,1.226,1.39,1.593,2.394,0.847
		c0.48-0.357,0.898-0.872,1.435-1.059c0.425-0.148,0.985,0.096,1.485,0.166c-0.082,0.503-0.047,1.072-0.282,1.488
		c-0.197,0.348-0.677,0.623-1.088,0.748c-2.114,0.644-3.407,2.335-4.938,3.735c-0.877,0.802-0.623,1.571-0.116,2.4
		c0.511,0.836,1.159,1.385,2.213,1.045c1.75-0.563,3.479-1.202,5.253-1.675c0.506-0.135,1.135,0.194,1.708,0.31
		c-0.191,0.458-0.268,1.03-0.591,1.355c-2.09,2.1-4.323,3.65-7.508,4.126c-2.252,0.337-4.393,1.951-6.393,3.282
		C245.424,39.822,244.038,41.486,241.344,41.743z"/>
	<path fill-rule="evenodd" clip-rule="evenodd" d="M191.085,26.38c-1.249-1.154-1.953-1.273-3.449-0.386
		c-3.104,1.843-6.438,2.68-10.075,2.754c-3.973,0.082-7.836,0.738-10.847,3.826c-0.601,0.617-1.687,0.761-2.548,1.122
		c0.142-0.874,0.02-1.937,0.48-2.584c1.05-1.478,2.378-2.76,3.609-4.105c0.994-1.086,2.148-2.057,2.978-3.254
		c0.652-0.942,0.451-2.054-0.286-3.071c-1.156-1.597-1.031-3.532,0.176-4.794c0.901-0.943,3.529-1.082,4.755-0.006
		c0.563,0.495,1.014,1.572,0.901,2.289c-0.229,1.451-0.954,2.816-1.319,4.256c-0.177,0.7-0.261,1.675,0.099,2.178
		c0.283,0.395,1.37,0.475,1.997,0.309c1.535-0.407,3.002-0.582,4.532-0.021c1.057,0.387,1.963,0.024,2.692-0.799
		c0.726-0.82,1.478-1.621,2.154-2.481c1.091-1.388,1.415-2.853,0.226-4.378c-0.091-0.117-0.2-0.247-0.224-0.385
		c-0.148-0.843-0.274-1.689-0.407-2.535c0.805,0.192,1.615,0.369,2.414,0.585c0.334,0.09,0.648,0.259,0.965,0.405
		c2.084,0.959,2.701,2.354,1.852,4.458c-0.364,0.902-0.756,1.905,0.311,2.33c1.177,0.468,2.529,0.542,3.814,0.62
		c0.104,0.006,0.448-1.287,0.403-1.957c-0.142-2.107,1.178-3.75,3.134-3.728c1.517,0.017,2.244,1.02,1.561,2.381
		c-0.45,0.896-1.212,1.633-1.818,2.453c-0.314,0.424-0.595,0.873-0.89,1.311c0.435,0.268,0.845,0.598,1.311,0.79
		c0.814,0.335,2.008,0.475,1.775,1.612c-0.198,0.967-1.161,1.341-2.255,1.301c-2.021-0.073-4.046-0.021-6.069-0.021
		C192.99,27.057,191.59,26.847,191.085,26.38z"/>
	<path fill-rule="evenodd" clip-rule="evenodd" d="M178.208,55.893c3.861-1.063,7.741-2.059,11.6-3.128
		c0.955-0.264,1.854-0.725,2.794-1.052c0.606-0.211,1.256-0.52,1.858-0.466c0.783,0.07,1.732,0.271,2.222,0.785
		c0.252,0.265-0.182,1.43-0.568,2.015c-1.333,2.021-1.426,4.197-1.026,6.458c0.376,2.126,0.402,2.135-1.634,2.605
		c-1.596,0.368-3.316,0.443-4.774,1.105c-2.195,0.998-4.256,2.322-6.288,3.641c-2.791,1.812-3.64,1.583-5.225-0.354
		c-1.192-1.457-2.57-2.789-4.003-4.015c-1.11-0.95-2.4-1.71-3.673-2.445c-0.917-0.529-2.245-0.97-1.673-2.181
		c0.345-0.729,1.672-0.995,2.557-1.469C170.47,57.623,176.593,56.337,178.208,55.893z M182.799,63.534
		c3.225-1.291,6.341-2.443,9.342-3.84c0.454-0.211,0.72-1.709,0.447-2.343c-0.264-0.615-1.298-1.127-2.06-1.24
		c-0.842-0.125-1.758,0.259-2.643,0.411c-2.444,0.42-4.751,1.086-6.474,3.07c-0.595,0.686-1.55,1.316-0.946,2.251
		C180.912,62.532,181.872,62.891,182.799,63.534z"/>
	<path fill-rule="evenodd" clip-rule="evenodd" d="M362.382,24.638c0.143-2.031-0.463-2.719-2.281-3.526
		c-0.531-0.236-1.207-0.958-1.179-1.417c0.029-0.472,0.854-1.284,1.306-1.268c1.508,0.056,3.096,0.184,4.478,0.729
		c1.258,0.497,1.219,1.935,1.101,3.165c-0.305,3.175-0.646,6.347-0.92,9.524c-0.107,1.24-0.094,2.491-0.102,3.738
		c-0.015,2.324-0.606,2.916-2.9,2.852c-2.929-0.082-3.929,1.241-3.595,4.237c0.151,1.363-0.096,2.838-0.479,4.171
		c-0.298,1.036-1.455,1.317-2.38,0.919c-0.597-0.256-1.164-0.985-1.385-1.625c-0.501-1.453-0.87-2.968-1.111-4.487
		c-0.125-0.785-0.052-1.712,0.26-2.435c1.375-3.197,1.231-3.92-1.128-6.359c-0.535-0.554-0.983-1.628-0.809-2.287
		c0.131-0.491,1.304-0.795,2.062-1.002c0.657-0.179,1.389-0.061,2.078-0.151c1.807-0.237,3.103,0.867,3.139,2.702
		c0.014,0.695-0.12,1.463,0.135,2.061c0.226,0.531,0.854,1.128,1.385,1.218c0.443,0.075,1.332-0.448,1.452-0.869
		c0.347-1.221,0.406-2.524,0.579-3.795C361.945,30.714,362.241,26.657,362.382,24.638z"/>
	<path fill-rule="evenodd" clip-rule="evenodd" d="M438.205,48.106c-0.292-0.15-0.832-0.39-1.334-0.691
		c-1.821-1.092-2.57-0.965-4.353,0.171c-3.248,2.07-6.567,4.029-9.882,5.993c-0.948,0.562-2.204-0.249-2.533-1.583
		c-0.438-1.784-0.94-3.562-1.22-5.372c-0.115-0.746,0.014-1.834,0.488-2.308c1.311-1.308,2.862-2.374,4.319-3.535
		c0.657-0.525,1.325-1.037,1.97-1.578c1.485-1.248,2.931-2.548,4.463-3.735c0.346-0.268,1.15-0.403,1.459-0.188
		c3.696,2.561,7.153,5.391,9.108,9.595C441.372,46.338,440.075,48.146,438.205,48.106z M435.854,43.352
		c-0.531-0.643-0.97-1.276-1.513-1.801c-0.459-0.444-1.151-0.672-1.544-1.155c-1.355-1.671-2.813-1.26-4.065,0.156
		c-1.401,1.583-2.551,3.412-3.639,5.236c-0.301,0.505-0.186,1.476,0.112,2.033c0.163,0.305,1.191,0.415,1.686,0.23
		c2.63-0.983,5.214-2.087,7.813-3.152c0.092-0.037,0.207-0.072,0.257-0.146C435.225,44.361,435.472,43.957,435.854,43.352z"/>
	<path fill-rule="evenodd" clip-rule="evenodd" d="M471.029,47.247c-0.794,0-1.599-0.08-2.382,0.015
		c-2.632,0.318-2.814,0.633-3.552,3.198c-0.222,0.773-1.162,1.34-1.772,2.001c-0.628-0.583-1.519-1.049-1.837-1.769
		c-1.168-2.637-2.124-5.368-3.205-8.045c-0.438-1.083-1.185-2.075-1.441-3.189c-0.313-1.354,0.549-2.221,1.951-2.002
		c3.243,0.505,6.305-0.415,9.428-0.948c2.134-0.365,4.297-0.561,6.447-0.837c1.467-0.189,2.022,0.66,2.025,1.924
		c0.002,1.036-0.144,2.081-0.316,3.106c-0.24,1.419-0.674,2.812-0.83,4.237c-0.159,1.455-0.936,2.146-2.273,2.3
		c-0.738,0.085-1.494,0.015-2.241,0.015C471.03,47.251,471.03,47.249,471.029,47.247z M466.999,45.312
		c3.108-0.585,5.194-1.027,5.693-3.859c0.242-1.375-0.458-2.565-1.804-2.501c-1.807,0.085-3.612,0.434-5.39,0.807
		c-1.103,0.232-1.947,0.915-1.669,2.235C464.215,43.818,465.715,45.341,466.999,45.312z"/>
	<path fill-rule="evenodd" clip-rule="evenodd" d="M223.451,37.448c1.176-0.12,2.35-0.258,3.528-0.357
		c1.726-0.146,3.289,0.092,4.766,1.23c1.415,1.091,1.632,2.451,1.43,3.962c-0.201,1.502-1.107,1.957-2.587,1.47
		c-2.196-0.722-4.601-0.916-6.416-2.613c-0.296-0.276-0.827-0.415-1.251-0.419c-1.278-0.015-1.656-0.729-1.571-1.842
		C221.447,37.6,222.313,37.255,223.451,37.448z"/>
	<path fill-rule="evenodd" clip-rule="evenodd" d="M476.642,23.933c0.497-0.04,1.011-0.174,1.484-0.089
		c0.375,0.067,0.905,0.345,0.991,0.639c0.09,0.308-0.16,0.93-0.447,1.1c-3.264,1.931-6.699,3.537-10.572,3.405
		c-1.79-0.061-3.565-0.762-5.327-1.245c-0.301-0.083-0.707-0.544-0.695-0.814c0.017-0.373,0.299-0.878,0.619-1.059
		c0.452-0.256,1.037-0.296,1.573-0.378c2.989-0.46,5.978-0.917,8.971-1.348c1.123-0.162,2.256-0.25,3.385-0.372
		C476.629,23.825,476.636,23.879,476.642,23.933z"/>
	<path fill-rule="evenodd" clip-rule="evenodd" d="M229.905,51.808c-2.411-1.152-4.735-2.223-7.004-3.398
		c-0.275-0.143-0.471-1.148-0.333-1.251c0.507-0.375,1.185-0.77,1.773-0.735c2.032,0.122,4.053,0.417,6.078,0.655
		c0.689,0.081,1.395,0.116,2.06,0.296c1.28,0.348,1.566,1.25,0.592,2.149C232.183,50.345,231.103,50.959,229.905,51.808z"/>
	<path fill-rule="evenodd" clip-rule="evenodd" d="M411.319,30.78c0.005-1.147,0.391-1.593,1.373-1.021
		c1.496,0.871,3.077,0.978,4.747,0.695c0.463-0.079,0.988,0.038,1.453,0.175c1.324,0.391,1.466,0.849,0.499,1.786
		c-1.014,0.983-2.077,1.923-3.19,2.79c-0.282,0.22-1.023,0.292-1.231,0.094c-1.218-1.156-2.359-2.396-3.474-3.653
		C411.301,31.426,411.355,30.983,411.319,30.78z"/>
	<path fill-rule="evenodd" clip-rule="evenodd" d="M436.149,27.795c0.672,0.09,1.521,0.138,2.339,0.329
		c1.355,0.316,1.624,1.189,0.781,2.318c-1.646,2.203-5.548,1.874-6.819-0.604c-0.519-1.011,0.182-1.535,1.005-1.747
		C434.263,27.882,435.129,27.896,436.149,27.795z"/>
	<path fill-rule="evenodd" clip-rule="evenodd" d="M158.147,24.259c0.118-0.169,0.335-0.851,0.71-0.953
		c1.216-0.331,2.486-0.514,3.745-0.593c0.253-0.016,0.823,0.712,0.779,1.033c-0.159,1.175-0.419,2.359-0.832,3.469
		c-0.286,0.771-0.928,1.295-1.91,0.914C159.666,27.752,158.181,25.696,158.147,24.259z"/>
	<path fill-rule="evenodd" clip-rule="evenodd" d="M185.161,19.204c-0.058,1.472-2.227,3.139-3.285,2.88
		c-0.949-0.232-1.271-1.14-0.65-1.979c0.412-0.558,0.858-1.121,1.396-1.547c0.46-0.364,1.251-0.88,1.576-0.712
		C184.713,18.112,184.962,18.894,185.161,19.204z"/>
	<path fill-rule="evenodd" clip-rule="evenodd" fill="#FFFFFF" d="M45.167,37.94c0.035,0.272,0.148,0.959,0.207,1.651
		c0.149,1.735-0.274,2.55-1.884,2.593c-1.886,0.051-3.271,0.998-4.757,1.872c-2.259,1.33-2.841,1.205-4.332-0.872
		c-0.202-0.282-0.439-0.54-0.676-0.794c-1.289-1.383-0.84-3.284,1.03-3.609c2.247-0.392,3.72-1.749,5.162-3.292
		c0.432-0.461,0.927-0.961,1.495-1.18C43.855,33.366,45.333,34.651,45.167,37.94z"/>
	<path fill-rule="evenodd" clip-rule="evenodd" fill="#FFFFFF" d="M46.175,46.925c-0.092,1.385-0.186,2.769-0.277,4.154
		c-0.089,1.348-1.13,1.787-2.153,2.195c-1.01,0.403-2.048,0.739-3.083,1.078c-1.684,0.552-2.997,0.089-3.697-1.276
		c-1.379-2.689-1.276-3.775,0.401-5.043c1.859-1.406,3.613-2.966,5.554-4.245c1.96-1.292,3.258-0.454,3.305,1.944
		c0.008,0.396-0.042,0.794-0.066,1.192C46.165,46.925,46.17,46.925,46.175,46.925z"/>
	<path fill-rule="evenodd" clip-rule="evenodd" fill="#FFFFFF" d="M54.445,45.238c-0.42,1.492-0.552,2.977-1.255,4.104
		c-0.476,0.763-1.727,1.125-2.706,1.41c-0.157,0.045-0.741-1.24-1.059-1.941c-0.158-0.349-0.111-0.785-0.239-1.153
		c-0.726-2.08-0.336-3.024,1.79-3.584c0.805-0.212,1.761-0.025,2.606,0.167C53.93,44.321,54.164,44.895,54.445,45.238z"/>
	<path fill-rule="evenodd" clip-rule="evenodd" fill="#FFFFFF" d="M112.376,64.892c-2.019,0.013-4.718-2.859-4.323-4.82
		c0.085-0.423,0.768-1.031,1.164-1.022c0.861,0.019,1.704,0.498,2.573,0.574c1.184,0.104,2.489,0.302,3.554-0.074
		c1.355-0.479,1.246-2.04,1.325-3.254c0.015-0.228-0.873-0.803-1.225-0.719c-2.278,0.541-4.53,1.196-6.775,1.865
		c-1.116,0.333-2.248,0.277-2.826-0.696c-0.415-0.698-0.543-1.85-0.257-2.588c0.22-0.566,1.247-1.01,1.983-1.151
		c3.333-0.642,6.783-0.743,9.85-2.499c1.259-0.721,2.479-0.146,2.455,1.301c-0.053,3.276-0.215,6.576-0.729,9.803
		c-0.151,0.946-1.501,1.976-2.538,2.437C115.325,64.617,113.797,64.635,112.376,64.892z"/>
	<path fill-rule="evenodd" clip-rule="evenodd" fill="#FFFFFF" d="M105.676,49.422c-0.308-0.292-1.083-0.799-1.531-1.513
		c-0.502-0.801-0.114-1.486,0.614-2.191c0.577-0.559,0.823-1.542,1.029-2.383c0.638-2.614,3.836-4.774,6.409-3.974
		c2.266,0.705,4.464,1.687,6.593,2.746c1.507,0.75,1.472,2.042,0.122,3.073C116.978,46.658,108.685,49.447,105.676,49.422z"/>
	<path fill-rule="evenodd" clip-rule="evenodd" fill="#FFFFFF" d="M376.883,58.823c0.288-4.604,0.593-9.206,0.851-13.811
		c0.073-1.303,0.516-2.38,1.712-2.931c1.214-0.558,2.058,0.168,3.051,0.892c1.578,1.148,3.402,1.956,5.122,2.909
		c0.428,0.237,0.925,0.406,1.266,0.735c1.736,1.674,1.78,2.811,0.069,4.567c-1.65,1.695-3.411,3.283-5.099,4.942
		c-0.386,0.378-0.642,0.887-1.012,1.285c-1.104,1.188-2.172,2.423-3.391,3.482c-0.427,0.371-1.431,0.575-1.848,0.323
		c-0.449-0.272-0.537-1.165-0.742-1.799c-0.056-0.172,0.035-0.392,0.059-0.59C376.908,58.825,376.896,58.824,376.883,58.823z"/>
	<path fill-rule="evenodd" clip-rule="evenodd" fill="#FFFFFF" d="M379.302,20.271c-0.011-2.457,2.516-4.396,5.428-4.13
		c1.313,0.12,2.585,0.307,3.036,1.898c0.551,1.948,0.243,2.626-1.636,3.431c-1.049,0.449-2.038,1.048-3.105,1.441
		C380.758,23.748,379.313,22.69,379.302,20.271z"/>
	<path fill-rule="evenodd" clip-rule="evenodd" fill="#FFFFFF" d="M380.836,31.528c-0.601-0.378-1.589-0.667-1.684-1.136
		c-0.156-0.775-0.014-1.936,0.493-2.46c1.827-1.891,4.127-2.96,6.831-2.772c0.428,0.03,1.099,0.501,1.168,0.862
		c0.128,0.668,0.159,1.657-0.234,2.071C385.683,29.912,383.301,30.563,380.836,31.528z"/>
	<path fill-rule="evenodd" clip-rule="evenodd" fill="#FFFFFF" d="M255.954,43.902c0.173,1.593-2.135,3.554-3.505,4.223
		c-0.98,0.479-2.016,0.846-2.98,1.35c-1.956,1.022-3.788,0.623-4.858-1.303c-0.239-0.429-0.04-1.614,0.274-1.756
		c3.103-1.411,5.774-3.794,9.281-4.28C255.331,41.974,255.907,42.682,255.954,43.902z"/>
	<path fill-rule="evenodd" clip-rule="evenodd" fill="#FFFFFF" d="M187.909,46.232c-0.169,0.201-0.445,0.806-0.903,1.019
		c-1.526,0.709-3.086,1.391-4.702,1.834c-0.517,0.142-1.246-0.489-1.878-0.767c0.448-0.939,0.654-2.267,1.398-2.729
		c1.219-0.758,2.769-1.04,4.215-1.356C187.086,44.004,187.921,44.832,187.909,46.232z"/>
	<path fill-rule="evenodd" clip-rule="evenodd" fill="#FFFFFF" d="M182.799,63.534c-0.927-0.643-1.887-1.001-2.333-1.691
		c-0.604-0.935,0.351-1.565,0.946-2.251c1.723-1.984,4.03-2.65,6.474-3.07c0.885-0.152,1.801-0.537,2.643-0.411
		c0.762,0.113,1.795,0.625,2.06,1.24c0.273,0.634,0.007,2.132-0.447,2.343C189.14,61.091,186.024,62.243,182.799,63.534z"/>
	<path fill-rule="evenodd" clip-rule="evenodd" fill="#FFFFFF" d="M435.854,43.352c-0.382,0.605-0.629,1.009-0.893,1.401
		c-0.05,0.074-0.165,0.109-0.257,0.146c-2.6,1.064-5.184,2.168-7.813,3.152c-0.494,0.185-1.522,0.075-1.686-0.23
		c-0.298-0.558-0.413-1.528-0.112-2.033c1.088-1.824,2.237-3.652,3.639-5.236c1.253-1.416,2.71-1.827,4.065-0.156
		c0.393,0.483,1.085,0.711,1.544,1.155C434.884,42.076,435.322,42.708,435.854,43.352z"/>
	<path fill-rule="evenodd" clip-rule="evenodd" fill="#FFFFFF" d="M466.999,45.312c-1.284,0.029-2.784-1.494-3.169-3.319
		c-0.278-1.32,0.566-2.002,1.669-2.235c1.777-0.374,3.583-0.722,5.39-0.807c1.346-0.063,2.046,1.126,1.804,2.501
		C472.193,44.285,470.107,44.727,466.999,45.312z"/>
</g>
</svg>
